<svg width="40" height="40" viewBox="0 0 40 40" fill="none" xmlns="http://www.w3.org/2000/svg">
<path d="M32.25 15.1625C32.4509 16.2894 32.3437 19.4526 32.3688 20.6375C32.3459 21.4618 31.1383 21.4578 31.1187 20.6375V16.8438C30.5067 2.04804 9.49985 2.04337 8.88746 16.8439C8.88748 16.8438 8.88748 20.6375 8.88748 20.6375C8.87525 21.4582 7.64683 21.4584 7.63749 20.6375C7.69411 19.4403 7.53234 16.3068 7.75629 15.1626C5.01877 15.2438 2.8125 17.5063 2.8125 20.275V22.7125C2.8125 25.5313 5.09998 27.8313 7.91248 27.8313C8.06699 27.8189 9.80728 27.8313 9.80728 27.8313C9.81381 27.8313 9.81617 27.8283 9.82159 27.8275C11.2055 30.5725 13.5986 32.6412 16.525 33.575V33.4125C16.5254 34.1324 17.1229 34.759 17.8625 34.75C17.8625 34.75 22.6625 34.75 22.6625 34.75C23.4 34.75 23.9938 34.15 23.9938 33.4125V31.7688C23.9938 31.0375 23.4 30.4375 22.6625 30.4375H17.8625C17.3877 30.4383 16.9397 30.6937 16.7125 31.1C13.3625 29.7688 11.1562 26.5313 11.1562 22.875V16.625C11.6411 4.85264 28.364 4.85285 28.85 16.6251C28.85 16.625 28.8562 26.5 28.8562 26.5C28.8562 27.2313 29.45 27.8313 30.1812 27.8313H32.0875C34.9 27.8313 37.1875 25.5313 37.1875 22.7125V20.275C37.1875 17.5125 34.9875 15.2438 32.25 15.1625ZM17.5787 13.5581C17.3148 13.2877 16.8692 13.198 16.4438 13.3271C15.8374 13.5129 15.6192 14.1519 15.6171 14.1583C15.3547 14.936 14.1911 14.5685 14.4257 13.78C14.7801 12.4673 16.8859 11.1783 18.4735 12.6853C19.0329 13.2587 19.1959 14.0625 18.92 14.8899C18.5224 16.0908 16.9737 16.7372 15.9757 17.5281H18.1979C18.5431 17.5281 18.8229 17.808 18.8229 18.1531C18.8229 18.4983 18.5431 18.7781 18.1979 18.7781H14.8663C14.5212 18.7781 14.2413 18.4983 14.2413 18.1531C14.2413 17.1247 15.2347 16.4786 16.1951 15.8539C17.1326 15.2494 18.313 14.5179 17.5787 13.5581ZM22.9063 12.0813C22.6625 11.9938 22.3813 12.0625 22.2125 12.2625L19.2375 15.7938C18.891 16.1818 19.1943 16.8389 19.7125 16.825C19.7125 16.825 22.0688 16.825 22.0688 16.825V18.3C22.0795 19.1195 23.3033 19.1229 23.3188 18.3V16.825C23.7501 16.8764 24.1686 16.6761 24.175 16.2C24.1675 15.7235 23.7514 15.5239 23.3188 15.575C23.3188 15.575 23.3188 12.6688 23.3188 12.6688C23.3188 12.4063 23.15 12.1688 22.9063 12.0813ZM22.0688 15.575H21.0563L22.0688 14.375V15.575ZM18.6859 22.8165C18.6859 22.8165 25.2304 18.7314 25.2304 18.7314C25.9364 18.3072 26.5798 19.3472 25.892 19.7916L19.3475 23.8767C19.2447 23.9411 19.1303 23.9716 19.0173 23.9716C18.414 23.9953 18.1533 23.1233 18.6859 22.8165ZM26.0577 23.7259C25.3308 24.6781 24.1776 26.5454 24.1776 27.5028C24.1776 27.8479 23.8977 28.1278 23.5525 28.1278C21.9402 27.9112 23.8749 24.7438 24.3631 23.9716H22.7906C21.9686 23.9573 21.9695 22.7359 22.7905 22.7216H25.5612C26.0632 22.705 26.3751 23.3374 26.0577 23.7259Z" fill="url(#paint0_linear_312_9489)"/>
<defs>
<linearGradient id="paint0_linear_312_9489" x1="2.8125" y1="5.74524" x2="31.4039" y2="39.6302" gradientUnits="userSpaceOnUse">
<stop stop-color="#5BCAFB"/>
<stop offset="1" stop-color="#320DE0"/>
</linearGradient>
</defs>
</svg>
