<svg width="40" height="40" viewBox="0 0 40 40" fill="none" xmlns="http://www.w3.org/2000/svg">
<path d="M29.6831 9.15004V10.3834L23.7831 6.96671C21.5497 5.68337 18.4331 5.68337 16.2164 6.96671L10.3164 10.4V9.15004C10.3164 5.40004 12.3664 3.33337 16.1164 3.33337H23.8831C27.6331 3.33337 29.6831 5.40004 29.6831 9.15004Z" fill="url(#paint0_linear_312_9574)"/>
<path d="M29.733 13.2834L29.4997 13.1667L27.233 11.8667L22.533 9.15002C21.0997 8.31669 18.8997 8.31669 17.4663 9.15002L12.7663 11.85L10.4997 13.1834L10.1997 13.3334C7.28301 15.3 7.08301 15.6667 7.08301 18.8167V26.35C7.08301 29.5 7.28301 29.8667 10.2663 31.8834L17.4663 36.0334C18.183 36.4667 19.083 36.65 19.9997 36.65C20.8997 36.65 21.8163 36.45 22.533 36.0334L29.7997 31.8334C32.733 29.8667 32.9163 29.5167 32.9163 26.35V18.8167C32.9163 15.6667 32.7163 15.3 29.733 13.2834ZM24.6497 22.5L23.633 23.75C23.4663 23.9334 23.3497 24.2834 23.3663 24.5334L23.4663 26.1334C23.533 27.1167 22.833 27.6167 21.9163 27.2667L20.433 26.6667C20.1997 26.5834 19.8163 26.5834 19.583 26.6667L18.0997 27.25C17.183 27.6167 16.483 27.1 16.5497 26.1167L16.6497 24.5167C16.6663 24.2667 16.5497 23.9167 16.383 23.7334L15.3497 22.5C14.7163 21.75 14.9997 20.9167 15.9497 20.6667L17.4997 20.2667C17.7497 20.2 18.033 19.9667 18.1663 19.7667L19.033 18.4334C19.5663 17.6 20.4163 17.6 20.9663 18.4334L21.833 19.7667C21.9663 19.9834 22.2663 20.2 22.4997 20.2667L24.0497 20.6667C24.9997 20.9167 25.283 21.75 24.6497 22.5Z" fill="url(#paint1_linear_312_9574)"/>
<defs>
<linearGradient id="paint0_linear_312_9574" x1="10.3164" y1="3.33337" x2="14.8675" y2="15.8061" gradientUnits="userSpaceOnUse">
<stop stop-color="#5BCAFB"/>
<stop offset="1" stop-color="#320DE0"/>
</linearGradient>
<linearGradient id="paint1_linear_312_9574" x1="7.08301" y1="8.52502" x2="35.1067" y2="34.2653" gradientUnits="userSpaceOnUse">
<stop stop-color="#5BCAFB"/>
<stop offset="1" stop-color="#320DE0"/>
</linearGradient>
</defs>
</svg>
