<svg width="40" height="40" viewBox="0 0 40 40" fill="none" xmlns="http://www.w3.org/2000/svg">
<path d="M34.0167 11.6V14.65C34.0167 15.7167 33.5167 16.7167 32.6501 17.3334L14.3167 30.7667C13.1334 31.6334 11.5167 31.6334 10.3501 30.75L7.95007 28.95C6.86673 28.1334 5.9834 26.3667 5.9834 25.0167V11.6C5.9834 9.73336 7.41673 7.66669 9.16673 7.01669L18.2834 3.60002C19.2334 3.25002 20.7667 3.25002 21.7167 3.60002L30.8334 7.01669C32.5834 7.66669 34.0167 9.73336 34.0167 11.6Z" fill="url(#paint0_linear_312_9586)"/>
<path d="M31.367 20.5667C32.467 19.7667 34.017 20.55 34.017 21.9167V25.05C34.017 26.4 33.1337 28.15 32.0503 28.9667L22.9337 35.7834C22.1337 36.3667 21.067 36.6667 20.0003 36.6667C18.9337 36.6667 17.867 36.3667 17.067 35.7667L15.6837 34.7334C14.7837 34.0667 14.7837 32.7167 15.7003 32.05L31.367 20.5667Z" fill="url(#paint1_linear_312_9586)"/>
<defs>
<linearGradient id="paint0_linear_312_9586" x1="5.9834" y1="3.33752" x2="34.0605" y2="31.3708" gradientUnits="userSpaceOnUse">
<stop stop-color="#5BCAFB"/>
<stop offset="1" stop-color="#320DE0"/>
</linearGradient>
<linearGradient id="paint1_linear_312_9586" x1="15.0107" y1="20.2451" x2="31.2584" y2="39.0501" gradientUnits="userSpaceOnUse">
<stop stop-color="#5BCAFB"/>
<stop offset="1" stop-color="#320DE0"/>
</linearGradient>
</defs>
</svg>
