<svg width="40" height="40" viewBox="0 0 40 40" fill="none" xmlns="http://www.w3.org/2000/svg">
<path d="M26.983 3.33331H13.0163C6.94967 3.33331 3.33301 6.94998 3.33301 13.0166V26.9666C3.33301 33.05 6.94967 36.6666 13.0163 36.6666H26.9663C33.033 36.6666 36.6497 33.05 36.6497 26.9833V13.0166C36.6663 6.94998 33.0497 3.33331 26.983 3.33331ZM30.8497 21.9833C30.8497 22.9833 30.083 23.4833 29.1663 23.0833L23.583 20.6833C22.933 20.4166 22.4163 20.75 22.4163 21.45V24.5333C22.4163 24.8 22.5663 25.1833 22.7663 25.3833L25.4997 28.1333C25.783 28.4166 25.9163 28.9833 25.783 29.3666L25.2497 30.9666C25.0163 31.6666 24.2163 32 23.5663 31.6666L20.783 29.3C20.3497 28.95 19.6497 28.95 19.233 29.3L16.433 31.6666C15.7663 32 14.983 31.6666 14.7497 30.95L14.2163 29.35C14.083 28.9666 14.2163 28.4 14.4997 28.1166L17.283 25.3833C17.4663 25.2 17.633 24.8166 17.633 24.5333V21.45C17.633 20.75 17.0997 20.4 16.4663 20.6833L10.883 23.0833C9.94967 23.4833 9.19967 22.9833 9.19967 21.9833V20.4333C9.19967 19.6333 9.81634 18.7 10.5497 18.3833L17.1163 15.55C17.383 15.4333 17.6163 15.0833 17.6163 14.7833V11.3333C17.6163 10.2 18.433 8.84998 19.4497 8.34998C19.8163 8.16665 20.233 8.16665 20.5997 8.34998C21.5997 8.86665 22.433 10.2 22.433 11.3333V14.7833C22.433 15.0833 22.6497 15.4333 22.933 15.55L29.4997 18.3833C30.2497 18.7 30.8497 19.6333 30.8497 20.4333V21.9833Z" fill="url(#paint0_linear_204_20383)"/>
<defs>
<linearGradient id="paint0_linear_204_20383" x1="3.33301" y1="3.33331" x2="36.6663" y2="36.65" gradientUnits="userSpaceOnUse">
<stop stop-color="#5BCAFB"/>
<stop offset="1" stop-color="#320DE0"/>
</linearGradient>
</defs>
</svg>
