<svg width="20" height="20" viewBox="0 0 20 20" fill="none" xmlns="http://www.w3.org/2000/svg">
<path fill-rule="evenodd" clip-rule="evenodd" d="M2.16715 12.6544H3.45902C3.69586 12.6544 3.88965 12.8482 3.88965 13.085V17.3913C3.88965 17.6282 3.69586 17.8219 3.45902 17.8219H2.16715C1.93031 17.8219 1.73652 17.6282 1.73652 17.3913V13.085C1.73656 12.8481 1.93031 12.6544 2.16715 12.6544ZM12.1721 13.7913C13.2845 13.4195 15.0675 12.4055 16.5639 11.5625C16.876 11.3868 17.2609 11.4586 17.4885 11.735L17.5225 11.7763C17.7675 12.0738 17.7407 12.5081 17.4609 12.7732C16.2996 13.8734 14.6893 15.2448 13.3687 16.1009C12.4634 16.6879 11.3045 17.3869 10.2098 17.476C9.34133 17.5468 8.48191 17.229 7.61215 17.1036C6.58414 16.9554 5.50555 16.9376 4.43543 16.9444C4.41641 16.9445 4.40113 16.9293 4.40113 16.9104V13.1587C4.40113 13.1427 4.41172 13.1293 4.42719 13.1256C4.63043 13.0763 4.8327 13.0254 5.03457 12.9704C6.0766 12.6864 6.80172 11.8524 7.95609 12.2004L10.5795 12.9913C11.4809 13.2631 11.0303 13.9998 10.6218 14.219C10.4918 14.2888 10.3304 14.3104 10.1687 14.2764C9.53848 14.1439 8.7107 13.9061 8.11891 13.9233C8.00609 13.9266 7.8957 13.9362 7.78727 13.9518C7.6477 13.9717 7.55066 14.1009 7.57051 14.2405C7.59035 14.38 7.71961 14.4771 7.85918 14.4572C8.045 14.4307 8.21758 14.424 8.40059 14.4414C8.85184 14.4844 9.55449 14.6685 10.0648 14.7758C10.3445 14.8346 10.6291 14.7944 10.8636 14.6686C11.6539 14.2444 10.748 14.2673 12.1721 13.7913ZM4.69633 5.31638C4.67355 5.30325 4.6452 5.31958 4.6452 5.34591V9.19579C4.6452 9.20829 4.65141 9.21907 4.66227 9.22532L7.99383 11.1481C8.0166 11.1613 8.04496 11.1449 8.04496 11.1186V7.26934C8.04496 7.25684 8.03875 7.24606 8.02793 7.23981L6.71746 6.48321V8.05282C6.71746 8.07915 6.6891 8.09552 6.66633 8.08235L5.98977 7.69173C5.97895 7.68548 5.97273 7.67473 5.97273 7.6622V6.05325L4.69633 5.31638ZM10.4066 4.01563C10.4175 4.00938 10.9976 4.35645 11.0084 4.3627L11.6863 4.75411C11.7091 4.76727 11.7091 4.79997 11.6863 4.81313L8.35281 6.73774C8.34199 6.74399 8.32957 6.74399 8.31875 6.73774L7.64082 6.34634C7.61801 6.33317 6.98555 5.99434 7.00832 5.98118L10.4066 4.01563ZM9.66105 3.58415L9.54824 3.65251L6.2616 5.55005L4.98523 4.81313C4.96242 4.79997 4.96246 4.76724 4.98523 4.75411L6.49051 3.88501L6.49078 3.88552L8.31988 2.8295C8.3307 2.82325 8.34312 2.82325 8.35395 2.8295L9.66105 3.58415ZM8.6277 7.27001V11.1192C8.6277 11.1456 8.65602 11.1619 8.67883 11.1488L12.0104 9.22528C12.0212 9.21903 12.0274 9.20829 12.0274 9.19575V5.34649C12.0274 5.32016 11.9991 5.3038 11.9763 5.31696L8.64473 7.24044C8.63391 7.24677 8.6277 7.25751 8.6277 7.27001ZM1.58289 7.35723C1.44168 7.35723 1.32715 7.24274 1.32715 7.10149C1.32715 6.96028 1.44164 6.84575 1.58289 6.84575H1.97605C2.11727 6.84575 2.2318 6.96024 2.2318 7.10149C2.2318 7.2427 2.1173 7.35723 1.97605 7.35723H1.58289ZM2.79207 7.38493C2.65086 7.38493 2.53633 7.27044 2.53633 7.12919C2.53633 6.98798 2.65082 6.87345 2.79207 6.87345H3.81902C3.96023 6.87345 4.07477 6.98794 4.07477 7.12919C4.07477 7.2704 3.96027 7.38493 3.81902 7.38493H2.79207ZM1.9434 10.6709C1.80219 10.6709 1.68766 10.5564 1.68766 10.4151C1.68766 10.2739 1.80215 10.1594 1.9434 10.1594H4.44426C4.58547 10.1594 4.7 10.2739 4.7 10.4151C4.7 10.5564 4.58551 10.6709 4.44426 10.6709H1.9434ZM2.37961 4.09895C2.2384 4.09895 2.12387 3.98446 2.12387 3.84321C2.12387 3.702 2.23836 3.58747 2.37961 3.58747H4.31777C4.45898 3.58747 4.57352 3.70196 4.57352 3.84321C4.57352 3.98442 4.45902 4.09895 4.31777 4.09895H2.37961ZM11.9655 4.09895H13.3722C13.5134 4.09895 13.628 3.98446 13.628 3.84321V2.72798C13.628 2.69661 13.6668 2.68188 13.6876 2.70536L17.5887 7.10661C17.6002 7.11958 17.6002 7.13884 17.5887 7.15184L13.6876 11.5531C13.6668 11.5766 13.628 11.5618 13.628 11.5305V10.4152C13.628 10.274 13.5135 10.1595 13.3722 10.1595H11.9655C11.8243 10.1595 11.7098 10.274 11.7098 10.4152C11.7098 10.5565 11.8243 10.671 11.9655 10.671H13.0824C13.1012 10.671 13.1165 10.6863 13.1165 10.7051V12.293H13.1175C13.1175 12.5256 13.4073 12.6376 13.563 12.4618L18.1388 7.2993C18.2241 7.20434 18.2265 7.05837 18.1399 6.96048L13.578 1.8136C13.3831 1.59477 13.1165 1.75524 13.1165 1.96552V3.55341C13.1165 3.5722 13.1012 3.58751 13.0824 3.58751H11.9655C11.8243 3.58751 11.7098 3.702 11.7098 3.84325C11.7098 3.98446 11.8243 4.09895 11.9655 4.09895Z" fill="white"/>
</svg>
