<svg width="40" height="40" viewBox="0 0 40 40" fill="none" xmlns="http://www.w3.org/2000/svg">
<path d="M21.25 26.5333H22.3333C23.4167 26.5333 24.3167 25.5667 24.3167 24.4C24.3167 22.95 23.8 22.6667 22.95 22.3667L21.2667 21.7833V26.5333H21.25Z" fill="url(#paint0_linear_203_20294)"/>
<path d="M19.9498 3.16665C10.7498 3.19999 3.29979 10.6833 3.33312 19.8833C3.36645 29.0833 10.8498 36.5333 20.0498 36.5C29.2498 36.4667 36.6998 28.9833 36.6665 19.7833C36.6331 10.5833 29.1498 3.14999 19.9498 3.16665ZM23.7665 20C25.0665 20.45 26.8165 21.4167 26.8165 24.4C26.8165 26.9667 24.7998 29.0333 22.3331 29.0333H21.2498V30C21.2498 30.6833 20.6831 31.25 19.9998 31.25C19.3165 31.25 18.7498 30.6833 18.7498 30V29.0333H18.1498C15.4165 29.0333 13.1998 26.7333 13.1998 23.9C13.1998 23.2167 13.7665 22.65 14.4498 22.65C15.1331 22.65 15.6998 23.2167 15.6998 23.9C15.6998 25.35 16.7998 26.5333 18.1498 26.5333H18.7498V20.9L16.2331 20C14.9331 19.55 13.1831 18.5833 13.1831 15.6C13.1831 13.0333 15.1998 10.9667 17.6665 10.9667H18.7498V9.99999C18.7498 9.31665 19.3165 8.74999 19.9998 8.74999C20.6831 8.74999 21.2498 9.31665 21.2498 9.99999V10.9667H21.8498C24.5831 10.9667 26.7998 13.2667 26.7998 16.1C26.7998 16.7833 26.2331 17.35 25.5498 17.35C24.8664 17.35 24.2998 16.7833 24.2998 16.1C24.2998 14.65 23.1998 13.4667 21.8498 13.4667H21.2498V19.1L23.7665 20Z" fill="url(#paint1_linear_203_20294)"/>
<path d="M15.7002 15.6167C15.7002 17.0667 16.2169 17.35 17.0669 17.65L18.7502 18.2333V13.4667H17.6669C16.5835 13.4667 15.7002 14.4333 15.7002 15.6167Z" fill="url(#paint2_linear_203_20294)"/>
<defs>
<linearGradient id="paint0_linear_203_20294" x1="21.25" y1="21.7833" x2="25.579" y2="24.5782" gradientUnits="userSpaceOnUse">
<stop stop-color="#5BCAFB"/>
<stop offset="1" stop-color="#320DE0"/>
</linearGradient>
<linearGradient id="paint1_linear_203_20294" x1="3.33301" y1="3.16663" x2="36.6665" y2="36.5002" gradientUnits="userSpaceOnUse">
<stop stop-color="#5BCAFB"/>
<stop offset="1" stop-color="#320DE0"/>
</linearGradient>
<linearGradient id="paint2_linear_203_20294" x1="15.7002" y1="13.4667" x2="20.0282" y2="16.236" gradientUnits="userSpaceOnUse">
<stop stop-color="#5BCAFB"/>
<stop offset="1" stop-color="#320DE0"/>
</linearGradient>
</defs>
</svg>
