<svg width="16" height="10" viewBox="0 0 16 10" fill="none" xmlns="http://www.w3.org/2000/svg">
<path d="M11.25 5.625L10 4.375L8.125 5.625L9.0625 0H12.1875L11.25 5.625Z" fill="white"/>
<path d="M6.5625 3.125H2.8125C2.72962 3.125 2.65013 3.09208 2.59153 3.03347C2.53292 2.97487 2.5 2.89538 2.5 2.8125C2.5 2.72962 2.53292 2.65013 2.59153 2.59153C2.65013 2.53292 2.72962 2.5 2.8125 2.5H6.5625C6.64538 2.5 6.72487 2.53292 6.78347 2.59153C6.84208 2.65013 6.875 2.72962 6.875 2.8125C6.875 2.89538 6.84208 2.97487 6.78347 3.03347C6.72487 3.09208 6.64538 3.125 6.5625 3.125Z" fill="white"/>
<path d="M6.25 5H0.3125C0.22962 5 0.150134 4.96708 0.0915292 4.90847C0.0329241 4.84987 0 4.77038 0 4.6875C0 4.60462 0.0329241 4.52513 0.0915292 4.46653C0.150134 4.40792 0.22962 4.375 0.3125 4.375H6.25C6.33288 4.375 6.41237 4.40792 6.47097 4.46653C6.52958 4.52513 6.5625 4.60462 6.5625 4.6875C6.5625 4.77038 6.52958 4.84987 6.47097 4.90847C6.41237 4.96708 6.33288 5 6.25 5Z" fill="white"/>
<path d="M14.8948 0H12.8214L11.667 6.92562L9.92047 5.17906L7.27172 6.94531L8.42891 0H6.16016C6.01113 -1.07469e-06 5.86701 0.0532473 5.75379 0.150142C5.64056 0.247037 5.56569 0.381201 5.54266 0.528437L5.33204 1.875H6.56266C6.8113 1.875 7.04976 1.97377 7.22557 2.14959C7.40139 2.3254 7.50016 2.56386 7.50016 2.8125C7.50016 3.06114 7.40139 3.2996 7.22557 3.47541C7.04976 3.65123 6.8113 3.75 6.56266 3.75H6.25016C6.4988 3.75 6.73726 3.84877 6.91307 4.02459C7.08889 4.2004 7.18766 4.43886 7.18766 4.6875C7.18766 4.93614 7.08889 5.1746 6.91307 5.35041C6.73726 5.52623 6.4988 5.625 6.25016 5.625H5.62516C5.8738 5.625 6.11226 5.72377 6.28807 5.89959C6.46389 6.0754 6.56266 6.31386 6.56266 6.5625C6.56266 6.81114 6.46389 7.0496 6.28807 7.22541C6.11226 7.40123 5.8738 7.5 5.62516 7.5H4.45329L4.17547 9.27844C4.16153 9.3676 4.16706 9.45872 4.19168 9.54554C4.21631 9.63235 4.25944 9.71281 4.31811 9.78137C4.37679 9.84993 4.44962 9.90498 4.53159 9.94272C4.61356 9.98046 4.70273 10 4.79297 10H13.5277C13.6767 10 13.8208 9.94675 13.934 9.84986C14.0473 9.75296 14.1221 9.6188 14.1452 9.47156L15.5123 0.721563C15.5263 0.632404 15.5208 0.541283 15.4961 0.454465C15.4715 0.367647 15.4284 0.287191 15.3697 0.218628C15.311 0.150065 15.2382 0.0950215 15.1562 0.0572813C15.0743 0.019541 14.9851 -6.50772e-07 14.8948 0Z" fill="white"/>
<path d="M5.625 6.875H1.25C1.16712 6.875 1.08763 6.84208 1.02903 6.78347C0.970424 6.72487 0.9375 6.64538 0.9375 6.5625C0.9375 6.47962 0.970424 6.40013 1.02903 6.34153C1.08763 6.28292 1.16712 6.25 1.25 6.25H5.625C5.70788 6.25 5.78737 6.28292 5.84597 6.34153C5.90458 6.40013 5.9375 6.47962 5.9375 6.5625C5.9375 6.64538 5.90458 6.72487 5.84597 6.78347C5.78737 6.84208 5.70788 6.875 5.625 6.875Z" fill="white"/>
</svg>
