<svg width="40" height="40" viewBox="0 0 40 40" fill="none" xmlns="http://www.w3.org/2000/svg">
<path d="M27.3997 5.16669C24.383 5.16669 21.683 6.63335 19.9997 8.88335C18.3163 6.63335 15.6163 5.16669 12.5997 5.16669C7.48301 5.16669 3.33301 9.33335 3.33301 14.4834C3.33301 16.4667 3.64967 18.3 4.19967 20C6.83301 28.3334 14.9497 33.3167 18.9663 34.6834C19.533 34.8834 20.4663 34.8834 21.033 34.6834C25.0497 33.3167 33.1663 28.3334 35.7997 20C36.3497 18.3 36.6663 16.4667 36.6663 14.4834C36.6663 9.33335 32.5163 5.16669 27.3997 5.16669Z" fill="url(#paint0_linear_574_2464)"/>
<defs>
<linearGradient id="paint0_linear_574_2464" x1="3.33301" y1="5.16669" x2="32.7994" y2="38.275" gradientUnits="userSpaceOnUse">
<stop stop-color="#5BCAFB"/>
<stop offset="1" stop-color="#320DE0"/>
</linearGradient>
</defs>
</svg>
