<svg width="20" height="20" viewBox="0 0 20 20" fill="none" xmlns="http://www.w3.org/2000/svg">
<g clip-path="url(#clip0_376_19310)">
<path fill-rule="evenodd" clip-rule="evenodd" d="M12.7448 15.4776L13.2523 16.8549H7.53295L8.0404 15.4776H12.7448ZM16.2921 1.82026L15.2396 1.21266C14.051 1.8989 12.8597 2.58173 11.6731 3.27125L12.7259 3.87918L16.2921 1.82026ZM13.5049 4.8557L12.9584 4.54017L12.9734 5.71517L13.5199 6.03072L13.5049 4.8557ZM13.1813 4.14205L16.747 2.08341L17.2972 2.40107L13.7315 4.45967L13.1813 4.14205ZM14.1868 4.72257L17.753 2.66368L18.8054 3.27125C17.6167 3.9575 16.4283 4.64423 15.2396 5.33044L14.1868 4.72257ZM11.446 3.66692L12.4994 4.27498L12.5194 5.83865C12.5161 5.92057 12.5572 6.0015 12.633 6.04539L13.6387 6.62571C13.7892 6.71323 13.9827 6.60416 13.9806 6.42591L13.9638 5.12029L15.0105 5.72448V9.84226L11.446 7.78425V3.66692ZM17.3636 8.11309C17.2546 8.1757 17.1154 8.13811 17.0528 8.02913C16.9902 7.92016 17.0277 7.78092 17.1367 7.71831L18.1422 7.1378C18.2512 7.07518 18.3904 7.11277 18.453 7.22175C18.5157 7.33074 18.4781 7.46996 18.3691 7.53257L17.3636 8.11309ZM15.4679 9.84281V5.72444L19.0325 3.66648V7.78426C17.8442 8.47032 16.6561 9.15679 15.4679 9.84281ZM4.08062 2.54566L5.04983 2.80535C4.27193 4.54827 2.9111 5.74024 0.967285 6.38125C3.71619 6.35253 5.52977 5.28186 6.40805 3.16929L7.37724 3.42898L6.32657 0.756836L4.08062 2.54566ZM4.03061 10.009H4.99058V7.06507H4.03061V10.009ZM2.61329 10.009H3.57327V8.21793H2.61329V10.009ZM1.19596 10.009H2.15594V9.34216H1.19596V10.009ZM6.86525 10.009V4.88924H7.82519V10.009L6.86525 10.009ZM5.44793 10.009V5.99592H6.40791V10.009H5.44793ZM4.64766 5.93483H4.99062V6.60775H3.57331V7.76063H2.97116L2.97691 6.60402C3.57925 6.45722 4.14021 6.23779 4.64766 5.93483ZM8.28248 5.93483H10.9887V6.77327H8.28248V5.93483ZM3.80959 10.4663H2.97116V14.258C2.97116 14.6773 3.31412 15.0203 3.73338 15.0203H16.495C16.9143 15.0203 17.2573 14.6773 17.2573 14.258V9.33774L16.4188 9.82183V13.9532C16.4188 14.0794 16.3164 14.1818 16.1902 14.1818H4.03827C3.91199 14.1818 3.8096 14.0794 3.8096 13.9532L3.80959 10.4663ZM6.73742 17.3122H14.0982C14.5174 17.3122 14.8604 17.6551 14.8604 18.0744V18.4811C14.8604 18.9004 14.5174 19.2433 14.0982 19.2433H6.73742C6.31811 19.2433 5.97514 18.9004 5.97514 18.4811V18.0744C5.97514 17.6551 6.31811 17.3122 6.73742 17.3122ZM10.9887 7.23061H8.28248V10.4663H4.26694V13.7245H15.9615V10.0859L15.2396 10.5026L10.9887 8.04826L10.9887 7.23061Z" fill="white"/>
</g>
<defs>
<clipPath id="clip0_376_19310">
<rect width="20" height="20" fill="white"/>
</clipPath>
</defs>
</svg>
