<svg width="40" height="40" viewBox="0 0 40 40" fill="none" xmlns="http://www.w3.org/2000/svg">
<path d="M29.2663 3.33331H10.683C6.63301 3.33331 3.33301 6.63331 3.33301 10.6833V21.5166V21.85C3.33301 25.9166 6.63301 29.2 10.683 29.2H17.083C17.9997 29.2 18.7497 29.95 18.7497 30.8666V32.4833C18.7497 33.4 17.9997 34.15 17.083 34.15H13.0497C12.3663 34.15 11.7997 34.7166 11.7997 35.4C11.7997 36.0833 12.3497 36.6666 13.0497 36.6666H26.9663C27.6497 36.6666 28.2163 36.1 28.2163 35.4166C28.2163 34.7333 27.6497 34.1666 26.9663 34.1666H22.933C22.0163 34.1666 21.2663 33.4166 21.2663 32.5V30.8833C21.2663 29.9666 22.0163 29.2166 22.933 29.2166H29.283C33.3497 29.2166 36.633 25.9166 36.633 21.8666V21.5333V10.7C36.6163 6.63331 33.3163 3.33331 29.2663 3.33331Z" fill="url(#paint0_linear_204_20320)"/>
<defs>
<linearGradient id="paint0_linear_204_20320" x1="3.33301" y1="3.33331" x2="36.6663" y2="36.6333" gradientUnits="userSpaceOnUse">
<stop stop-color="#5BCAFB"/>
<stop offset="1" stop-color="#320DE0"/>
</linearGradient>
</defs>
</svg>
