<svg width="20" height="20" viewBox="0 0 20 20" fill="none" xmlns="http://www.w3.org/2000/svg">
<path d="M10.5859 10.3379V14.4395L14.138 12.3887V8.28711L10.5859 10.3379Z" fill="white"/>
<path d="M10.0003 9.32324L13.5523 7.27242L10.0003 5.22168L6.44824 7.27246L10.0003 9.32324Z" fill="white"/>
<path d="M9.41437 10.3379L5.8623 8.28711V12.3887L9.41437 14.4395V10.3379Z" fill="white"/>
<path d="M18.193 12.3963C18.6484 10.8395 18.6479 9.16926 18.1916 7.60496C18.9484 6.97918 19.1672 5.8782 18.6602 5C18.1535 4.12238 17.0917 3.76137 16.1717 4.10273C15.0513 2.93 13.6045 2.09527 12.0216 1.70832C11.858 0.740039 11.014 0 9.99991 0C8.98647 0 8.14292 0.739062 7.97862 1.70641C6.40284 2.09039 4.95667 2.9259 3.83011 4.10313C3.43362 3.9548 3.00202 3.9327 2.58491 4.04445C2.05577 4.18625 1.61355 4.52559 1.33968 5C0.83296 5.87766 1.05124 6.97773 1.80683 7.60371C1.35148 9.16043 1.35198 10.8307 1.80831 12.395C1.05151 13.0208 0.832608 14.1218 1.33964 15C1.61355 15.4744 2.05577 15.8138 2.58487 15.9555C2.76155 16.0029 2.94085 16.0263 3.11898 16.0263C3.36065 16.0263 3.59995 15.9821 3.82788 15.8971C4.94839 17.07 6.39526 17.9047 7.97823 18.2917C8.14183 19.26 8.98581 20 9.99991 20C11.0133 20 11.8569 19.2609 12.0212 18.2936C13.5969 17.9096 15.043 17.0742 16.1695 15.897C16.4012 15.9833 16.6419 16.025 16.8807 16.025C17.5899 16.0249 18.2807 15.6571 18.6601 15C19.1669 14.1224 18.9486 13.0223 18.193 12.3963ZM11.8757 17.1216C11.5569 16.402 10.8363 15.8984 9.99991 15.8984C9.16417 15.8984 8.44405 16.4012 8.12491 17.12C6.85448 16.7846 5.69179 16.1141 4.77101 15.1861C4.91882 14.9839 5.02983 14.7545 5.09659 14.5054C5.23835 13.9763 5.16562 13.4236 4.89171 12.9492C4.47382 12.2255 3.67839 11.8533 2.89636 11.9362C2.55151 10.668 2.55085 9.32559 2.8944 8.06394C2.96698 8.07172 3.03972 8.07578 3.11222 8.07578C3.82148 8.07578 4.5123 7.70793 4.89171 7.05078C5.16562 6.57637 5.23839 6.02375 5.09659 5.49461C5.02999 5.24613 4.91937 5.01719 4.7721 4.81547C5.69792 3.88309 6.85999 3.21152 8.12413 2.87836C8.44292 3.59801 9.16351 4.10156 9.99991 4.10156C10.8357 4.10156 11.5557 3.59879 11.8749 2.88004C13.1457 3.21555 14.3087 3.88629 15.2296 4.81473C14.7658 5.45059 14.69 6.32641 15.1081 7.05078C15.4875 7.70797 16.1783 8.07574 16.8876 8.07574C16.9595 8.07574 17.0316 8.07172 17.1036 8.0641C17.4484 9.3323 17.449 10.6748 17.1053 11.9364C16.3227 11.8527 15.5263 12.2248 15.1081 12.9492C14.6903 13.673 14.7657 14.548 15.2285 15.1838C14.3026 16.1166 13.1402 16.7884 11.8757 17.1216Z" fill="white"/>
</svg>
