<svg width="40" height="40" viewBox="0 0 40 40" fill="none" xmlns="http://www.w3.org/2000/svg">
<path d="M19.9997 16.6666C23.6815 16.6666 26.6663 13.6819 26.6663 9.99998C26.6663 6.31808 23.6815 3.33331 19.9997 3.33331C16.3178 3.33331 13.333 6.31808 13.333 9.99998C13.333 13.6819 16.3178 16.6666 19.9997 16.6666ZM9.16634 21.6666C11.4675 21.6666 13.333 19.8011 13.333 17.5C13.333 15.1988 11.4675 13.3333 9.16634 13.3333C6.86516 13.3333 4.99967 15.1988 4.99967 17.5C4.99967 19.8011 6.86516 21.6666 9.16634 21.6666ZM34.9997 17.5C34.9997 19.8011 33.1342 21.6666 30.833 21.6666C28.5318 21.6666 26.6663 19.8011 26.6663 17.5C26.6663 15.1988 28.5318 13.3333 30.833 13.3333C33.1342 13.3333 34.9997 15.1988 34.9997 17.5ZM19.9997 18.3333C24.602 18.3333 28.333 22.0643 28.333 26.6666V36.6666H11.6663V26.6666C11.6663 22.0643 15.3973 18.3333 19.9997 18.3333ZM8.33301 26.6665C8.33301 25.5116 8.50079 24.396 8.81331 23.3426L8.53074 23.3673C5.60806 23.684 3.33301 26.1596 3.33301 29.1665V36.6665H8.33301V26.6665ZM36.6663 36.6665V29.1665C36.6663 26.063 34.2428 23.5255 31.186 23.3426C31.4985 24.396 31.6663 25.5116 31.6663 26.6665V36.6665H36.6663Z" fill="url(#paint0_linear_204_20390)"/>
<defs>
<linearGradient id="paint0_linear_204_20390" x1="3.33301" y1="3.33331" x2="36.6663" y2="36.6666" gradientUnits="userSpaceOnUse">
<stop stop-color="#5BCAFB"/>
<stop offset="1" stop-color="#320DE0"/>
</linearGradient>
</defs>
</svg>
