<svg width="20" height="20" viewBox="0 0 20 20" fill="none" xmlns="http://www.w3.org/2000/svg">
<g clip-path="url(#clip0_376_19316)">
<path d="M7.00199 9.26402C7.75533 8.72735 10.2323 6.77235 10.3307 4.15868C10.396 2.41568 9.21666 0.964016 7.52633 0.706682C7.34733 0.679682 7.16966 0.666016 6.99366 0.666016C6.19633 0.666016 5.44266 0.943349 4.82933 1.47035C4.09033 2.10502 3.66699 3.02702 3.66699 4.00002C3.66699 6.68868 6.21933 8.70935 7.00199 9.26435V9.26402ZM4.66699 3.99968C4.66699 2.71335 5.71399 1.66635 7.00033 1.66635C8.28666 1.66635 9.33366 2.71335 9.33366 3.99968C9.33366 5.28602 8.28666 6.33302 7.00033 6.33302C5.71399 6.33302 4.66699 5.28602 4.66699 3.99968Z" fill="white"/>
<path d="M6.99967 5.66634C7.92015 5.66634 8.66634 4.92015 8.66634 3.99967C8.66634 3.0792 7.92015 2.33301 6.99967 2.33301C6.0792 2.33301 5.33301 3.0792 5.33301 3.99967C5.33301 4.92015 6.0792 5.66634 6.99967 5.66634Z" fill="white"/>
<path d="M16.6857 9.30633C16.5347 8.91866 16.167 8.66699 15.75 8.66699H14V12.3337H17.8483L16.6857 9.30633Z" fill="white"/>
<path d="M18.3333 13.6667H19.3333C19.3333 13.299 19.0343 13 18.6667 13H18V13.3333C18 13.5173 18.1493 13.6667 18.3333 13.6667Z" fill="white"/>
<path d="M0.666992 7H1.33366V7.66667H0.666992V7Z" fill="white"/>
<path d="M12.667 5.66699H10.7143C9.98533 7.81133 8.05766 9.33066 7.38433 9.80833C7.26966 9.88966 7.13533 9.93066 7.00066 9.93066C6.86599 9.93066 6.73133 9.88999 6.61666 9.80866C5.93433 9.32433 4.01333 7.80699 3.28633 5.66699H1.33366C0.965992 5.66699 0.666992 5.96599 0.666992 6.33366H1.33366C1.70133 6.33366 2.00033 6.63266 2.00033 7.00033V7.66699C2.00033 8.03466 1.70133 8.33366 1.33366 8.33366H0.666992V14.3337H1.33366C1.70133 14.3337 2.00033 14.6327 2.00033 15.0003V16.0003C2.00033 16.368 1.70133 16.667 1.33366 16.667H0.666992V17.0003C0.666992 17.368 0.965992 17.667 1.33366 17.667H2.36366C2.52299 16.7227 3.34433 16.0003 4.33366 16.0003C5.32299 16.0003 6.14399 16.7227 6.30366 17.667H13.3337V6.33366C13.3337 5.96599 13.0347 5.66699 12.667 5.66699Z" fill="white"/>
<path d="M16.3333 19.3337C17.0697 19.3337 17.6667 18.7367 17.6667 18.0003C17.6667 17.2639 17.0697 16.667 16.3333 16.667C15.597 16.667 15 17.2639 15 18.0003C15 18.7367 15.597 19.3337 16.3333 19.3337Z" fill="white"/>
<path d="M17.3333 13.3333V13H14V17.6667H14.3633C14.5227 16.7223 15.344 16 16.3333 16C17.3227 16 18.1437 16.7223 18.3033 17.6667H18.6667C19.0343 17.6667 19.3333 17.3677 19.3333 17V14.3333H18.3333C17.782 14.3333 17.3333 13.8847 17.3333 13.3333Z" fill="white"/>
<path d="M0.666992 15H1.33366V16H0.666992V15Z" fill="white"/>
<path d="M4.33333 19.3337C5.06971 19.3337 5.66667 18.7367 5.66667 18.0003C5.66667 17.2639 5.06971 16.667 4.33333 16.667C3.59695 16.667 3 17.2639 3 18.0003C3 18.7367 3.59695 19.3337 4.33333 19.3337Z" fill="white"/>
</g>
<defs>
<clipPath id="clip0_376_19316">
<rect width="20" height="20" fill="white"/>
</clipPath>
</defs>
</svg>
