<svg width="20" height="20" viewBox="0 0 20 20" fill="none" xmlns="http://www.w3.org/2000/svg">
<path fill-rule="evenodd" clip-rule="evenodd" d="M17.0875 10.355C17.0022 10.1019 16.7621 9.91824 16.4811 9.91824H13.1178C12.8368 9.91824 12.5967 10.1018 12.5114 10.355H17.0875ZM10 3.115C11.2362 3.115 12.2383 5.05254 12.2383 6.28871C12.2383 7.52488 11.2362 8.52699 10 8.52699C8.76386 8.52699 7.76175 7.52488 7.76175 6.28871C7.76175 5.05254 8.76386 3.115 10 3.115ZM8.94304 5.29508H11.057C11.1864 5.29508 11.2914 5.19016 11.2914 5.0607C11.2914 4.93125 11.1864 4.82633 11.057 4.82633H8.94304C8.81359 4.82633 8.70866 4.93125 8.70866 5.0607C8.70866 5.19016 8.81359 5.29508 8.94304 5.29508ZM7.41042 5.4182H0.59804C0.348822 5.4182 0.313978 5.7818 0.558626 5.82914L7.43644 7.16035C7.24191 6.58816 7.25812 6.02746 7.41042 5.4182ZM12.5636 7.16035L19.4414 5.82914C19.6861 5.7818 19.6512 5.4182 19.402 5.4182H12.5896C12.7419 6.02746 12.7581 6.58816 12.5635 7.16035H12.5636ZM10.5226 2.72859L10.4585 1.77707C10.45 1.65129 10.3553 1.54785 10.2293 1.54785H9.77081C9.64476 1.54785 9.55007 1.65129 9.5416 1.77707L9.47745 2.72859C9.82292 2.61879 10.1773 2.61879 10.5227 2.72859H10.5226ZM12.2578 4.49586L14.3357 4.09367C14.5804 4.04633 14.5455 3.68273 14.2963 3.68273H11.7674C11.9569 3.93098 12.1215 4.20813 12.2578 4.49586ZM8.23265 3.68277H5.70374C5.45452 3.68277 5.41968 4.04633 5.66433 4.09371L7.74222 4.4959C7.87859 4.20816 8.0432 3.93102 8.23265 3.68277ZM2.88941 9.91824H8.35937C8.47991 9.91824 8.57847 10.0168 8.57847 10.1373V10.725C8.57847 10.8455 8.47988 10.9441 8.35937 10.9441H2.88941C2.7689 10.9441 2.67031 10.8455 2.67031 10.725V10.1373C2.67031 10.0168 2.76894 9.91824 2.88941 9.91824ZM1.37601 16.483C1.27995 16.3965 1.27214 16.2485 1.35863 16.1525C1.44507 16.0564 1.59308 16.0486 1.68913 16.1351C2.40285 16.7768 3.48972 16.7768 4.20339 16.1351C4.29355 16.0539 4.42945 16.0558 4.51726 16.1357C5.22581 16.7761 6.31695 16.7769 7.03077 16.1351C7.12093 16.0539 7.25683 16.0558 7.34464 16.1357C8.0532 16.7761 9.14433 16.7769 9.85816 16.1351C9.95421 16.0486 10.1022 16.0564 10.1887 16.1525C10.2751 16.2485 10.2673 16.3965 10.1713 16.483C9.33253 17.2371 8.08038 17.286 7.1873 16.612C6.35136 17.2429 5.19581 17.2429 4.35988 16.612C3.46687 17.2859 2.21558 17.2373 1.37593 16.483H1.37601ZM1.37601 17.8508C1.27995 17.7644 1.27214 17.6164 1.35863 17.5203C1.44507 17.4243 1.59308 17.4164 1.68913 17.5029C2.40285 18.1447 3.48972 18.1447 4.20339 17.5029C4.29355 17.4218 4.42945 17.4237 4.51726 17.5036C5.22581 18.1439 6.31699 18.1448 7.03077 17.5029C7.12093 17.4218 7.25683 17.4237 7.34464 17.5036C8.0532 18.1439 9.14433 18.1448 9.85816 17.5029C9.95421 17.4165 10.1022 17.4243 10.1887 17.5203C10.2751 17.6164 10.2673 17.7644 10.1713 17.8508C9.33249 18.605 8.08035 18.6539 7.1873 17.9798C6.35136 18.6107 5.19581 18.6107 4.35988 17.9798C3.46687 18.6538 2.21558 18.6052 1.37593 17.8508H1.37601ZM2.53046 16.0855C3.00273 16.2304 3.51956 16.1194 3.89007 15.7864C4.15773 15.5459 4.56374 15.5469 4.83085 15.7873C5.36546 16.2684 6.18202 16.2677 6.71749 15.7864C6.98515 15.5459 7.39113 15.5469 7.65824 15.7873C7.93933 16.0403 8.30706 16.167 8.68406 16.1452C9.12335 15.3841 9.4105 14.6628 9.41312 13.8329C8.11265 13.8329 6.58695 13.4051 5.62437 12.4425C4.66179 13.4051 3.13613 13.8329 1.83562 13.8329C1.83816 14.6411 2.1105 15.3463 2.53046 16.0855ZM8.04921 13.2013C7.26183 13.0127 6.50081 12.6561 5.95585 12.1111L5.62441 11.7796L5.29296 12.1111C4.74796 12.6561 3.98699 13.0127 3.1996 13.2013V11.4129H8.04925L8.04921 13.2013ZM11.6017 17.3134H17.9972C18.2559 17.3134 18.4675 17.1018 18.4675 16.8431V11.294C18.4675 11.0354 18.2559 10.8237 17.9972 10.8237H11.6017C11.343 10.8237 11.1314 11.0353 11.1314 11.294V16.8431C11.1314 17.1018 11.343 17.3134 11.6017 17.3134ZM11.9073 11.5996H17.6916V14.6329H11.9073V11.5996ZM17.3129 16.5953H16.0732C16.1232 16.0489 16.5861 15.6171 17.145 15.6171H17.6916V16.2166C17.6916 16.4248 17.5212 16.5953 17.3129 16.5953V16.5953ZM12.286 16.5953C12.0777 16.5953 11.9073 16.4249 11.9073 16.2166V15.6171H12.4539C13.0128 15.6171 13.4757 16.0489 13.5257 16.5954H12.286L12.286 16.5953ZM12.26 18.2186H13.0242C13.274 18.2186 13.4809 18.0261 13.504 17.7822H11.7802C11.8033 18.0261 12.0102 18.2186 12.26 18.2186H12.26ZM16.3748 18.2186H17.139C17.3888 18.2186 17.5957 18.0261 17.6188 17.7822H15.895C15.9181 18.0261 16.125 18.2186 16.3748 18.2186H16.3748Z" fill="white"/>
</svg>
