<svg width="20" height="20" viewBox="0 0 20 20" fill="none" xmlns="http://www.w3.org/2000/svg">
<path fill-rule="evenodd" clip-rule="evenodd" d="M19.375 18.9329H17.9375V6.2027H2.06258V18.9329H0.625V4.78324L10 1.06641L19.375 4.7832V18.9329ZM7.35422 9.52168H5.85414V11.3618H4.34398V9.52168H2.84395V13.7313C2.84395 13.8969 2.97902 14.032 3.14465 14.032H7.05359C7.21922 14.032 7.35426 13.8969 7.35426 13.7313L7.35422 9.52168ZM17.1561 9.52168H15.656V11.3618H14.1459V9.52168H12.6458V13.7313C12.6458 13.8969 12.7809 14.032 12.9464 14.032H16.8554C17.021 14.032 17.1561 13.8969 17.1561 13.7313V9.52168H17.1561ZM7.35422 14.4226H5.85414V16.2627H4.34398V14.4226H2.84395V18.6322C2.84395 18.7978 2.97902 18.9329 3.14465 18.9329H7.05359C7.21922 18.9329 7.35426 18.7978 7.35426 18.6322L7.35422 14.4226ZM7.74488 14.4226V18.6322C7.74488 18.7978 7.87996 18.9329 8.04555 18.9329H11.9545C12.1201 18.9329 12.2552 18.7978 12.2552 18.6322V14.4226H10.7551V16.2627H9.24492V14.4226H7.74488ZM17.1561 14.4226H15.656V16.2627H14.1459V14.4226H12.6458V18.6322C12.6458 18.7978 12.7809 18.9329 12.9464 18.9329H16.8554C17.021 18.9329 17.1561 18.7978 17.1561 18.6322V14.4226H17.1561ZM7.98031 3.8682C7.85141 3.8682 7.74594 3.97363 7.74594 4.10258V4.79961C7.74594 4.92852 7.85141 5.03398 7.98031 5.03398H12.0197C12.1486 5.03398 12.2541 4.92855 12.2541 4.79961V4.10258C12.2541 3.97367 12.1486 3.8682 12.0197 3.8682H7.98031Z" fill="white"/>
</svg>
