<svg width="40" height="40" viewBox="0 0 40 40" fill="none" xmlns="http://www.w3.org/2000/svg">
<path d="M22.4219 1.01563C22.6335 1.19908 22.6542 1.31269 22.6904 1.5918C22.6225 2.15477 22.232 2.46439 21.8164 2.80274C21.3976 3.15225 21.0033 3.51277 20.625 3.90625C20.4372 4.09558 20.2485 4.28339 20.0555 4.46747C19.5501 4.9552 19.1174 5.4783 18.6948 6.03813C18.5984 6.16571 18.5009 6.29242 18.4033 6.41907C18.3469 6.4938 18.2905 6.56852 18.2324 6.64551C18.1831 6.71087 18.1337 6.77623 18.0829 6.84357C17.9578 7.04932 17.9004 7.18097 17.8906 7.42188C18.0566 7.75424 18.292 7.99897 18.5553 8.25531C18.5964 8.29601 18.6375 8.3367 18.6798 8.37863C18.8103 8.50768 18.9412 8.6362 19.0723 8.76465C19.2038 8.89401 19.3352 9.02348 19.4664 9.15318C19.5478 9.23366 19.6294 9.31392 19.7113 9.39395C19.9799 9.65883 20.0904 9.79928 20.1025 10.1758C20.1055 10.2342 20.1084 10.2926 20.1114 10.3528C20.0186 10.8941 19.5128 11.2831 19.137 11.6458C19.0133 11.7671 18.8897 11.8884 18.7662 12.0097C18.572 12.1996 18.3774 12.3891 18.1823 12.578C17.9935 12.7612 17.8059 12.9456 17.6184 13.1302C17.5596 13.1865 17.5007 13.2428 17.4401 13.3009C17.3864 13.3541 17.3327 13.4073 17.2773 13.4621C17.2297 13.5084 17.182 13.5547 17.133 13.6024C17.0028 13.7912 17.0118 13.9161 17.0312 14.1406C17.077 14.1612 17.1227 14.1818 17.1699 14.203C17.3514 14.301 17.477 14.4068 17.6257 14.5493C17.6783 14.5992 17.7309 14.6491 17.785 14.7005C17.8663 14.7786 17.8663 14.7786 17.9492 14.8584C18.3172 15.21 18.6883 15.5551 19.073 15.8885C19.2814 16.0703 19.4843 16.2576 19.6875 16.4453C19.9453 16.6828 20.2039 16.9189 20.4688 17.1484C20.7336 17.378 20.9922 17.6142 21.25 17.8516C21.5573 18.1344 21.8674 18.4133 22.1829 18.6868C22.4574 18.928 22.726 19.1755 22.9959 19.4217C23.166 19.5757 23.3374 19.7276 23.5107 19.8779C23.8193 20.1459 24.1195 20.4227 24.4201 20.6994C24.6371 20.8989 24.8554 21.0961 25.0781 21.2891C25.3852 21.5552 25.6837 21.8305 25.9827 22.1057C26.1996 22.3051 26.418 22.5023 26.6406 22.6953C26.9055 22.9249 27.164 23.161 27.4219 23.3984C27.7291 23.6813 28.0392 23.9601 28.3548 24.2337C28.6293 24.4748 28.8979 24.7224 29.1678 24.9686C29.3379 25.1226 29.5092 25.2745 29.6826 25.4248C29.9911 25.6928 30.2914 25.9695 30.592 26.2463C30.809 26.4457 31.0273 26.643 31.25 26.8359C31.5571 27.1021 31.8556 27.3773 32.1545 27.6526C32.3715 27.852 32.5898 28.0492 32.8125 28.2422C33.1196 28.5083 33.4181 28.7836 33.717 29.0588C33.934 29.2583 34.1523 29.4555 34.375 29.6484C34.6399 29.878 34.8984 30.1142 35.1562 30.3516C35.4655 30.6363 35.7775 30.9171 36.095 31.1926C36.3425 31.4089 36.5861 31.6294 36.8298 31.85C36.9633 31.9701 37.0976 32.0893 37.2327 32.2076C37.9923 32.8764 38.6369 33.4654 38.7793 34.5123C38.8143 35.28 38.5921 35.8747 38.0811 36.4453C37.9637 36.5674 37.8447 36.6874 37.7246 36.8067C37.5533 36.978 37.385 37.152 37.2165 37.3261C37.0865 37.459 36.9564 37.5919 36.8262 37.7246C36.7339 37.8194 36.7339 37.8194 36.6398 37.9161C35.9608 38.5987 35.3915 38.9813 34.4336 39.0918C33.3918 38.9876 32.6847 38.5451 32.0264 37.7573C31.8419 37.539 31.6489 37.3291 31.4551 37.1191C31.1322 36.7683 30.8122 36.4151 30.4938 36.0602C30.2882 35.8325 30.0807 35.6066 29.873 35.3809C29.6405 35.128 29.4094 34.8741 29.1846 34.6143C28.9048 34.2916 28.6144 33.9792 28.3242 33.666C27.9675 33.2808 27.6158 32.8912 27.2656 32.5C26.8902 32.0813 26.5132 31.6642 26.1328 31.25C25.6951 30.7734 25.2623 30.2925 24.8303 29.8108C24.5112 29.4554 24.1903 29.1018 23.8672 28.75C23.4295 28.2734 22.9967 27.7925 22.5647 27.3108C22.2456 26.9554 21.9247 26.6018 21.6016 26.25C21.1638 25.7734 20.7311 25.2925 20.2991 24.8108C19.9799 24.4554 19.659 24.1018 19.3359 23.75C18.8982 23.2734 18.4655 22.7925 18.0334 22.3108C17.7143 21.9554 17.3934 21.6018 17.0703 21.25C16.6326 20.7734 16.1998 20.2925 15.7678 19.8108C15.4128 19.4155 15.0555 19.0224 14.6956 18.6315C14.3991 18.309 14.1078 17.982 13.8184 17.6532C13.6688 17.4857 13.6688 17.4857 13.4375 17.3438C13.1323 17.5973 12.8398 17.8595 12.5641 18.1448C12.5205 18.1897 12.4769 18.2346 12.432 18.2809C12.3455 18.3706 12.2596 18.461 12.1745 18.5522C11.8253 18.9133 11.5022 19.1219 10.9863 19.1602C10.5539 19.011 10.2995 18.6956 10 18.3594C9.60735 18.4997 9.60735 18.4997 9.375 18.8281C9.3636 19.1895 9.4365 19.5119 9.5752 19.8438C9.70882 20.1758 9.76455 20.5063 9.6875 20.8594C9.4743 21.2114 9.22365 21.5035 8.93372 21.7929C8.89192 21.835 8.85012 21.8772 8.80706 21.9206C8.71914 22.009 8.63102 22.0971 8.54271 22.1851C8.40844 22.3191 8.27525 22.4541 8.14209 22.5893C8.05609 22.6754 7.97004 22.7616 7.88391 22.8476C7.84459 22.8876 7.80527 22.9277 7.76475 22.9689C7.43177 23.2977 7.13448 23.4972 6.66504 23.5449C6.23145 23.472 5.96126 23.1064 5.67596 22.7994C5.51025 22.6224 5.34639 22.4648 5.16113 22.3096C4.88463 22.0739 4.63008 21.8207 4.375 21.5625C4.12152 21.3059 3.86881 21.0541 3.59375 20.8203C3.2746 20.549 2.98412 20.2521 2.69024 19.9542C2.4681 19.7301 2.24274 19.5159 2.00195 19.3115C1.28087 18.6885 1.28087 18.6885 1.20117 18.2422C1.29874 17.6958 1.62268 17.3264 2.00653 16.9495C2.04851 16.9074 2.0905 16.8654 2.13375 16.8221C2.22192 16.7341 2.31036 16.6465 2.39908 16.559C2.53423 16.4257 2.66831 16.2914 2.80228 16.1569C2.88853 16.0711 2.97484 15.9854 3.06122 15.8997C3.10094 15.8599 3.14067 15.8201 3.1816 15.7791C3.49158 15.4751 3.74433 15.2575 4.17969 15.1953C4.58438 15.2069 4.93635 15.3843 5.3009 15.5472C5.65739 15.66 5.9035 15.5843 6.25 15.4688C6.3446 15.2261 6.3446 15.2261 6.32812 14.9219C6.19676 14.7644 6.19676 14.7644 6.02539 14.6191C5.72859 14.3499 5.62852 14.1749 5.5896 13.779C5.71199 13.1385 6.25334 12.6983 6.69456 12.2607C6.77215 12.1829 6.84969 12.1051 6.92719 12.0272C7.13683 11.8169 7.3472 11.6072 7.55773 11.3977C7.77865 11.1777 7.99896 10.9571 8.21936 10.7365C8.58962 10.3662 8.96035 9.99633 9.33136 9.62675C9.75921 9.20055 10.1864 8.77367 10.6132 8.3464C11.0249 7.93419 11.4371 7.52243 11.8495 7.11088C12.0245 6.93631 12.1993 6.76159 12.3739 6.58675C12.5801 6.38048 12.7866 6.17461 12.9934 5.96903C13.1046 5.8583 13.2154 5.7472 13.3263 5.63608C13.7076 5.25789 14.0936 4.92007 14.5312 4.60938C14.6876 4.48576 14.8438 4.36207 15 4.23828C15.5711 3.79514 16.1734 3.41176 16.7969 3.04688C16.8717 3.00296 16.8717 3.00296 16.948 2.95815C18.2796 2.18819 19.738 1.63099 21.1963 1.15235C21.2661 1.12892 21.336 1.10549 21.408 1.08136C21.7725 0.966831 22.0441 0.899303 22.4219 1.01563Z" fill="url(#paint0_linear_346_643)"/>
<defs>
<linearGradient id="paint0_linear_346_643" x1="1.20117" y1="0.955078" x2="39.3338" y2="38.5327" gradientUnits="userSpaceOnUse">
<stop stop-color="#5BCAFB"/>
<stop offset="1" stop-color="#320DE0"/>
</linearGradient>
</defs>
</svg>
