<svg width="30" height="30" viewBox="0 0 30 30" fill="none" xmlns="http://www.w3.org/2000/svg">
<path d="M18.6035 10.4297H11.3965C9.95877 10.4297 8.78906 11.5993 8.78906 13.0371C8.78906 14.4749 9.95871 15.6445 11.3965 15.6445H18.6035C20.0412 15.6445 21.2109 14.4749 21.2109 13.0371C21.2109 11.5993 20.0412 10.4297 18.6035 10.4297ZM12.4709 13.3593C12.4709 13.8447 12.0773 14.2382 11.592 14.2382C11.1066 14.2382 10.713 13.8447 10.713 13.3593V12.7148C10.713 12.2294 11.1066 11.8359 11.592 11.8359C12.0773 11.8359 12.4709 12.2294 12.4709 12.7148V13.3593ZM19.2869 13.3593C19.2869 13.8447 18.8934 14.2382 18.408 14.2382C17.9226 14.2382 17.5291 13.8447 17.5291 13.3593V12.7148C17.5291 12.2294 17.9226 11.8359 18.408 11.8359C18.8934 11.8359 19.2869 12.2294 19.2869 12.7148V13.3593Z" fill="white"/>
<path d="M25.6055 15.117V13.4181C25.6055 7.54266 20.8448 2.92969 15 2.92969C9.14889 2.92969 4.39453 7.54336 4.39453 13.4181V15.117C4.39453 17.828 6.60592 20.0391 9.31658 20.0391H20.6834C23.3941 20.0391 25.6055 17.8277 25.6055 15.117ZM11.3965 17.4023C8.98951 17.4023 7.03125 15.4441 7.03125 13.0371C7.03125 10.63 8.98945 8.67182 11.3965 8.67182H18.6035C21.0105 8.67182 22.9688 10.63 22.9688 13.0371C22.9688 15.4441 21.0105 17.4023 18.6035 17.4023H11.3965Z" fill="white"/>
<path d="M19.5703 23.5547H17.6367C16.6699 23.5547 15.8789 24.3457 15.8789 25.3125C15.8789 26.2793 16.6699 27.0703 17.6367 27.0703H19.5703C20.5371 27.0703 21.3281 26.2793 21.3281 25.3125C21.3281 24.3457 20.5371 23.5547 19.5703 23.5547Z" fill="white"/>
<path d="M28.2422 20.8884C28.2422 22.8418 26.5514 24.4921 24.5499 24.4921H22.9883C23.0515 24.7555 23.0859 25.03 23.0859 25.3125C23.0859 25.6371 23.0407 25.9512 22.958 26.25H24.5499C27.5042 26.25 30 23.7947 30 20.8884V19.1707C29.4888 19.5553 28.8913 19.8312 28.2422 19.9635V20.8884Z" fill="white"/>
<path d="M27.3634 9.44655H27.2874V4.36389C27.2874 3.8785 26.8938 3.48499 26.4084 3.48499C25.9231 3.48499 25.5295 3.8785 25.5295 4.36389V6.96241C26.724 8.87561 27.3634 11.0932 27.3634 13.4181V15.117C27.3634 16.2663 27.0716 17.3488 26.5582 18.2942H27.3634C28.8173 18.2942 30.0001 17.1114 30.0001 15.6575V12.0833C30.0001 10.6294 28.8173 9.44655 27.3634 9.44655Z" fill="white"/>
<path d="M2.63672 13.4181C2.63672 11.0922 3.27615 8.87385 4.47053 6.96041V4.36389C4.47053 3.8785 4.07701 3.48499 3.59162 3.48499C3.10623 3.48499 2.71271 3.8785 2.71271 4.36389V9.44655H2.63672C1.18283 9.44655 0 10.6294 0 12.0833V15.6575C0 17.1114 1.18283 18.2942 2.63672 18.2942H3.44191C2.92852 17.3488 2.63672 16.2664 2.63672 15.117V13.4181Z" fill="white"/>
</svg>
