<svg width="40" height="40" viewBox="0 0 40 40" fill="none" xmlns="http://www.w3.org/2000/svg">
<g clip-path="url(#clip0_346_197)">
<path d="M17.5781 12.1875C17.9452 12.4855 18.2735 12.8278 18.6064 13.1628C18.7064 13.262 18.8065 13.3611 18.9066 13.4602C19.1766 13.7277 19.4454 13.9965 19.7138 14.2656C19.9388 14.4909 20.1644 14.7157 20.3901 14.9405C20.9227 15.4712 21.4544 16.0029 21.9854 16.5353C22.5314 17.0827 23.0791 17.6283 23.6277 18.1731C24.1003 18.6426 24.5718 19.1132 25.0425 19.5846C25.3229 19.8654 25.6037 20.1458 25.8855 20.4252C26.1507 20.6881 26.4145 20.9524 26.6773 21.2177C26.7734 21.3143 26.8699 21.4103 26.9669 21.5059C27.7736 22.3012 28.3918 23.1014 28.4527 24.2795C28.4472 24.6513 28.3631 24.9958 28.2716 25.3547C28.2541 25.4257 28.2365 25.4968 28.2185 25.57C28.1621 25.7969 28.1046 26.0234 28.0468 26.25C28.0283 26.3226 28.0099 26.3953 27.9909 26.4702C27.8546 27.0056 27.7153 27.5402 27.5753 28.0746C27.5311 28.2438 27.4868 28.413 27.4426 28.5822C27.3508 28.9333 27.2588 29.2843 27.1667 29.6353C27.0491 30.0834 26.9322 30.5316 26.8155 30.9799C26.7248 31.3279 26.6336 31.6758 26.5422 32.0236C26.4989 32.1889 26.4558 32.3542 26.4128 32.5195C26.3528 32.7504 26.2921 32.981 26.2313 33.2117C26.214 33.2786 26.1968 33.3456 26.179 33.4145C25.9008 34.4611 25.498 35.2922 24.5327 35.8642C24.1246 36.0536 23.7406 36.1218 23.2943 36.1407C23.2363 36.1436 23.1783 36.1466 23.1185 36.1496C22.6167 36.1735 22.1146 36.1851 21.6123 36.1945C15.9076 36.302 10.299 37.3164 4.88763 39.1162C4.83538 39.1335 4.78313 39.1509 4.7293 39.1688C4.26217 39.3245 3.79628 39.4818 3.33695 39.6595C3.25355 39.6917 3.25355 39.6917 3.16845 39.7244C3.06258 39.7656 2.95694 39.8073 2.85158 39.8497C2.29236 40.0674 1.76069 40.1121 1.18615 39.9304C0.75287 39.7367 0.401353 39.4741 0.15618 39.0625C-0.202193 38.1125 0.0509112 37.2998 0.393726 36.396C0.490283 36.1409 0.582754 35.8844 0.67546 35.6278C0.722473 35.4977 0.769645 35.3677 0.816976 35.2377C2.82341 29.7216 3.73835 23.778 3.79853 17.9227C3.8139 16.6522 3.86373 15.5471 4.80828 14.6005C5.29743 14.2243 5.81541 14.0024 6.41043 13.8547C6.47738 13.8372 6.54432 13.8197 6.61329 13.8017C6.83283 13.7447 7.05269 13.689 7.27257 13.6334C7.42787 13.5933 7.58315 13.5531 7.7384 13.5129C8.14698 13.4072 8.55584 13.3026 8.96479 13.1983C9.37383 13.0938 9.78263 12.9884 10.1914 12.883C10.6646 12.7609 11.1379 12.639 11.6113 12.5176C12.5247 12.2832 13.4367 12.0449 14.3456 11.7936C15.5546 11.4618 16.512 11.4802 17.5781 12.1875ZM11.7968 21.4843C11.7536 21.5248 11.7104 21.5653 11.6659 21.607C11.37 21.9117 11.1871 22.2761 10.996 22.6513C10.9693 22.7035 10.9426 22.7558 10.9151 22.8096C10.4084 23.8446 10.3643 25.1236 10.7079 26.2207C11.1256 27.4302 11.9807 28.4104 13.1249 28.9843C13.1854 29.0146 13.2458 29.045 13.308 29.0762C14.3237 29.5545 15.5687 29.6378 16.6503 29.3261C17.4807 29.0186 18.1235 28.5929 18.7499 27.9687C18.794 27.9264 18.8382 27.8841 18.8836 27.8405C19.7076 26.9773 20.0411 25.7337 20.0329 24.5704C19.9848 23.1571 19.3621 22.0526 18.3593 21.0937C17.3027 20.1948 16.0653 19.921 14.7148 19.9847C13.5505 20.0814 12.606 20.6794 11.7968 21.4843Z" fill="url(#paint0_linear_346_197)"/>
<path d="M27.1875 0.312569C27.8522 0.846696 28.4422 1.47984 29.0425 2.08358C29.2193 2.26141 29.3964 2.43899 29.5735 2.6165C29.9487 2.99251 30.3235 3.36883 30.6982 3.74519C31.1347 4.18347 31.5712 4.62162 32.0081 5.05945C32.1826 5.2344 32.3568 5.40958 32.531 5.58477C32.6374 5.69149 32.7439 5.7982 32.8503 5.9049C32.9228 5.97801 32.9228 5.97801 32.9968 6.05259C33.0636 6.11943 33.0636 6.11943 33.1318 6.18761C33.1703 6.22631 33.2088 6.265 33.2485 6.30487C33.3732 6.42412 33.3732 6.42412 33.5938 6.56257C33.5938 6.61413 33.5938 6.66569 33.5938 6.71882C33.6711 6.7446 33.7484 6.77038 33.8281 6.79694C33.8281 6.84851 33.8281 6.90007 33.8281 6.95319C33.9313 7.00476 34.0344 7.05632 34.1406 7.10944C34.1406 7.16101 34.1406 7.21257 34.1406 7.26569C34.218 7.29148 34.2953 7.31726 34.375 7.34382C34.375 7.39538 34.375 7.44694 34.375 7.50007C34.4781 7.55163 34.5813 7.60319 34.6875 7.65632C34.6875 7.70788 34.6875 7.75944 34.6875 7.81257C34.7648 7.83835 34.8422 7.86413 34.9219 7.89069C34.9219 7.94226 34.9219 7.99382 34.9219 8.04694C34.9992 8.07273 35.0766 8.09851 35.1563 8.12507C35.1563 8.17663 35.1563 8.22819 35.1563 8.28132C35.2336 8.3071 35.3109 8.33288 35.3906 8.35944C35.3906 8.41101 35.3906 8.46257 35.3906 8.51569C35.468 8.54148 35.5453 8.56726 35.625 8.59382C35.625 8.64538 35.625 8.69694 35.625 8.75007C35.7023 8.77585 35.7797 8.80163 35.8594 8.82819C35.8594 8.87976 35.8594 8.93132 35.8594 8.98444C35.9046 9.00435 35.9499 9.02425 35.9965 9.04475C36.1908 9.15103 36.3213 9.26977 36.4784 9.42573C36.5376 9.4842 36.5968 9.54266 36.6578 9.6029C36.7211 9.66629 36.7844 9.72968 36.8497 9.79499C36.9156 9.86055 36.9815 9.9261 37.0493 9.99364C37.1888 10.1327 37.3281 10.2719 37.4672 10.4113C37.6784 10.6228 37.8906 10.8331 38.1029 11.0435C38.2386 11.179 38.3742 11.3146 38.5098 11.4503C38.5727 11.5124 38.6355 11.5745 38.7003 11.6385C39.3949 12.3388 40.0166 13.079 40.0407 14.1011C40.0227 16.0827 38.4211 17.222 37.1129 18.5352C36.9099 18.7391 36.7078 18.9439 36.5058 19.1489C36.3476 19.3093 36.1886 19.4689 36.0294 19.6283C35.9189 19.7394 35.8091 19.8513 35.6994 19.9631C34.9292 20.7308 34.1876 21.2654 33.0713 21.2842C31.5166 21.2783 30.5962 20.0613 29.5748 19.0443C29.4631 18.9333 29.3514 18.8224 29.2396 18.7114C28.8755 18.3498 28.5118 17.9877 28.1482 17.6255C28.0861 17.5637 28.024 17.5018 27.9601 17.4381C27.3737 16.8542 26.7875 16.2701 26.2017 15.6856C25.455 14.9406 24.7076 14.1965 23.9591 13.4535C23.4312 12.9292 22.9042 12.4041 22.3779 11.8783C22.0641 11.565 21.75 11.2521 21.4349 10.9401C21.1387 10.6467 20.8436 10.3522 20.5492 10.0569C20.4415 9.94915 20.3334 9.84182 20.2248 9.73492C19.4218 8.9437 18.7368 8.1826 18.7256 6.99226C18.7242 5.63487 19.4987 4.85286 20.4101 3.93885C20.4534 3.89559 20.4966 3.85232 20.5411 3.80775C20.6313 3.71705 20.7215 3.62635 20.8116 3.53563C20.9997 3.34659 21.1882 3.15787 21.3768 2.96933C21.6169 2.72927 21.8558 2.48816 22.0946 2.24675C22.2802 2.05941 22.4665 1.87279 22.653 1.68636C22.7413 1.59781 22.8295 1.50902 22.9173 1.41997C24.0302 0.293019 25.6367 -0.643002 27.1875 0.312569Z" fill="url(#paint1_linear_346_197)"/>
</g>
<defs>
<linearGradient id="paint0_linear_346_197" x1="-0.0178223" y1="11.5852" x2="28.4404" y2="40.0557" gradientUnits="userSpaceOnUse">
<stop stop-color="#5BCAFB"/>
<stop offset="1" stop-color="#320DE0"/>
</linearGradient>
<linearGradient id="paint1_linear_346_197" x1="18.7256" y1="-0.0830078" x2="40.0928" y2="21.232" gradientUnits="userSpaceOnUse">
<stop stop-color="#5BCAFB"/>
<stop offset="1" stop-color="#320DE0"/>
</linearGradient>
<clipPath id="clip0_346_197">
<rect width="40" height="40" fill="white"/>
</clipPath>
</defs>
</svg>
