<svg width="40" height="40" viewBox="0 0 40 40" fill="none" xmlns="http://www.w3.org/2000/svg">
<path d="M19.9755 2.47551C20.0481 2.47568 20.1207 2.47585 20.1954 2.47602C21.2414 2.47992 22.2563 2.50834 23.2812 2.7343C23.3574 2.75024 23.4337 2.76618 23.5122 2.7826C26.4482 3.40369 29.1308 4.67521 31.4062 6.64055C31.4773 6.70148 31.5484 6.76241 31.6216 6.82518C31.814 6.99439 32.0015 7.16739 32.1874 7.34368C32.2262 7.38027 32.2649 7.41687 32.3048 7.45457C32.9568 8.07506 33.5259 8.73126 34.0624 9.45305C34.0955 9.49662 34.1286 9.54019 34.1628 9.58508C34.7298 10.3319 35.1935 11.1213 35.6249 11.9531C35.6555 12.0116 35.686 12.0701 35.7174 12.1303C36.978 14.5768 37.5358 17.2375 37.5243 19.9755C37.5242 20.0481 37.524 20.1207 37.5238 20.1954C37.5199 21.2418 37.49 22.2557 37.2656 23.2812C37.2429 23.3924 37.2429 23.3924 37.2198 23.5059C36.6137 26.452 35.3253 29.1301 33.3593 31.4062C33.2984 31.4773 33.2374 31.5484 33.1747 31.6216C33.0055 31.814 32.8325 32.0015 32.6562 32.1874C32.6196 32.2262 32.583 32.2649 32.5453 32.3048C31.9248 32.9568 31.2686 33.5259 30.5468 34.0624C30.5032 34.0955 30.4597 34.1286 30.4148 34.1628C27.7708 36.1702 24.2485 37.4976 20.9118 37.5158C20.8444 37.5163 20.7769 37.5169 20.7075 37.5175C20.4912 37.5188 20.2748 37.5193 20.0585 37.5195C19.9478 37.5195 19.9478 37.5195 19.8348 37.5196C18.7783 37.5184 17.7544 37.4922 16.7187 37.2656C16.6534 37.2521 16.5881 37.2387 16.5208 37.2249C13.571 36.6133 10.8756 35.3303 8.59368 33.3593C8.52258 33.2984 8.45148 33.2374 8.37822 33.1747C8.18581 33.0055 7.99837 32.8325 7.81243 32.6562C7.7737 32.6196 7.73498 32.583 7.69509 32.5453C7.0431 31.9248 6.47398 31.2686 5.93743 30.5468C5.90432 30.5032 5.87121 30.4597 5.8371 30.4148C5.27007 29.668 4.80637 28.8786 4.37493 28.0468C4.32913 27.9591 4.32913 27.9591 4.28242 27.8695C3.01857 25.4166 2.46467 22.7495 2.47063 20.0048C2.47067 19.9309 2.47071 19.8571 2.47076 19.781C2.47387 18.6011 2.54607 17.4814 2.81243 16.3281C2.83629 16.2179 2.83629 16.2179 2.86064 16.1054C3.5594 12.92 5.17911 10.0772 7.4218 7.7343C7.45853 7.69544 7.49527 7.65658 7.53311 7.61654C8.12664 6.99107 8.76238 6.45247 9.45305 5.93743C9.49673 5.90421 9.54042 5.87099 9.58542 5.83676C10.3321 5.26987 11.1215 4.80629 11.9531 4.37493C12.0115 4.3444 12.07 4.31387 12.1303 4.28242C14.5768 3.02187 17.2375 2.46407 19.9755 2.47551ZM25.014 12.9052C24.8929 12.9574 24.8929 12.9574 24.7693 13.0107C24.5038 13.1256 24.2392 13.2424 23.9745 13.3593C23.7889 13.4401 23.6033 13.5207 23.4176 13.6013C23.1267 13.7275 22.8358 13.8538 22.5453 13.9809C21.8864 14.2689 21.2259 14.5527 20.5638 14.8333C20.4123 14.8976 20.2609 14.9619 20.1094 15.0262C20.0601 15.0472 20.0107 15.0681 19.9599 15.0897C19.8613 15.1316 19.7626 15.1735 19.664 15.2154C19.4234 15.3176 19.1827 15.4197 18.9419 15.5215C18.6728 15.6354 18.404 15.75 18.1353 15.8648C18.0562 15.8981 17.9771 15.9314 17.8956 15.9657C16.7263 16.4672 16.3542 16.9729 15.8648 18.1353C15.8286 18.2202 15.7923 18.305 15.755 18.3924C15.6362 18.6709 15.5182 18.9496 15.4003 19.2284C15.3179 19.4228 15.2354 19.6171 15.1528 19.8114C15.1106 19.9107 15.0684 20.0101 15.0262 20.1094C15.0051 20.1591 14.984 20.2087 14.9623 20.2599C14.8976 20.4123 14.833 20.5647 14.7684 20.7171C14.4882 21.3776 14.2036 22.036 13.9161 22.6934C13.7699 23.0282 13.6248 23.3634 13.4795 23.6985C13.3998 23.8815 13.3197 24.0643 13.239 24.2469C13.1264 24.502 13.0156 24.7579 12.9052 25.014C12.8718 25.0883 12.8385 25.1627 12.8041 25.2393C12.6038 25.7098 12.5047 26.1279 12.5781 26.6406C12.7601 27.0186 12.9813 27.2398 13.3593 27.4218C13.9657 27.5086 14.4394 27.3398 14.9859 27.0947C15.0666 27.0598 15.1474 27.025 15.2305 26.9891C15.4961 26.8743 15.7607 26.7574 16.0253 26.6406C16.2109 26.5598 16.3966 26.4791 16.5823 26.3986C16.8732 26.2724 17.164 26.146 17.4546 26.019C18.1134 25.7309 18.774 25.4471 19.436 25.1665C19.5875 25.1023 19.739 25.038 19.8904 24.9736C19.9645 24.9422 19.9645 24.9422 20.04 24.9101C20.1386 24.8682 20.2372 24.8263 20.3358 24.7844C20.5765 24.6822 20.8172 24.5802 21.058 24.4783C21.3271 24.3644 21.5958 24.2498 21.8646 24.1351C21.9436 24.1018 22.0227 24.0685 22.1042 24.0342C23.2736 23.5326 23.6457 23.0269 24.1351 21.8646C24.1713 21.7797 24.2075 21.6949 24.2449 21.6074C24.3636 21.329 24.4816 21.0502 24.5995 20.7714C24.682 20.5771 24.7645 20.3828 24.847 20.1885C24.8892 20.0891 24.9314 19.9898 24.9736 19.8904C24.9947 19.8408 25.0158 19.7911 25.0376 19.74C25.1023 19.5876 25.1669 19.4352 25.2315 19.2828C25.5117 18.6223 25.7963 17.9638 26.0838 17.3065C26.2299 16.9717 26.3751 16.6365 26.5204 16.3014C26.6001 16.1184 26.6802 15.9356 26.7608 15.753C26.8734 15.4978 26.9842 15.242 27.0947 14.9859C27.128 14.9115 27.1614 14.8372 27.1957 14.7605C27.3961 14.29 27.4952 13.872 27.4218 13.3593C27.2398 12.9813 27.0186 12.7601 26.6406 12.5781C26.0341 12.4912 25.5604 12.6601 25.014 12.9052Z" fill="url(#paint0_linear_346_967)"/>
<path d="M21.2414 17.7141C21.8934 18.1029 22.2988 18.641 22.5 19.3749C22.578 20.2421 22.5273 20.9948 21.9726 21.704C21.5306 22.1773 20.9801 22.468 20.3332 22.5262C19.495 22.545 18.8041 22.4472 18.1665 21.8517C17.5889 21.2092 17.4545 20.5285 17.4756 19.6865C17.5126 19.0314 17.7949 18.4841 18.2812 18.0468C19.1202 17.4159 20.2786 17.2521 21.2414 17.7141Z" fill="url(#paint1_linear_346_967)"/>
<defs>
<linearGradient id="paint0_linear_346_967" x1="2.47058" y1="2.47534" x2="37.5149" y2="37.5293" gradientUnits="userSpaceOnUse">
<stop stop-color="#5BCAFB"/>
<stop offset="1" stop-color="#320DE0"/>
</linearGradient>
<linearGradient id="paint1_linear_346_967" x1="17.4735" y1="17.4497" x2="22.552" y2="22.505" gradientUnits="userSpaceOnUse">
<stop stop-color="#5BCAFB"/>
<stop offset="1" stop-color="#320DE0"/>
</linearGradient>
</defs>
</svg>
