<svg width="50" height="50" viewBox="0 0 50 50" fill="none" xmlns="http://www.w3.org/2000/svg">
<rect width="50" height="50" rx="12" fill="white"/>
<g clip-path="url(#clip0_346_793)">
<path d="M31.6769 40.0938V41.347C31.6769 42.8898 30.426 44.1406 28.8832 44.1406H10.5675C9.02466 44.1406 7.7738 42.8898 7.7738 41.347V8.65305C7.7738 7.11023 9.02466 5.85938 10.5675 5.85938H28.8832C30.426 5.85938 31.6769 7.11023 31.6769 8.65305V12.5443" fill="#D2DCFD"/>
<path d="M27.9648 21.7805C27.21 21.7805 26.5038 21.4078 26.0779 20.7846L25.7952 20.371C25.7044 20.2385 25.5541 20.1592 25.3931 20.1592H21.7938V20.7777C21.7938 21.11 21.5245 21.3793 21.1922 21.3793H16.0511V21.7233C16.0511 22.183 15.6784 22.5556 15.2188 22.5556H7.59875V25.8236H14.2429C14.6547 25.8236 14.9886 25.4898 14.9886 25.0779C14.9886 24.9077 15.1266 24.7697 15.2968 24.7697H19.5948C19.8925 24.7697 20.1338 24.5284 20.1338 24.2307V23.9848C20.1338 23.8146 20.2718 23.6766 20.442 23.6766H23.3587C23.5029 23.6766 23.6375 23.7477 23.7189 23.8664L23.9722 24.2369C24.0409 24.3375 24.1181 24.4305 24.202 24.5159C24.5835 24.9044 25.1085 25.1293 25.663 25.1293H27.1566C27.3269 25.1293 27.4648 25.2672 27.4648 25.4375V26.7858H29.9762V21.7806L27.9648 21.7805Z" fill="#93B2F4"/>
<path d="M10.6419 44.2115H28.9576C30.5005 44.2115 31.7513 42.9607 31.7513 41.4179V39.8339L25.7901 39.8311L7.87772 39.8939L7.84827 39.8946V41.4179C7.84827 42.9607 9.09913 44.2115 10.6419 44.2115Z" fill="#6864F7"/>
<path d="M28.8832 5.85938H10.5675C9.02466 5.85938 7.7738 7.11023 7.7738 8.65305V9.93805L7.80326 9.94602H31.6478L31.6769 9.95312V8.65312C31.6769 7.11023 30.426 5.85938 28.8832 5.85938Z" fill="#6864F7"/>
<path d="M21.1923 14.2134H16.3055L16.282 21.379H21.1924C21.5243 21.379 21.7939 21.1094 21.7939 20.7774V14.8142C21.7939 14.4822 21.5242 14.2134 21.1923 14.2134Z" fill="white"/>
<path d="M15.2188 13.0369H7.80322V22.5555H15.2188C15.6785 22.5555 16.0511 22.1829 16.0511 21.7232V13.8691C16.0511 13.4095 15.6785 13.0369 15.2188 13.0369Z" fill="#FD6050"/>
<path d="M36.0756 15.3857L33.9127 13.058C33.2511 12.3463 32.1805 12.1992 31.3516 12.706L27.2269 15.2286C27.0074 15.3626 26.7555 15.4335 26.4983 15.4335H21.7936V20.159H25.393C25.554 20.159 25.7041 20.2384 25.7951 20.3708L26.0777 20.7844C26.5037 21.4075 27.21 21.7803 27.9648 21.7803H29.652H29.9759V20.7274C29.9759 19.8409 30.6946 19.1215 31.5819 19.1215C32.4684 19.1215 33.1878 19.8409 33.1878 20.7274V21.7803H33.4319C34.1513 21.7803 34.8099 21.3783 35.1396 20.7382L36.459 18.1741C36.9314 17.2566 36.7781 16.1421 36.0756 15.3857Z" fill="#FBBCB7"/>
<path d="M31.5821 19.1216C30.6948 19.1216 29.9762 19.841 29.9762 20.7275V26.7855H33.1881V20.7275C33.1881 19.841 32.4687 19.1216 31.5821 19.1216Z" fill="#DB4B86"/>
<path d="M23.017 30.6868L24.9218 38.5941C25.0882 39.285 25.706 39.7711 26.4161 39.7711H36.7482C37.4584 39.7711 38.0753 39.285 38.2417 38.5941L40.1466 30.6868H23.017Z" fill="#DB4B86"/>
<path d="M40.1187 30.6872C41.1961 30.6872 42.0694 29.8138 42.0694 28.7364C42.0694 27.659 41.196 26.7856 40.1187 26.7856H23.0454C21.968 26.7856 21.0946 27.6591 21.0946 28.7364C21.0946 29.8138 21.968 30.6872 23.0454 30.6872H40.1187Z" fill="#FD7DA0"/>
<path d="M29.3369 37.6814C28.9054 37.6814 28.5557 37.3316 28.5557 36.9001V33.5269C28.5557 33.0954 28.9054 32.7456 29.3369 32.7456C29.7684 32.7456 30.1182 33.0954 30.1182 33.5269V36.9001C30.1182 37.3316 29.7684 37.6814 29.3369 37.6814Z" fill="#052A75"/>
<path d="M33.827 37.6814C33.3955 37.6814 33.0458 37.3316 33.0458 36.9001V33.5269C33.0458 33.0954 33.3955 32.7456 33.827 32.7456C34.2585 32.7456 34.6083 33.0954 34.6083 33.5269V36.9001C34.6083 37.3316 34.2585 37.6814 33.827 37.6814Z" fill="#052A75"/>
<path d="M42.8507 28.7364C42.8507 27.23 41.625 26.0044 40.1186 26.0044H33.9693V22.5077C34.7647 22.3477 35.4526 21.8373 35.8345 21.0957L37.154 18.5316C37.7745 17.3259 37.5712 15.8481 36.648 14.854L34.4851 12.5262C33.9474 11.9479 33.2082 11.6398 32.4581 11.6279V8.65305C32.4581 6.6818 30.8544 5.07812 28.8831 5.07812H10.5675C8.59623 5.07812 6.99255 6.6818 6.99255 8.65305V41.3469C6.99255 43.3181 8.59623 44.9218 10.5675 44.9218H28.8832C30.8544 44.9218 32.4581 43.3181 32.4581 41.3469V40.5522H36.7482C37.823 40.5522 38.7495 39.8222 39.0011 38.777L40.7814 31.3866C41.9686 31.0898 42.8507 30.0144 42.8507 28.7364ZM30.7574 26.0044V20.7274C30.7574 20.2727 31.1273 19.9027 31.5821 19.9027C32.0368 19.9027 32.4068 20.2727 32.4068 20.7274V26.0044H30.7574ZM35.5033 15.9174C35.9801 16.4308 36.0851 17.194 35.7646 17.8166L34.4453 20.3805C34.3367 20.5913 34.1694 20.7577 33.9693 20.8647V20.7274C33.9693 19.4111 32.8984 18.3402 31.582 18.3402C30.2657 18.3402 29.1948 19.411 29.1948 20.7274V20.9991H27.965C27.4678 20.9991 27.0034 20.754 26.7229 20.3436L26.4394 19.9289C26.2027 19.5838 25.8115 19.3777 25.3931 19.3777H22.575V16.2148H26.4984C26.8993 16.2148 27.292 16.1043 27.6347 15.8952L31.7593 13.3726C32.2688 13.061 32.9339 13.1524 33.3405 13.5898L35.5033 15.9174ZM16.8324 14.9948H21.0126V20.5979H16.8324V14.9948ZM10.5675 6.64062H28.8832C29.9929 6.64062 30.8956 7.54344 30.8956 8.65305V12.0693L26.82 14.5618C26.7231 14.6209 26.6119 14.6523 26.4984 14.6523H22.5647C22.484 13.9664 21.8997 13.4322 21.1922 13.4322H16.7706C16.5794 12.7544 15.957 12.2555 15.2188 12.2555H8.55505V8.65305C8.55505 7.54344 9.45779 6.64062 10.5675 6.64062ZM8.55505 13.818H15.2189C15.247 13.818 15.2699 13.8409 15.2699 13.8691V21.723C15.2699 21.7512 15.247 21.7741 15.2189 21.7741H8.55505V13.818ZM30.8956 41.347C30.8956 42.4566 29.9928 43.3594 28.8832 43.3594H10.5675C9.45779 43.3594 8.55505 42.4566 8.55505 41.347V23.3366H15.2189C15.9569 23.3366 16.5793 22.838 16.7705 22.1603H21.1922C21.8996 22.1603 22.4837 21.6262 22.5646 20.9402H25.2381L25.4329 21.2253C26.0049 22.062 26.9515 22.5616 27.965 22.5616H29.1948V26.0044H23.0454C21.5389 26.0044 20.3133 27.23 20.3133 28.7364C20.3133 30.0141 21.1951 31.0894 22.3819 31.3866L24.1622 38.777C24.414 39.8222 25.3408 40.5523 26.4161 40.5523H30.8956V41.347ZM37.4821 38.4113C37.4 38.7519 37.0983 38.9898 36.7481 38.9898H26.4161C26.0655 38.9898 25.7633 38.7519 25.6813 38.4112L24.0089 31.4685H39.1546L37.4821 38.4113ZM40.1186 29.9059H23.0454C22.4005 29.9059 21.8758 29.3812 21.8758 28.7364C21.8758 28.0916 22.4005 27.5669 23.0454 27.5669H40.1186C40.7635 27.5669 41.2882 28.0915 41.2882 28.7364C41.2882 29.3813 40.7636 29.9059 40.1186 29.9059Z" fill="#052A75"/>
</g>
<defs>
<clipPath id="clip0_346_793">
<rect width="39.8438" height="39.8438" fill="white" transform="translate(5 5.07812)"/>
</clipPath>
</defs>
</svg>
