<svg width="50" height="50" viewBox="0 0 50 50" fill="none" xmlns="http://www.w3.org/2000/svg">
<rect width="50" height="50" rx="12" fill="white"/>
<g clip-path="url(#clip0_346_2134)">
<path d="M25 42.8112V39.9945C25 37.5426 25.9727 35.1911 27.7042 33.4573C29.4357 31.7236 31.7841 30.7495 34.2327 30.7495H41.6446V35.5707L25 42.8112Z" fill="white"/>
<path d="M25.0001 42.8112V39.9945C25.0001 37.5426 24.0273 35.1911 22.2959 33.4573C20.5644 31.7236 18.216 30.7495 15.7673 30.7495H8.35547V35.5707L25.0001 42.8112Z" fill="white"/>
<path d="M29.2953 44.2187H20.7046C19.1323 44.2187 17.8577 42.9424 17.8577 41.368V41.188C17.8577 40.99 17.7348 40.8128 17.5495 40.7437L6.36461 36.573C6.01383 36.4423 5.78125 36.107 5.78125 35.7323V32.4666L19.7517 37.5789C20.8053 37.9644 21.5062 38.968 21.5062 40.0913C21.5062 40.3531 21.7181 40.5654 21.9796 40.5654H28.0204C28.2819 40.5654 28.4938 40.3531 28.4938 40.0913C28.4938 38.968 29.1946 37.9644 30.2483 37.5789L44.2188 32.4666V35.7323C44.2188 36.107 43.9862 36.4423 43.6354 36.573L32.4505 40.7437C32.2652 40.8127 32.1423 40.9899 32.1423 41.1879V41.368C32.1423 42.9424 30.8677 44.2187 29.2953 44.2187Z" fill="#27A2CC"/>
<path d="M33.7523 21.8835L31.5358 22.6937C27.4347 24.1927 22.9366 24.1927 18.8354 22.6937L16.6189 21.8835V11.3914H33.7522L33.7523 21.8835Z" fill="#BC9AF4"/>
<path d="M33.7519 11.3911V17.9483L25.1859 21.0918L16.619 17.9475V11.3911H33.7519Z" fill="#6864F7"/>
<path d="M25.1856 5.78125L8.04846 11.1648L25.1856 17.4544L42.3226 11.1648L25.1856 5.78125Z" fill="#BC9AF4"/>
<path d="M10.3159 25.3558H5.78125L7.13086 17.6045H8.96625L10.3159 25.3558Z" fill="#BC9AF4"/>
<path d="M9.80074 22.6542C9.26887 22.9048 8.67426 23.0438 8.04832 23.0438C7.42152 23.0438 6.8277 22.9048 6.2959 22.6542L7.13051 17.8596H8.96613L9.80074 22.6542Z" fill="#6864F7"/>
<path d="M8.04845 20.4516C9.0442 20.4516 9.85142 19.6433 9.85142 18.6462C9.85142 17.6491 9.0442 16.8408 8.04845 16.8408C7.0527 16.8408 6.24548 17.6491 6.24548 18.6462C6.24548 19.6433 7.0527 20.4516 8.04845 20.4516Z" fill="#BC9AF4"/>
<path d="M44.6663 31.8263C44.4573 31.6801 44.1898 31.6453 43.9503 31.733L42.4259 32.2908V30.7498C42.4259 30.3183 42.0761 29.9685 41.6446 29.9685H34.2327C31.5577 29.9685 29.0428 31.0116 27.1514 32.9055C26.2207 33.8374 25.4963 34.9207 25 36.0997C24.5037 34.9208 23.7793 33.8374 22.8486 32.9055C20.9572 31.0116 18.4423 29.9685 15.7673 29.9685H8.35539C7.92391 29.9685 7.57414 30.3183 7.57414 30.7498V32.2908L6.04969 31.7329C5.81 31.6451 5.54273 31.68 5.33367 31.8262C5.12461 31.9724 5 32.2116 5 32.4666V35.7323C5 36.4296 5.43867 37.0617 6.09164 37.3051L17.0766 41.4012C17.0944 43.3887 18.715 45.0001 20.7046 45.0001H29.2953C31.2849 45.0001 32.9056 43.3887 32.9234 41.4012L43.9084 37.3052C44.5613 37.0618 45 36.4297 45 35.7324V32.4667C45 32.2116 44.8754 31.9724 44.6663 31.8263ZM28.257 34.0096C29.8533 32.4112 31.9755 31.531 34.2327 31.531H40.8634V32.8626L29.9797 36.8454C28.7205 37.3062 27.8449 38.4641 27.7263 39.7843H25.7838C25.8366 37.6022 26.7102 35.5585 28.257 34.0096ZM9.13664 31.531H15.7673C18.0246 31.531 20.1468 32.4112 21.743 34.0096C23.2899 35.5585 24.1634 37.6021 24.2162 39.7843H22.2737C22.155 38.4641 21.2795 37.3062 20.0202 36.8454L9.13664 32.8626V31.531ZM43.4375 35.7323C43.4375 35.7807 43.4073 35.8244 43.3625 35.8412L32.1776 40.0117C31.6892 40.1938 31.361 40.6665 31.361 41.188V41.3681C31.361 42.5092 30.4344 43.4376 29.2953 43.4376H20.7046C19.5656 43.4376 18.639 42.5092 18.639 41.3681V41.188C18.639 40.6666 18.3109 40.1938 17.8224 40.0118L6.63758 35.8412C6.59266 35.8244 6.56258 35.7807 6.56258 35.7323V33.5844L19.4833 38.3126C20.2259 38.5844 20.725 39.2993 20.725 40.0915C20.725 40.7837 21.2879 41.3468 21.9797 41.3468H28.0205C28.7123 41.3468 29.2752 40.7837 29.2752 40.0915C29.2752 39.2994 29.7741 38.5845 30.5168 38.3127L43.4375 33.5844V35.7323Z" fill="#052A75"/>
<path d="M5.78129 26.1372H10.3158C10.5464 26.1372 10.7653 26.0353 10.9137 25.8587C11.0622 25.6823 11.125 25.4491 11.0854 25.222L10.1918 20.0898C10.47 19.6773 10.6327 19.1805 10.6327 18.6463C10.6327 17.4925 9.87395 16.513 8.82973 16.1808V12.2839L15.8376 14.8559V21.8836C15.8376 22.2116 16.0425 22.5048 16.3507 22.6173L18.5672 23.4275C20.7011 24.2075 22.9433 24.5975 25.1855 24.5975C27.4278 24.5975 29.67 24.2075 31.804 23.4275L34.0204 22.6173C34.3286 22.5048 34.5335 22.2116 34.5335 21.8836V14.8559L42.5918 11.8984C42.9058 11.7831 43.1115 11.4808 43.1036 11.1464C43.0957 10.812 42.8758 10.5198 42.5568 10.4195L25.4198 5.03586C25.2674 4.98805 25.104 4.98805 24.9515 5.03586L7.81981 10.4179C7.49801 10.5131 7.26364 10.8291 7.26739 11.1649V16.1808C6.22317 16.513 5.46434 17.4925 5.46434 18.6463C5.46434 19.1805 5.627 19.6773 5.9052 20.0898L5.01161 25.2219C4.972 25.4491 5.03489 25.6822 5.18332 25.8587C5.33184 26.0352 5.55067 26.1372 5.78129 26.1372ZM6.71036 24.5747L7.31098 21.1249C7.54489 21.1948 7.79231 21.2329 8.04864 21.2329C8.30489 21.2329 8.55239 21.1948 8.78629 21.1249L9.38692 24.5746H6.71036V24.5747ZM32.9711 21.3373L31.2676 21.9599C27.3456 23.3934 23.0257 23.3934 19.1036 21.9599L17.4002 21.3373V15.4292L24.9165 18.1877C25.0033 18.2196 25.0945 18.2355 25.1856 18.2355C25.2767 18.2355 25.3679 18.2196 25.4547 18.1877L32.971 15.4292L32.9711 21.3373ZM25.1857 6.60016L39.8988 11.2223L25.1857 16.6222L10.4725 11.2223L25.1857 6.60016ZM8.04864 17.6221C8.612 17.6221 9.07036 18.0816 9.07036 18.6462C9.07036 19.2109 8.612 19.6704 8.04864 19.6704C7.48528 19.6704 7.02684 19.2109 7.02684 18.6462C7.02684 18.0816 7.4852 17.6221 8.04864 17.6221Z" fill="#052A75"/>
</g>
<defs>
<clipPath id="clip0_346_2134">
<rect width="40" height="40" fill="white" transform="translate(5 5)"/>
</clipPath>
</defs>
</svg>
