<svg width="50" height="50" viewBox="0 0 50 50" fill="none" xmlns="http://www.w3.org/2000/svg">
<rect width="50" height="50" rx="12" fill="white"/>
<g clip-path="url(#clip0_346_1179)">
<path d="M5.78027 15.874V41.2266C5.78027 42.2279 6.59191 43.0395 7.59316 43.0395H42.4049C43.4061 43.0395 44.2178 42.2279 44.2178 41.2266V15.874H5.78027Z" fill="white"/>
<path d="M10.4326 27.235C10.4326 23.2329 11.1702 19.4032 12.5165 15.874H5.78027V41.2266C5.78027 42.2279 6.59191 43.0395 7.59316 43.0395H14.6197C11.9555 38.3811 10.4326 32.986 10.4326 27.235Z" fill="#D2DCFD"/>
<path d="M44.218 11.5331C44.218 10.5319 43.4064 9.72021 42.4051 9.72021H7.59341C6.59216 9.72021 5.78052 10.5319 5.78052 11.5331V15.8742H44.218V11.5331Z" fill="#67CCD1"/>
<path d="M15.6706 9.72021H7.59341C6.59216 9.72021 5.78052 10.5319 5.78052 11.5331V15.8742H12.5168C13.3467 13.6986 14.4079 11.6372 15.6706 9.72021Z" fill="#27A2CC"/>
<path d="M24.9991 39.1488C30.3518 39.1488 34.691 34.8096 34.691 29.4568C34.691 24.1041 30.3518 19.7649 24.9991 19.7649C19.6464 19.7649 15.3071 24.1041 15.3071 29.4568C15.3071 34.8096 19.6464 39.1488 24.9991 39.1488Z" fill="#FD7DA0"/>
<path d="M25.313 24.2481L26.8971 26.8397C26.9482 26.9233 27.0304 26.983 27.1256 27.0058L30.0799 27.7115C30.3476 27.7754 30.4529 28.0997 30.274 28.3088L28.2988 30.6163C28.2351 30.6907 28.2037 30.7873 28.2115 30.8849L28.4532 33.9127C28.4751 34.187 28.1992 34.3874 27.9452 34.2818L25.1403 33.1163C25.0499 33.0787 24.9482 33.0787 24.8578 33.1163L22.0529 34.2818C21.7988 34.3875 21.5229 34.187 21.5449 33.9127L21.7866 30.8849C21.7944 30.7873 21.763 30.6907 21.6993 30.6163L19.7241 28.3088C19.5452 28.0997 19.6505 27.7754 19.9181 27.7115L22.8724 27.0058C22.9677 26.983 23.0499 26.9233 23.101 26.8397L24.6851 24.2481C24.8285 24.0133 25.1695 24.0133 25.313 24.2481Z" fill="white"/>
<path d="M13.4878 12.4799H11.9042C11.3865 12.4799 10.9629 12.0563 10.9629 11.5386V7.90178C10.9629 7.38404 11.3865 6.96045 11.9042 6.96045H13.4878C14.0055 6.96045 14.4291 7.38404 14.4291 7.90178V11.5386C14.4291 12.0563 14.0055 12.4799 13.4878 12.4799Z" fill="#FDCB50"/>
<path d="M38.0943 12.4799H36.5107C35.9929 12.4799 35.5693 12.0563 35.5693 11.5386V7.90178C35.5693 7.38404 35.9929 6.96045 36.5107 6.96045H38.0943C38.612 6.96045 39.0356 7.38404 39.0356 7.90178V11.5386C39.0356 12.0563 38.612 12.4799 38.0943 12.4799Z" fill="#FDCB50"/>
<path d="M42.4056 8.93896H39.8173V7.90178C39.8173 6.95193 39.0446 6.1792 38.0948 6.1792H36.5111C35.5612 6.1792 34.7885 6.95193 34.7885 7.90178V8.93896H15.2109V7.90178C15.2109 6.95193 14.4382 6.1792 13.4883 6.1792H11.9048C10.9549 6.1792 10.1822 6.95193 10.1822 7.90178V8.93896H7.5939C6.16351 8.93896 4.99976 10.1026 4.99976 11.5331V41.2268C4.99976 42.6572 6.16351 43.8209 7.5939 43.8209H42.4056C43.8361 43.8209 44.9998 42.6572 44.9998 41.2268V11.5331C44.9998 10.1026 43.836 8.93896 42.4056 8.93896ZM36.3511 7.90178C36.3511 7.81506 36.4244 7.7417 36.5112 7.7417H38.0948C38.1816 7.7417 38.2549 7.81498 38.2549 7.90178V11.5386C38.2549 11.6253 38.1816 11.6987 38.0948 11.6987H36.5112C36.4244 11.6987 36.3511 11.6254 36.3511 11.5386V7.90178ZM11.7447 7.90178C11.7447 7.81506 11.818 7.7417 11.9048 7.7417H13.4884C13.5751 7.7417 13.6485 7.81498 13.6485 7.90178V11.5386C13.6485 11.6253 13.5752 11.6987 13.4884 11.6987H11.9048C11.818 11.6987 11.7447 11.6254 11.7447 11.5386V7.90178ZM7.5939 10.5015H10.1822V11.5386C10.1822 12.4884 10.9549 13.2612 11.9048 13.2612H13.4884C14.4383 13.2612 15.211 12.4884 15.211 11.5386V10.5015H34.7887V11.5386C34.7887 12.4884 35.5614 13.2612 36.5112 13.2612H38.0949C39.0448 13.2612 39.8175 12.4884 39.8175 11.5386V10.5015H42.4058C42.9746 10.5015 43.4374 10.9643 43.4374 11.5331V15.0929H6.56226V11.5331C6.56226 10.9643 7.02507 10.5015 7.5939 10.5015ZM42.4056 42.2584H7.5939C7.02507 42.2584 6.56226 41.7956 6.56226 41.2268V16.6554H43.4373V41.2267C43.4373 41.7956 42.9744 42.2584 42.4056 42.2584Z" fill="#052A75"/>
<path d="M24.9995 18.9836C19.2246 18.9836 14.5262 23.6819 14.5262 29.4568C14.5262 35.2318 19.2246 39.9301 24.9995 39.9301C30.7744 39.9301 35.4728 35.2318 35.4728 29.4568C35.4728 23.6818 30.7744 18.9836 24.9995 18.9836ZM24.9995 38.3676C20.0861 38.3676 16.0887 34.3703 16.0887 29.4568C16.0887 24.5435 20.0861 20.5461 24.9995 20.5461C29.913 20.5461 33.9103 24.5435 33.9103 29.4568C33.9103 34.3703 29.913 38.3676 24.9995 38.3676Z" fill="#052A75"/>
<path d="M11.9695 30.292H8.89673C8.46524 30.292 8.11548 29.9422 8.11548 29.5107C8.11548 29.0793 8.46524 28.7295 8.89673 28.7295H11.9695C12.4009 28.7295 12.7507 29.0793 12.7507 29.5107C12.7507 29.9422 12.4009 30.292 11.9695 30.292Z" fill="#FD8F01"/>
<path d="M12.3884 27.1723C12.2042 27.1723 12.0192 27.1075 11.8706 26.9756L10.2642 25.5517C9.94126 25.2655 9.9115 24.7717 10.1977 24.4488C10.484 24.126 10.9777 24.0962 11.3006 24.3824L12.907 25.8063C13.2299 26.0926 13.2597 26.5863 12.9734 26.9092C12.819 27.0833 12.6042 27.1723 12.3884 27.1723Z" fill="#FD8F01"/>
<path d="M10.7827 34.8359C10.5669 34.8359 10.3521 34.747 10.1977 34.5728C9.9115 34.2499 9.94126 33.7562 10.2642 33.4699L11.8706 32.046C12.1935 31.7598 12.6873 31.7895 12.9734 32.1124C13.2597 32.4353 13.2299 32.9291 12.907 33.2153L11.3006 34.6392C11.1519 34.771 10.9669 34.8359 10.7827 34.8359Z" fill="#FD8F01"/>
<path d="M41.1024 30.292H38.0297C37.5982 30.292 37.2484 29.9422 37.2484 29.5107C37.2484 29.0793 37.5982 28.7295 38.0297 28.7295H41.1024C41.5339 28.7295 41.8836 29.0793 41.8836 29.5107C41.8836 29.9422 41.5339 30.292 41.1024 30.292Z" fill="#FD8F01"/>
<path d="M37.6105 27.1725C37.3948 27.1725 37.18 27.0837 37.0256 26.9095C36.7394 26.5866 36.7691 26.0928 37.092 25.8066L38.6984 24.3827C39.0213 24.0964 39.5152 24.1262 39.8013 24.4491C40.0876 24.772 40.0578 25.2657 39.7349 25.552L38.1285 26.9759C37.9798 27.1077 37.7948 27.1725 37.6105 27.1725Z" fill="#FD8F01"/>
<path d="M39.2165 34.8358C39.0322 34.8358 38.8472 34.7711 38.6986 34.6392L37.0922 33.2153C36.7693 32.929 36.7395 32.4353 37.0257 32.1124C37.312 31.7896 37.8057 31.7597 38.1286 32.046L39.735 33.4699C40.0579 33.7561 40.0877 34.2499 39.8015 34.5728C39.647 34.7469 39.4322 34.8358 39.2165 34.8358Z" fill="#FD8F01"/>
</g>
<defs>
<clipPath id="clip0_346_1179">
<rect width="40" height="40" fill="white" transform="translate(5 5)"/>
</clipPath>
</defs>
</svg>
