<svg width="40" height="40" viewBox="0 0 40 40" fill="none" xmlns="http://www.w3.org/2000/svg">
<g clip-path="url(#clip0_186_5591)">
<path d="M29.6072 10.4622C29.7187 10.5219 29.8306 10.5811 29.9427 10.6397C31.4733 11.4411 32.8817 12.3935 34.2274 13.4755C34.3548 13.5779 34.4832 13.6791 34.6117 13.7802C35.1423 14.203 35.6342 14.6636 36.1272 15.129C36.35 15.3392 36.5766 15.5443 36.8062 15.747C37.4418 16.3158 38.0582 16.9189 38.6079 17.5717C38.7578 17.7438 38.9153 17.9072 39.0735 18.0716C39.6402 18.6687 40.0126 19.1583 40.0435 20.0048C39.9979 20.9891 39.5138 21.4759 38.858 22.1521C38.7266 22.2895 38.6034 22.4327 38.481 22.5781C37.9424 23.1998 37.3455 23.7867 36.7183 24.3185C36.5281 24.4823 36.3455 24.6534 36.1616 24.8242C35.749 25.2008 35.3163 25.5449 34.8744 25.8865C34.6411 26.0672 34.4147 26.2551 34.189 26.4453C33.6515 26.8864 33.0793 27.2734 32.4995 27.6562C32.4423 27.694 32.3851 27.7318 32.3261 27.7707C27.401 30.9995 21.6356 32.6666 15.7779 31.4575C11.812 30.5783 8.13574 28.5543 5.10566 25.8643C4.96548 25.7416 4.82426 25.6213 4.68132 25.5019C4.01269 24.9416 3.38759 24.3475 2.77384 23.7278C2.62025 23.5728 2.46602 23.4184 2.3117 23.2641C1.83728 22.7884 1.36845 22.3125 0.937039 21.7968C0.864157 21.7127 0.791222 21.6285 0.718228 21.5445C0.653473 21.4682 0.588718 21.392 0.522 21.3134C0.423357 21.1982 0.423357 21.1982 0.322721 21.0806C-0.0567696 20.5776 -0.0812093 20.0669 -0.00046061 19.4531C0.185135 18.9756 0.497955 18.6102 0.869901 18.2652C1.0057 18.1341 1.12621 17.9992 1.24771 17.8549C1.60301 17.4454 1.98615 17.0641 2.37005 16.6818C2.49443 16.5578 2.61839 16.4334 2.74231 16.309C3.16871 15.8823 3.60098 15.4676 4.06204 15.0781C4.14093 15.0096 4.21977 14.941 4.29855 14.8724C7.81991 11.8568 11.9098 9.45914 16.4839 8.51559C16.5472 8.50252 16.6105 8.48945 16.6756 8.47599C21.0502 7.60184 25.6853 8.36071 29.6072 10.4622ZM17.8902 11.875C17.7946 11.9015 17.699 11.9281 17.6006 11.9555C15.6229 12.5584 13.9728 13.8684 12.8902 15.625C12.8491 15.6912 12.8491 15.6912 12.8072 15.7588C11.6662 17.6335 11.3782 19.9147 11.8871 22.0388C12.459 24.2077 13.8474 26.118 15.7886 27.2601C17.7499 28.3645 20.0571 28.7209 22.2501 28.1458C24.5365 27.486 26.3602 25.9912 27.5261 23.9224C28.5098 22.0221 28.7866 19.7466 28.1814 17.6781C27.7106 16.2029 26.9478 14.9983 25.8589 13.9062C25.8057 13.8512 25.7526 13.7962 25.6978 13.7396C24.0305 12.1309 21.8127 11.602 19.5683 11.6238C18.9841 11.6373 18.4536 11.7127 17.8902 11.875Z" fill="url(#paint0_linear_186_5591)"/>
<path d="M23.8502 15.303C25.0039 16.2616 25.8272 17.642 26.0154 19.1407C26.1574 20.8668 25.8198 22.4502 24.7312 23.8282C23.5845 25.1328 22.1135 25.8783 20.3763 26.0037C18.6988 26.0823 17.1803 25.4897 15.9372 24.375C15.8628 24.3116 15.8628 24.3116 15.7868 24.2469C14.6762 23.2358 14.1609 21.7187 14.0719 20.2574C13.9973 18.4821 14.6909 16.9431 15.8738 15.6494C18.0385 13.5952 21.5172 13.4754 23.8502 15.303ZM17.2843 17.5775C17.1717 17.7326 17.0609 17.8886 16.9529 18.0469C16.8683 18.1702 16.8683 18.1702 16.782 18.2959C16.4731 18.8594 16.3378 19.598 16.406 20.2344C16.5155 20.5081 16.6114 20.6053 16.8552 20.7715C17.171 20.8808 17.3366 20.88 17.656 20.7813C17.9945 20.4458 18.109 20.166 18.1931 19.6973C18.3092 19.1637 18.4523 18.7765 18.906 18.4375C19.2607 18.22 19.6117 18.1184 20.0193 18.0469C20.35 17.9868 20.5538 17.919 20.781 17.6563C20.9303 17.3266 20.9528 17.1679 20.8591 16.8164C20.6763 16.5194 20.5624 16.4376 20.2341 16.3282C19.1775 16.2081 17.9733 16.7966 17.2843 17.5775Z" fill="url(#paint1_linear_186_5591)"/>
</g>
<defs>
<linearGradient id="paint0_linear_186_5591" x1="-0.0380859" y1="8.11926" x2="20.771" y2="43.2633" gradientUnits="userSpaceOnUse">
<stop stop-color="#5BCAFB"/>
<stop offset="1" stop-color="#320DE0"/>
</linearGradient>
<linearGradient id="paint1_linear_186_5591" x1="14.0664" y1="14.0153" x2="26.0618" y2="25.9949" gradientUnits="userSpaceOnUse">
<stop stop-color="#5BCAFB"/>
<stop offset="1" stop-color="#320DE0"/>
</linearGradient>
<clipPath id="clip0_186_5591">
<rect width="40" height="40" fill="white"/>
</clipPath>
</defs>
</svg>
