<svg width="50" height="50" viewBox="0 0 50 50" fill="none" xmlns="http://www.w3.org/2000/svg">
<rect width="50" height="50" rx="12" fill="white"/>
<g clip-path="url(#clip0_346_1966)">
<path d="M42.6555 42.4506H7.34302C6.48005 42.4506 5.78052 41.7511 5.78052 40.8881V22.3059C5.78052 21.4429 6.48005 20.7434 7.34302 20.7434H42.6555C43.5185 20.7434 44.218 21.4429 44.218 22.3059V40.8881C44.218 41.751 43.5185 42.4506 42.6555 42.4506Z" fill="#B1D952"/>
<path d="M24.1911 31.597C24.1911 27.6604 25.2047 23.961 26.9834 20.7434H7.34302C6.48005 20.7434 5.78052 21.4429 5.78052 22.3059V40.8881C5.78052 41.7511 6.48005 42.4506 7.34302 42.4506H26.9833C25.2047 39.233 24.1911 35.5336 24.1911 31.597Z" fill="#91B706"/>
<path d="M32.1743 31.597C32.1743 35.4301 29.1686 38.561 25.3854 38.7616L19.3868 31.597L25.3854 24.4324C29.1765 24.6245 32.1743 27.7582 32.1743 31.597Z" fill="white"/>
<path d="M24.2185 31.5969C24.2185 29.0917 24.6289 26.6825 25.3855 24.4323C25.2576 24.4255 25.129 24.4219 24.9993 24.4219C21.0367 24.4219 17.8243 27.6342 17.8243 31.597C17.8243 35.5596 21.0367 38.772 24.9993 38.772C25.1289 38.772 25.2576 38.7683 25.3855 38.7616C24.6289 36.5113 24.2185 34.102 24.2185 31.5969Z" fill="#D2DCFD"/>
<path d="M12.2775 20.8338C12.2775 20.8035 12.2757 20.7736 12.2753 20.7434H7.34302C6.48005 20.7434 5.78052 21.4429 5.78052 22.3059V27.3496C9.37044 27.3391 12.2775 24.4262 12.2775 20.8338Z" fill="#91B706"/>
<path d="M43.5576 35.844C39.9588 35.844 37.0414 38.7614 37.0414 42.3602C37.0414 42.3906 37.0433 42.4204 37.0436 42.4506H42.6555C43.5185 42.4506 44.218 41.7511 44.218 40.8881V35.8772C44.0008 35.8553 43.7806 35.844 43.5576 35.844Z" fill="#B1D952"/>
<path d="M12.2775 42.3602C12.2775 38.7678 9.37044 35.8549 5.78052 35.8445V40.8882C5.78052 41.7511 6.48005 42.4507 7.34302 42.4507H12.2753C12.2757 42.4204 12.2775 42.3906 12.2775 42.3602Z" fill="#91B706"/>
<path d="M37.0438 20.7434C37.0434 20.7736 37.0415 20.8035 37.0415 20.8338C37.0415 24.4326 39.9589 27.35 43.5578 27.35C43.7807 27.35 44.001 27.3387 44.2181 27.3168V22.3059C44.2181 21.4429 43.5186 20.7434 42.6556 20.7434H37.0438Z" fill="#B1D952"/>
<path d="M35.2274 15.5564H32.8577C31.9947 15.5564 31.2952 16.2559 31.2952 17.1189V20.4309H36.7899V17.1189C36.7899 16.2559 36.0903 15.5564 35.2274 15.5564Z" fill="#FD7DA0"/>
<path d="M21.7864 20.4309H27.2811V13.9915C27.2811 13.1285 26.5815 12.429 25.7186 12.429H23.3489C22.4859 12.429 21.7864 13.1285 21.7864 13.9915V20.4309Z" fill="#BC9AF4"/>
<path d="M12.2776 20.431H17.7723V9.19116C17.7723 8.32819 17.0727 7.62866 16.2098 7.62866H13.8401C12.9771 7.62866 12.2776 8.32819 12.2776 9.19116V20.431Z" fill="#67CCD1"/>
<path d="M25.6952 30.8283C25.1951 30.6515 24.6438 30.4394 24.3476 30.207C24.3248 30.1891 24.2909 30.0961 24.3162 29.962C24.3285 29.8967 24.3851 29.6787 24.5955 29.6153C25.0037 29.4924 25.289 29.6297 25.4226 29.7224C25.4342 29.7305 25.4428 29.7369 25.4477 29.741C25.4459 29.7395 25.4737 29.7574 25.5194 29.7871C25.8837 30.0237 26.3714 29.9179 26.6044 29.5513C26.8318 29.1934 26.7316 28.7193 26.3794 28.4833C26.3498 28.4634 26.3269 28.448 26.3133 28.4386C26.178 28.3447 25.9353 28.2011 25.6081 28.1048V28.0371C25.6081 27.6056 25.2583 27.2559 24.8269 27.2559C24.3955 27.2559 24.0456 27.6056 24.0456 28.0371V28.153C23.3953 28.3884 22.9148 28.9613 22.7808 29.6727C22.65 30.3666 22.8808 31.0424 23.3833 31.4365C23.8562 31.8073 24.5237 32.0713 25.1745 32.3014C25.5653 32.4395 25.6051 32.7198 25.5697 32.9305C25.5302 33.165 25.3283 33.5627 24.8218 33.566C24.2975 33.5695 24.1741 33.5501 23.7912 33.2995C23.4162 33.0542 22.9085 33.1729 22.6837 33.5683C22.4756 33.9341 22.611 34.3977 22.9645 34.6258C23.3686 34.8864 23.6921 35.0166 24.0457 35.0784V35.1562C24.0457 35.5877 24.3955 35.9375 24.8269 35.9375C25.2583 35.9375 25.6082 35.5877 25.6082 35.1562V34.9903C26.3797 34.7123 26.9679 34.038 27.1105 33.1896C27.2871 32.1389 26.7183 31.19 25.6952 30.8283Z" fill="#27A2CC"/>
<path d="M42.656 19.9618H37.6498V17.1186C37.6498 15.7831 36.5634 14.6967 35.2279 14.6967H32.8582C31.5227 14.6967 30.4363 15.7831 30.4363 17.1186V19.9618H28.1409V13.9911C28.1409 12.6556 27.0545 11.5692 25.7191 11.5692H23.3494C22.0139 11.5692 20.9275 12.6556 20.9275 13.9911V19.9618H18.6321V9.19067C18.6321 7.85521 17.5457 6.7688 16.2102 6.7688H13.8405C12.5051 6.7688 11.4187 7.85521 11.4187 9.19067V19.9618H7.34351C6.05116 19.9618 4.99976 21.0132 4.99976 22.3055V40.8877C4.99976 42.18 6.05116 43.2315 7.34351 43.2315H42.656C43.9483 43.2315 44.9998 42.18 44.9998 40.8877V22.3055C44.9998 21.0132 43.9483 19.9618 42.656 19.9618ZM36.2936 21.5243C36.6391 25.1858 39.7011 28.0683 43.4373 28.1293V35.0638C39.7011 35.1248 36.6391 38.0073 36.2936 41.6689H13.0263C12.7016 38.2357 9.98265 35.4824 6.56226 35.1068V28.0863C9.98265 27.7107 12.7016 24.9574 13.0263 21.5242H36.2936V21.5243ZM42.656 21.5243C43.0868 21.5243 43.4373 21.8747 43.4373 22.3055V26.5672C40.5631 26.5075 38.2019 24.3229 37.8645 21.5243H42.656ZM32.1551 17.1186C32.1551 16.7308 32.4705 16.4154 32.8582 16.4154H35.2279C35.6156 16.4154 35.931 16.7308 35.931 17.1186V19.9618H32.1551V17.1186ZM22.6462 13.9911C22.6462 13.6033 22.9616 13.2879 23.3494 13.2879H25.7191C26.1068 13.2879 26.4222 13.6033 26.4222 13.9911V19.9618H22.6462V13.9911ZM13.8405 8.48755H16.2102C16.598 8.48755 16.9134 8.80294 16.9134 9.19067V19.9618H13.1374V9.19067C13.1374 8.80302 13.4528 8.48755 13.8405 8.48755ZM6.56226 22.3055C6.56226 21.8747 6.91272 21.5243 7.34351 21.5243H11.4553C11.1443 24.096 9.12038 26.1526 6.56226 26.5122V22.3055ZM7.34351 41.669C6.91272 41.669 6.56226 41.3185 6.56226 40.8877V36.6811C9.12038 37.0405 11.1443 39.0972 11.4553 41.669H7.34351ZM43.4373 40.8877C43.4373 41.3185 43.0868 41.669 42.656 41.669H37.8645C38.2019 38.8703 40.5631 36.6858 43.4373 36.6261V40.8877Z" fill="#052A75"/>
</g>
<defs>
<clipPath id="clip0_346_1966">
<rect width="40" height="40" fill="white" transform="translate(5 5)"/>
</clipPath>
</defs>
</svg>
