<svg width="50" height="50" viewBox="0 0 50 50" fill="none" xmlns="http://www.w3.org/2000/svg">
<rect width="50" height="50" rx="12" fill="white"/>
<g clip-path="url(#clip0_346_696)">
<path d="M13.0938 15.595V12.5388C13.0938 11.2391 14.1473 10.1855 15.447 10.1855H18.8987V14.4184L13.0938 15.595Z" fill="#6864F7"/>
<path d="M31.1017 14.4181V10.1853H34.5533C35.853 10.1853 36.9066 11.2389 36.9066 12.5386V15.5948L31.1017 14.4181Z" fill="#6864F7"/>
<path d="M44.0544 32.3063L41.3402 20.7502C40.3615 16.5829 36.6436 13.6372 32.363 13.6372H17.6376C13.3569 13.6372 9.63911 16.583 8.66036 20.7502L5.94607 32.3063C5.04544 36.141 7.95513 39.8133 11.8942 39.8133C14.7304 39.8133 17.1938 37.8615 17.8423 35.1004L18.4123 32.6737H31.5883L32.1583 35.1004C32.8069 37.8615 35.2702 39.8133 38.1065 39.8133C42.0454 39.8132 44.9551 36.1409 44.0544 32.3063Z" fill="#67CCD1"/>
<path d="M20.0951 19.2742C20.0934 17.2917 20.3799 15.4013 20.9126 13.637H17.6376C13.3569 13.637 9.63911 16.5827 8.66036 20.7499L5.94607 32.3061C5.04544 36.1407 7.95513 39.8131 11.8942 39.8131C14.7304 39.8131 17.1938 37.8613 17.8423 35.1002L18.4123 32.6735H25.7872C22.2813 29.286 20.0997 24.5352 20.0951 19.2742Z" fill="#27A2CC"/>
<path d="M28.5649 13.637V15.4759C28.5649 17.4446 26.969 19.0406 25.0002 19.0406C23.0315 19.0406 21.4355 17.4446 21.4355 15.4759V13.637H28.5649Z" fill="#6864F7"/>
<path d="M15.787 24.8729C17.5056 24.8729 18.8987 23.4797 18.8987 21.7611C18.8987 20.0426 17.5056 18.6494 15.787 18.6494C14.0685 18.6494 12.6753 20.0426 12.6753 21.7611C12.6753 23.4797 14.0685 24.8729 15.787 24.8729Z" fill="white"/>
<path d="M34.2134 24.8729C35.932 24.8729 37.3251 23.4797 37.3251 21.7611C37.3251 20.0426 35.932 18.6494 34.2134 18.6494C32.4948 18.6494 31.1017 20.0426 31.1017 21.7611C31.1017 23.4797 32.4948 24.8729 34.2134 24.8729Z" fill="white"/>
<path d="M11.917 31.7687C11.2118 29.7723 9.32443 28.4373 7.20708 28.4373H6.85474L5.94607 32.3062C5.04544 36.1408 7.95513 39.8132 11.8942 39.8132C14.7304 39.8132 17.1938 37.8614 17.8423 35.1003H16.627C14.5095 35.1002 12.6222 33.7652 11.917 31.7687Z" fill="#6864F7"/>
<path d="M43.1457 28.4373H42.7934C40.6759 28.4373 38.7886 29.7723 38.0834 31.7687C37.3783 33.7652 35.4909 35.1002 33.3735 35.1002H32.1582C32.8067 37.8613 35.2701 39.8131 38.1063 39.8131C42.0453 39.8131 44.9551 36.1408 44.0545 32.3061L43.1457 28.4373Z" fill="#6864F7"/>
<path d="M22.6467 29.2188H19.9812C19.5497 29.2188 19.2 28.869 19.2 28.4375C19.2 28.006 19.5497 27.6562 19.9812 27.6562H22.6467C23.0782 27.6562 23.428 28.006 23.428 28.4375C23.428 28.869 23.0782 29.2188 22.6467 29.2188Z" fill="white"/>
<path d="M30.0192 29.2188H27.3536C26.9222 29.2188 26.5724 28.869 26.5724 28.4375C26.5724 28.006 26.9222 27.6562 27.3536 27.6562H30.0192C30.4507 27.6562 30.8004 28.006 30.8004 28.4375C30.8004 28.869 30.4507 29.2188 30.0192 29.2188Z" fill="white"/>
<path d="M44.8147 32.1279L42.1005 20.5718C41.5871 18.3856 40.3349 16.4135 38.5747 15.0189C38.2902 14.7934 37.9939 14.5847 37.6877 14.3926V12.5392C37.6877 10.8107 36.2815 9.40454 34.5531 9.40454H31.1014C30.6699 9.40454 30.3201 9.75431 30.3201 10.1858V12.8562H19.6798V10.1858C19.6798 9.75431 19.33 9.40454 18.8986 9.40454H15.4468C13.7184 9.40454 12.3122 10.8107 12.3122 12.5392V14.3926C12.0061 14.5847 11.7098 14.7935 11.4252 15.0189C9.66504 16.4136 8.41286 18.3856 7.89942 20.5718L5.18528 32.1279C4.70106 34.1893 5.17762 36.3235 6.49262 37.9832C7.8077 39.6429 9.77637 40.5948 11.8939 40.5948C15.1087 40.5948 17.8675 38.4089 18.6025 35.2792L19.031 33.4551H30.969L31.3975 35.2792C32.1325 38.4089 34.8912 40.5948 38.1061 40.5948C40.2236 40.5948 42.1923 39.6429 43.5074 37.9832C44.8224 36.3235 45.299 34.1893 44.8147 32.1279ZM31.8827 10.967H34.5532C35.42 10.967 36.1253 11.6723 36.1253 12.5392V13.5938C34.9359 13.1114 33.656 12.8563 32.3628 12.8563H31.8828V10.967H31.8827ZM22.2166 14.4187H27.7835V15.4764C27.7835 17.0113 26.5349 18.2599 25 18.2599C23.4652 18.2599 22.2166 17.0113 22.2166 15.4764V14.4187ZM13.8748 12.5392C13.8748 11.6723 14.58 10.967 15.4469 10.967H18.1174V12.8562H17.6374C16.3442 12.8562 15.0643 13.1113 13.8749 13.5938L13.8748 12.5392ZM42.2827 37.0129C41.2658 38.2963 39.7436 39.0324 38.1061 39.0324C35.6202 39.0324 33.487 37.3421 32.9186 34.922L32.3486 32.4953C32.2657 32.1423 31.9507 31.8927 31.5881 31.8927H18.4121C18.0494 31.8927 17.7344 32.1423 17.6515 32.4953L17.0815 34.922C16.5132 37.3421 14.38 39.0324 11.894 39.0324C10.2567 39.0324 8.73434 38.2963 7.71747 37.0129C6.70059 35.7295 6.33208 34.0792 6.70645 32.4852L9.42059 20.9291C9.85387 19.0844 10.9104 17.4203 12.3957 16.2435C13.8809 15.0667 15.7424 14.4187 17.6373 14.4187H20.6541V15.4764C20.6541 17.8727 22.6037 19.8224 25 19.8224C27.3964 19.8224 29.346 17.8727 29.346 15.4764V14.4187H32.3628C34.2577 14.4187 36.1193 15.0667 37.6044 16.2435C39.0896 17.4203 40.1462 19.0843 40.5795 20.9291L43.2937 32.4852C43.668 34.0792 43.2996 35.7295 42.2827 37.0129Z" fill="#052A75"/>
</g>
<defs>
<clipPath id="clip0_346_696">
<rect width="39.9995" height="39.9995" fill="white" transform="translate(5 5)"/>
</clipPath>
</defs>
</svg>
