<svg width="50" height="50" viewBox="0 0 50 50" fill="none" xmlns="http://www.w3.org/2000/svg">
<rect width="50" height="50" rx="12" fill="white"/>
<path d="M40.7646 16.4509H27.5881V21.3092H40.7646V16.4509Z" fill="#67CCD1"/>
<path d="M40.7646 16.451H27.5881L29.6643 12.6863H38.6884L40.7646 16.451Z" fill="white"/>
<path d="M37.4721 9.23535H30.8808C30.2089 9.23535 29.6643 9.77998 29.6643 10.4518V12.6863H38.6885V10.4518C38.6885 9.77998 38.1439 9.23535 37.4721 9.23535Z" fill="#67CCD1"/>
<path d="M19.392 26.5994L11.8289 28.6259L7.64389 13.0073C7.08429 10.9189 8.32366 8.7721 10.4121 8.2125C12.5006 7.65289 14.6473 8.89226 15.207 10.9807L19.392 26.5994Z" fill="#F7B073"/>
<path d="M17.972 21.3001L16.6727 16.4512H8.56665L9.86587 21.3001H17.972Z" fill="#FD8F01"/>
<path d="M24.3525 12.9541V5.78442H20.4702V12.9541C20.4702 14.1752 19.961 15.3531 19.0355 16.1497C17.9331 17.0986 17.2349 18.5038 17.2349 20.0726V21.3094H27.5878V20.0726C27.5878 18.5038 26.8896 17.0986 25.7872 16.1497C24.8617 15.353 24.3525 14.1752 24.3525 12.9541Z" fill="#DB4B86"/>
<path d="M25.7869 16.1497C24.8614 15.353 24.3523 14.1752 24.3523 12.9541V5.78442H20.4699V12.9541C20.4699 14.1752 19.9607 15.3531 19.0353 16.1497C18.9306 16.2398 18.8308 16.3353 18.7336 16.4334C18.7304 16.4393 18.7274 16.4453 18.7241 16.4511H26.0981C26.0949 16.4452 26.0919 16.4392 26.0886 16.4334C25.9914 16.3353 25.8916 16.2398 25.7869 16.1497Z" fill="#FDCB50"/>
<path d="M24.6754 5.78442H20.1467V9.2354H24.6754V5.78442Z" fill="#FDCB50"/>
<path d="M40.917 25.8689L39.5945 41.3421C39.4556 42.9672 38.0959 44.2157 36.4648 44.2157H13.5348C11.9037 44.2157 10.544 42.9672 10.4051 41.3421L9.08252 25.8689H40.917Z" fill="#B1D952"/>
<path d="M24.235 27.9203C24.235 27.2288 24.2671 26.545 24.3264 25.8689H9.08252L10.4051 41.3422C10.544 42.9674 11.9036 44.2158 13.5348 44.2158H30.941C26.7959 40.0317 24.235 34.2753 24.235 27.9203Z" fill="#91B706"/>
<path d="M42.4899 21.3H7.50952V25.8689H42.4899V21.3Z" fill="#D2DCFD"/>
<path d="M21.1953 21.7405C20.3989 21.0723 19.2116 21.1761 18.5434 21.9725L7.83692 34.7319C7.16869 35.5283 7.27253 36.7156 8.06892 37.3839C8.86532 38.0521 10.0526 37.9483 10.7208 37.1519L21.4273 24.3925C22.0955 23.596 21.9917 22.4087 21.1953 21.7405Z" fill="white"/>
<path d="M28.804 21.7405C29.6004 21.0723 30.7877 21.1761 31.456 21.9725L42.1624 34.7319C42.8306 35.5283 42.7268 36.7155 41.9304 37.3838C41.134 38.052 39.9467 37.9482 39.2785 37.1518L28.572 24.3924C27.9038 23.596 28.0076 22.4087 28.804 21.7405Z" fill="white"/>
<path d="M10.6366 13.0518C10.2562 12.8449 9.77983 12.9854 9.57285 13.3659L8.0061 16.2455L9.38399 16.9952L10.9507 14.1156C11.1577 13.7351 11.0171 13.2588 10.6366 13.0518Z" fill="#B55348"/>
<path d="M12.1493 17.9827C11.7689 17.7758 11.2925 17.9163 11.0856 18.2968L9.70947 20.8259L11.0874 21.5756L12.4634 19.0465C12.6704 18.666 12.5298 18.1897 12.1493 17.9827Z" fill="#B55348"/>
<path d="M15.7582 32.1104L14.1956 32.2471L14.9471 40.8365C14.9829 41.2449 15.3252 41.5525 15.7275 41.5525C15.7504 41.5525 15.7735 41.5515 15.7967 41.5495C16.2283 41.5118 16.5475 41.1313 16.5097 40.6998L15.7582 32.1104Z" fill="white"/>
<path d="M21.8676 29.0823C21.4344 29.0823 21.0833 29.4334 21.0833 29.8666V40.789C21.0833 41.2222 21.4344 41.5733 21.8676 41.5733C22.3007 41.5733 22.6519 41.2222 22.6519 40.789V29.8666C22.6519 29.4334 22.3007 29.0823 21.8676 29.0823Z" fill="white"/>
<path d="M28.1317 29.0823C27.6985 29.0823 27.3474 29.4334 27.3474 29.8666V40.789C27.3474 41.2222 27.6985 41.5733 28.1317 41.5733C28.5649 41.5733 28.916 41.2222 28.916 40.789V29.8666C28.916 29.4334 28.5649 29.0823 28.1317 29.0823Z" fill="white"/>
<path d="M34.2441 32.0789L33.4898 40.7C33.4521 41.1315 33.7713 41.5119 34.2028 41.5496C34.226 41.5516 34.2491 41.5527 34.272 41.5527C34.6743 41.5527 35.0167 41.2449 35.0525 40.8367L35.8068 32.2156L34.2441 32.0789Z" fill="white"/>
<path d="M42.7635 34.2277L41.1538 32.3093L41.6372 26.6532H42.49C42.9232 26.6532 43.2743 26.302 43.2743 25.8689V21.3C43.2743 20.8668 42.9232 20.5157 42.49 20.5157H41.5489V16.451C41.5489 16.3185 41.5153 16.1882 41.4514 16.0722L39.4727 12.4843V10.4518C39.4727 9.34855 38.5752 8.45098 37.472 8.45098H30.8806C29.7774 8.45098 28.8799 9.34855 28.8799 10.4518V12.4842L26.9012 16.0722C26.8915 16.0899 26.8838 16.1085 26.8755 16.1267C26.6972 15.9251 26.506 15.7332 26.2991 15.5551C25.5606 14.9195 25.1371 13.9713 25.1371 12.9539V9.86871C25.3326 9.72612 25.4602 9.49584 25.4602 9.23529V5.78431C25.4602 5.35114 25.1091 5 24.6759 5H20.1473C19.7141 5 19.363 5.35114 19.363 5.78431V9.23529C19.363 9.49584 19.4906 9.72612 19.6861 9.86871V12.9539C19.6861 13.9713 19.2626 14.9195 18.5241 15.5551C18.147 15.8798 17.8176 16.2475 17.5372 16.6461L15.9647 10.7776C15.6398 9.56518 14.8623 8.55184 13.7752 7.92424C12.6882 7.29663 11.4218 7.12988 10.2093 7.45475C7.70642 8.12541 6.21584 10.7072 6.88643 13.2101L8.84392 20.5156H7.50964C7.07646 20.5156 6.72533 20.8667 6.72533 21.2999V25.8688C6.72533 26.302 7.07646 26.6531 7.50964 26.6531H8.36243L8.84588 32.3093L7.23615 34.2276C6.77835 34.7733 6.56039 35.4646 6.62243 36.1741C6.68454 36.8837 7.01921 37.5267 7.56486 37.9846C8.06352 38.403 8.67176 38.6072 9.27686 38.6072C9.31254 38.6072 9.34823 38.6058 9.38392 38.6044L9.6236 41.4089C9.7076 42.3911 10.1537 43.2993 10.8799 43.966C11.6061 44.6328 12.5489 45 13.5348 45H36.4649C37.4507 45 38.3936 44.6328 39.1198 43.966C39.8459 43.2993 40.2921 42.3911 40.3761 41.4089L40.6158 38.6044C40.6514 38.6058 40.6871 38.6072 40.7228 38.6072C41.3278 38.6072 41.9361 38.4029 42.4348 37.9846C42.9805 37.5267 43.3152 36.8838 43.3772 36.1741C43.4393 35.4646 43.2213 34.7733 42.7635 34.2277ZM41.7057 22.0842V25.0845H35.0914L32.5739 22.0842H41.7057ZM40.0628 26.6532L39.7249 30.6065L36.4077 26.6532H40.0628ZM30.4485 10.4518C30.4485 10.2135 30.6424 10.0196 30.8806 10.0196H37.4719C37.7102 10.0196 37.904 10.2135 37.904 10.4518V11.902H30.4485V10.4518H30.4485ZM30.1274 13.4706H38.2252L39.4363 15.6667H28.9163L30.1274 13.4706ZM28.3724 17.2353H39.9802V20.5156H28.3724V17.2353ZM27.5831 22.0842C27.4613 22.3544 27.3844 22.646 27.3578 22.95C27.2957 23.6595 27.5136 24.3508 27.9715 24.8965L28.1293 25.0846H21.8704L22.0282 24.8965C22.486 24.3508 22.704 23.6595 22.642 22.95C22.6154 22.646 22.5384 22.3544 22.4166 22.0842H27.5831ZM20.9316 6.56863H23.8916V8.45098H20.9316V6.56863ZM18.0194 20.0725C18.0194 18.793 18.5764 17.5798 19.5474 16.744C20.6324 15.81 21.2547 14.4286 21.2547 12.954V10.0196H23.5685V12.954C23.5685 14.4285 24.1907 15.81 25.2758 16.744C26.2468 17.5798 26.8038 18.793 26.8038 20.0725V20.5156H18.0194V20.0725ZM8.40156 12.8042C7.95482 11.1367 8.94784 9.41671 10.6153 8.96988C12.2825 8.52298 14.0027 9.51616 14.4495 11.1836L16.5474 19.0131C16.4848 19.3601 16.4509 19.7141 16.4509 20.0725V20.5156H10.4679L8.40156 12.8042ZM8.29395 25.0846V22.0843H17.4257L14.9082 25.0846H8.29395ZM13.592 26.6532L10.2747 30.6065L9.93686 26.6532H13.592ZM10.1202 36.6476C9.93168 36.8722 9.6669 37.0101 9.37474 37.0356C9.08258 37.0611 8.79788 36.9714 8.57325 36.7829C8.34854 36.5944 8.21074 36.3296 8.18517 36.0375C8.1596 35.7453 8.24933 35.4607 8.43788 35.236L19.1443 22.4765C19.3612 22.2181 19.6727 22.0848 19.9863 22.0848C20.2354 22.0848 20.4859 22.1689 20.6912 22.3413C21.1551 22.7304 21.2158 23.4244 20.8266 23.8882L10.1202 36.6476ZM38.8131 41.2753C38.7081 42.5045 37.6986 43.4314 36.4649 43.4314H13.5348C12.3012 43.4314 11.2917 42.5045 11.1867 41.2753L10.911 38.0503C11.0587 37.9358 11.1969 37.8047 11.3218 37.6558L20.5542 26.6531H29.4456L38.678 37.6558C38.8029 37.8047 38.941 37.9358 39.0888 38.0503L38.8131 41.2753ZM41.8146 36.0375C41.789 36.3297 41.6512 36.5944 41.4265 36.7829C41.2018 36.9715 40.9172 37.0613 40.625 37.0356C40.3328 37.01 40.0681 36.8722 39.8796 36.6476L29.1731 23.8882C28.7839 23.4243 28.8446 22.7304 29.3085 22.3412C29.5138 22.1689 29.7642 22.0847 30.0134 22.0847C30.327 22.0847 30.6386 22.218 30.8554 22.4765L41.5618 35.2359C41.7503 35.4606 41.8401 35.7453 41.8146 36.0375Z" fill="#052A75"/>
</svg>
