<svg width="50" height="50" viewBox="0 0 50 50" fill="none" xmlns="http://www.w3.org/2000/svg">
<rect width="50" height="50" rx="12" fill="white"/>
<g clip-path="url(#clip0_346_1467)">
<path d="M43.2763 23.6047C41.5434 23.6047 40.1386 25.0096 40.1386 26.7425V29.8407C40.1386 30.2978 39.9851 30.7391 39.7068 31.0957L39.0516 30.4405C37.8262 29.2151 35.8395 29.2151 34.6141 30.4405L29.8644 35.1902C28.5405 36.5142 27.7966 38.3099 27.7966 40.1823V44.2186H35.37V41.2236L42.4259 34.1677C43.5735 33.0202 44.2182 31.4636 44.2182 29.8407V23.6047H43.2763Z" fill="#FDE0BE"/>
<path d="M22.2023 44.2186V40.1823C22.2023 38.3099 21.4585 36.5142 20.1345 35.1902L15.3848 30.4405C14.1594 29.2151 12.1727 29.2151 10.9473 30.4405L10.2922 31.0957C10.0138 30.739 9.86037 30.2978 9.86037 29.8407V26.7425C9.86037 25.0095 8.45553 23.6047 6.72264 23.6047H5.78076V29.8407C5.78076 31.4636 6.42545 33.0202 7.57311 34.1678L14.629 41.2236V44.2186H22.2023Z" fill="#FDE0BE"/>
<path d="M28.3134 37.5343C27.976 38.3679 27.7966 39.2657 27.7966 40.1824V44.2188H35.37V41.2237L42.4259 34.1678C43.4579 33.1359 44.0814 31.7729 44.1969 30.3286C39.8905 34.2273 34.392 36.8333 28.3134 37.5343Z" fill="#F7B073"/>
<path d="M21.6856 37.5343C15.6069 36.8333 10.1084 34.2273 5.802 30.3286C5.91755 31.7729 6.54106 33.1358 7.5731 34.1678L14.629 41.2237V44.2188H22.2023V40.1824C22.2023 39.2657 22.0229 38.3679 21.6856 37.5343Z" fill="#F7B073"/>
<path d="M37.3407 20.6942C43.0671 15.5455 39.609 5.95734 31.9102 5.78398C31.8298 5.78219 31.7492 5.78125 31.6683 5.78125C29.1378 5.78125 26.8161 6.67398 24.9995 8.16062C23.1828 6.67398 20.8612 5.78125 18.3306 5.78125C18.2498 5.78125 18.1692 5.78219 18.0888 5.78398C10.3899 5.95734 6.93174 15.5454 12.6582 20.6942L24.9995 31.7905L37.3407 20.6942Z" fill="#FD6050"/>
<path d="M19.431 14.2903C19.431 11.3761 20.2073 8.6432 21.5645 6.28711C20.5456 5.95875 19.4588 5.78125 18.3306 5.78125C18.2498 5.78125 18.1692 5.78219 18.0888 5.78398C10.3899 5.95734 6.93174 15.5455 12.6582 20.6942L24.9995 31.7905L28.422 28.7134C23.0967 26.0993 19.431 20.6229 19.431 14.2903Z" fill="#DB4B86"/>
<path d="M26.8744 24.8213C26.5365 24.8213 26.2369 24.604 26.1318 24.2828L23.1253 15.0897L21.9933 18.551C21.8882 18.8722 21.5886 19.0895 21.2507 19.0895H10.7798V17.527H20.6842L22.3827 12.3336C22.4878 12.0124 22.7874 11.7952 23.1253 11.7952C23.4631 11.7952 23.7628 12.0124 23.8678 12.3336L26.8744 21.5267L28.0063 18.0654C28.1114 17.7442 28.411 17.527 28.7489 17.527H39.2199V19.0895H29.3154L27.617 24.2829C27.5119 24.6041 27.2123 24.8213 26.8744 24.8213Z" fill="white"/>
<path d="M44.2184 22.8235H43.2766C41.1156 22.8235 39.3576 24.5815 39.3576 26.7425V29.6613C38.652 29.0651 37.7675 28.7403 36.8331 28.7403C35.7864 28.7403 34.8021 29.1479 34.062 29.8882L29.3123 34.6378C27.8313 36.1189 27.0156 38.0879 27.0156 40.1824V44.2187C27.0156 44.6502 27.3655 45 27.7969 45H35.3702C35.8016 45 36.1515 44.6502 36.1515 44.2187V41.5472L42.9785 34.7202C44.2819 33.4168 44.9997 31.684 44.9997 29.8407V23.6047C44.9997 23.1733 44.6498 22.8235 44.2184 22.8235ZM43.4372 29.8407C43.4372 31.2665 42.882 32.6071 41.8736 33.6153L34.8178 40.6711C34.6713 40.8176 34.589 41.0164 34.589 41.2236V43.4375H28.5781V40.1824C28.5781 38.5054 29.2313 36.9286 30.4172 35.7427L35.1669 30.993C35.612 30.5479 36.2037 30.3029 36.8331 30.3029C37.4626 30.3029 38.0543 30.548 38.4995 30.9931L38.613 31.1067L34.8596 34.86C34.5545 35.1651 34.5545 35.6598 34.8596 35.965C35.1648 36.27 35.6593 36.27 35.9645 35.965L40.0938 31.8357C40.6266 31.3029 40.9201 30.5943 40.9201 29.8408V26.7426C40.9201 25.4433 41.9772 24.3861 43.2766 24.3861H43.4372V29.8407Z" fill="#052A75"/>
<path d="M15.9375 29.8882C15.1973 29.1479 14.2132 28.7403 13.1663 28.7403C12.2319 28.7403 11.3475 29.0651 10.6419 29.6613V26.7425C10.6419 24.5815 8.88382 22.8235 6.72288 22.8235H5.78101C5.3496 22.8235 4.99976 23.1733 4.99976 23.6047V29.8407C4.99976 31.6839 5.71757 33.4168 7.02093 34.7202L13.848 41.5472V44.2187C13.848 44.6502 14.1978 45 14.6292 45H22.2026C22.634 45 22.9838 44.6502 22.9838 44.2187V40.1824C22.9838 38.0879 22.1682 36.1189 20.6872 34.6378L15.9375 29.8882ZM21.4213 43.4375H15.4105V41.2236C15.4105 41.0165 15.3281 40.8177 15.1816 40.6712L8.12585 33.6154C7.11749 32.6071 6.56226 31.2665 6.56226 29.8407V24.386H6.72288C8.02226 24.386 9.07937 25.4431 9.07937 26.7425V29.8407C9.07937 30.5942 9.3728 31.3026 9.90561 31.8355L14.0349 35.9648C14.3401 36.2699 14.8346 36.2699 15.1398 35.9648C15.4449 35.6597 15.4449 35.165 15.1398 34.8599L11.3865 31.1066L11.5001 30.993C11.9451 30.5479 12.5369 30.3028 13.1663 30.3028C13.7958 30.3028 14.3875 30.5479 14.8326 30.993L19.5823 35.7427C20.7682 36.9286 21.4213 38.5054 21.4213 40.1824V43.4375Z" fill="#052A75"/>
<path d="M40.761 16.3527C41.1435 14.5989 41.0088 12.7634 40.3719 11.0447C39.023 7.40484 35.7876 5.08984 31.928 5.00289C31.8417 5.00102 31.7553 5 31.6687 5C29.2724 5 26.9278 5.76805 24.9999 7.17367C23.0719 5.76805 20.7274 5 18.331 5C18.2445 5 18.158 5.00102 18.0716 5.00289C14.2122 5.08984 10.9768 7.40484 9.62791 11.0446C8.99096 12.7634 8.85635 14.5989 9.23877 16.3527C9.64987 18.2381 10.6518 19.9402 12.1363 21.2751L24.4776 32.3714C24.6261 32.5049 24.8131 32.5717 25 32.5717C25.187 32.5717 25.3738 32.505 25.5224 32.3714L37.8637 21.2751C39.348 19.9403 40.3499 18.2382 40.761 16.3527ZM36.8188 20.1133L24.9999 30.7399L13.181 20.1133C10.2789 17.5039 10.1996 13.9983 11.0929 11.5876C12.2143 8.56172 14.9018 6.63719 18.1065 6.565C18.1811 6.56336 18.256 6.5625 18.331 6.5625C20.5767 6.5625 22.7693 7.34477 24.505 8.76523C24.7928 9.00078 25.2067 9.00078 25.4946 8.76523C27.2304 7.34477 29.423 6.5625 31.6687 6.5625C31.7437 6.5625 31.8185 6.56336 31.8929 6.565C35.0978 6.63719 37.7854 8.56172 38.9067 11.5876C39.8002 13.9983 39.7208 17.5039 36.8188 20.1133Z" fill="#052A75"/>
</g>
<defs>
<clipPath id="clip0_346_1467">
<rect width="40" height="40" fill="white" transform="translate(5 5)"/>
</clipPath>
</defs>
</svg>
