<svg width="50" height="50" viewBox="0 0 50 50" fill="none" xmlns="http://www.w3.org/2000/svg">
<rect width="50" height="50" rx="12" fill="white"/>
<g clip-path="url(#clip0_346_11)">
<path d="M39.6462 17.3012C39.122 17.2303 38.615 17.2571 38.1362 17.3604C38.1782 17.0812 38.2002 16.7955 38.2002 16.5046C38.2002 13.3485 35.6416 10.7899 32.4855 10.7899C32.0111 10.7899 31.5504 10.8488 31.1097 10.9577C29.383 7.86961 26.0817 5.78125 22.2921 5.78125C13.401 5.78125 12.2171 14.7496 12.196 14.7496C9.07185 14.7496 6.54396 17.3025 6.58459 20.436C6.62459 23.5199 9.19545 25.9734 12.2796 25.9734H39.059C41.5342 25.9734 43.5272 23.9088 43.4099 21.4077C43.3122 19.3248 41.7125 17.5811 39.6462 17.3012Z" fill="#67CCD1"/>
<path d="M18.643 13.3722C18.643 10.6221 19.4215 8.05424 20.7692 5.87549C13.2631 6.82924 12.2156 14.7496 12.1958 14.7496C9.07161 14.7496 6.54372 17.3024 6.58435 20.436C6.62435 23.5199 9.1952 25.9733 12.2793 25.9733H26.2093C21.7075 23.5724 18.643 18.8305 18.643 13.3722Z" fill="#27A2CC"/>
<path d="M39.7162 25.9235C41.1731 25.7029 42.3922 24.7605 42.9996 23.4724C42.0323 24.4382 40.9272 25.2659 39.7162 25.9235Z" fill="#27A2CC"/>
<path d="M19.0545 30.2648L15.7703 34.7411C15.4873 35.1268 15.7627 35.6705 16.2411 35.6705C16.5636 35.6705 16.825 35.9319 16.825 36.2544V43.6348C16.825 43.9573 17.0864 44.2187 17.4089 44.2187H21.6417C21.9642 44.2187 22.2256 43.9573 22.2256 43.6348V36.2544C22.2256 35.9319 22.487 35.6705 22.8095 35.6705C23.2879 35.6705 23.5633 35.1268 23.2803 34.7411L19.9961 30.2648C19.7628 29.9469 19.2878 29.9469 19.0545 30.2648Z" fill="#B1D952"/>
<path d="M30.9441 43.9803L34.2283 39.5039C34.5113 39.1182 34.2359 38.5746 33.7575 38.5746C33.435 38.5746 33.1736 38.3132 33.1736 37.9907V30.6103C33.1736 30.2878 32.9122 30.0264 32.5897 30.0264H28.3569C28.0344 30.0264 27.773 30.2878 27.773 30.6103V37.9907C27.773 38.3132 27.5116 38.5746 27.1891 38.5746C26.7107 38.5746 26.4353 39.1182 26.7183 39.5039L30.0025 43.9802C30.2358 44.2983 30.7108 44.2983 30.9441 43.9803Z" fill="#FD6050"/>
<path d="M44.1905 21.371C44.0744 18.8968 42.2073 16.8596 39.7511 16.5271C39.495 16.4924 39.238 16.4773 38.9815 16.4809C38.9688 12.9099 36.0597 10.0087 32.4858 10.0087C32.1558 10.0087 31.8258 10.034 31.4992 10.0841C29.5138 6.93414 26.037 5 22.2922 5C18.5239 5 15.4748 6.56125 13.475 9.515C12.3317 11.2034 11.7916 12.9662 11.553 14.0001C10.0736 14.1466 8.70498 14.7978 7.64615 15.8705C6.43569 17.0969 5.78131 18.7219 5.80365 20.4461C5.84873 23.9246 8.75397 26.7546 12.2799 26.7546H39.0591C40.477 26.7546 41.7972 26.1895 42.7763 25.1634C43.7549 24.1377 44.2572 22.7909 44.1905 21.371ZM41.6458 24.0847C40.9644 24.7988 40.0458 25.1921 39.0591 25.1921H12.2798C9.60436 25.1921 7.40006 23.054 7.366 20.4259C7.34905 19.1227 7.8435 17.8948 8.75819 16.9681C9.67303 16.0413 10.894 15.5309 12.1962 15.5309C12.263 15.5309 12.8537 15.5112 12.9762 14.832C13.1087 14.097 13.5487 12.1929 14.7687 10.391C16.4889 7.85063 19.0201 6.5625 22.2922 6.5625C25.6631 6.5625 28.7806 8.39281 30.428 11.3391C30.5997 11.6462 30.956 11.8007 31.2973 11.7163C31.6865 11.6201 32.0864 11.5712 32.4858 11.5712C35.206 11.5712 37.4191 13.7844 37.4191 16.5047C37.4191 16.7507 37.4005 16.9996 37.3637 17.2446C37.3257 17.4984 37.4147 17.7547 37.6019 17.9302C37.789 18.1058 38.0505 18.1783 38.3012 18.1241C38.7102 18.0359 39.1275 18.0194 39.5414 18.0755C41.2226 18.3031 42.5503 19.7513 42.6297 21.4443C42.6762 22.4334 42.3267 23.3711 41.6458 24.0847Z" fill="#052A75"/>
<path d="M20.6262 29.8028C20.37 29.4536 19.9585 29.2451 19.5255 29.2451C19.0924 29.2451 18.681 29.4536 18.4248 29.8028L15.1406 34.279C14.8345 34.6961 14.7896 35.242 15.0235 35.7035C15.2271 36.1055 15.6074 36.3748 16.0439 36.4376V43.6347C16.0439 44.3875 16.6564 44.9999 17.4092 44.9999H21.642C22.3947 44.9999 23.0071 44.3875 23.0071 43.6347V36.4376C23.4437 36.3748 23.8239 36.1055 24.0276 35.7036C24.2614 35.242 24.2167 34.6961 23.9106 34.2789L20.6262 29.8028ZM19.6846 30.7271C19.6845 30.7272 19.6842 30.7275 19.6841 30.7277L19.6846 30.7271ZM21.4446 36.2544V43.4375H17.6064V36.2544C17.6064 35.6245 17.1776 35.0928 16.5964 34.9361L19.5255 30.9439L22.4546 34.9361C21.8735 35.0928 21.4446 35.6245 21.4446 36.2544Z" fill="#052A75"/>
<path d="M33.9551 37.8075V30.6103C33.9551 29.8575 33.3427 29.2451 32.59 29.2451H28.3572C27.6044 29.2451 26.9919 29.8575 26.9919 30.6103V37.8075C26.5554 37.8703 26.1751 38.1396 25.9715 38.5416C25.7376 39.0031 25.7825 39.5489 26.0886 39.9661L29.3728 44.4424C29.6289 44.7915 30.0404 45 30.4733 45H30.4735C30.9065 45 31.3179 44.7915 31.5741 44.4425L31.5742 44.4424L34.8584 39.9661C35.1645 39.5489 35.2094 39.0031 34.9755 38.5416C34.772 38.1396 34.3917 37.8702 33.9551 37.8075ZM30.4736 43.3012L27.5445 39.3089C28.1256 39.1522 28.5545 38.6206 28.5545 37.9906V30.8075H32.3926V37.9906C32.3926 38.6205 32.8215 39.1522 33.4027 39.3089L30.4736 43.3012Z" fill="#052A75"/>
<path d="M28.3997 22.098C28.1997 22.098 27.9998 22.0217 27.8472 21.8691C27.0866 21.1085 26.0752 20.6895 24.9995 20.6895C23.9237 20.6895 22.9124 21.1084 22.1518 21.8691C21.8467 22.1741 21.3522 22.1742 21.0469 21.8691C20.7418 21.564 20.7418 21.0693 21.0469 20.7642C22.1027 19.7084 23.5063 19.127 24.9995 19.127C26.4925 19.127 27.8963 19.7084 28.9522 20.7641C29.2572 21.0692 29.2572 21.5639 28.9522 21.869C28.7995 22.0216 28.5997 22.098 28.3997 22.098Z" fill="white"/>
<path d="M31.1187 19.3788C30.9187 19.3788 30.7189 19.3026 30.5663 19.15C29.0794 17.6631 27.1024 16.8442 24.9996 16.8442C22.8968 16.8442 20.9198 17.6631 19.4329 19.15C19.1277 19.4551 18.6332 19.4551 18.3279 19.15C18.0229 18.8449 18.0229 18.3503 18.3279 18.0452C20.1101 16.2631 22.4795 15.2817 24.9995 15.2817C27.5197 15.2817 29.889 16.2631 31.6711 18.0452C31.9761 18.3503 31.9761 18.8449 31.6711 19.1501C31.5186 19.3026 31.3186 19.3788 31.1187 19.3788Z" fill="white"/>
</g>
<defs>
<clipPath id="clip0_346_11">
<rect width="40" height="40" fill="white" transform="translate(5 5)"/>
</clipPath>
</defs>
</svg>
