<svg width="50" height="50" viewBox="0 0 50 50" fill="none" xmlns="http://www.w3.org/2000/svg">
<rect width="50" height="50" rx="12" fill="white"/>
<g clip-path="url(#clip0_346_473)">
<path d="M40.0143 22.3448H35.5861V16.2531C35.5861 15.508 36.19 14.9041 36.9351 14.9041H38.6651C39.4102 14.9041 40.0142 15.508 40.0142 16.2531V22.3448H40.0143Z" fill="#FDBEB9"/>
<path d="M40.8815 24.1845V44.2187H14.9485V24.3831L27.9151 16.8086L40.8815 24.1845Z" fill="white"/>
<path d="M20.4168 29.3143C20.4168 25.8489 21.3058 22.5913 22.868 19.7568L14.9485 24.3832V44.2186H27.1672C23.029 40.5846 20.4168 35.2544 20.4168 29.3143Z" fill="#D2DCFD"/>
<path d="M41.6148 27.5994C41.181 27.5994 40.7432 27.4685 40.3644 27.1967L27.9151 18.2641L15.4659 27.1966C14.5062 27.8854 13.1676 27.669 12.4759 26.7134C11.7843 25.758 12.0016 24.4252 12.9613 23.7366L26.6629 13.9055C27.4108 13.3688 28.4196 13.3688 29.1675 13.9055L42.8691 23.7366C43.8287 24.4252 44.0461 25.758 43.3544 26.7134C42.9358 27.2917 42.28 27.5993 41.6148 27.5994Z" fill="#FD6050"/>
<path d="M23.0938 16.4661L12.9609 23.7365C12.0013 24.4251 11.7839 25.7579 12.4756 26.7133C13.1672 27.669 14.5058 27.8853 15.4656 27.1965L18.7195 24.8618C19.4267 21.6714 20.9642 18.7933 23.0938 16.4661Z" fill="#DB4B86"/>
<path d="M25.9494 32.3999H18.6884V38.3157H25.9494V32.3999Z" fill="#67CCD1"/>
<path d="M20.6554 32.3999H18.6884V38.3157H22.5728C21.6407 36.4892 20.9834 34.4991 20.6554 32.3999Z" fill="#27A2CC"/>
<path d="M13.9902 21.1756C18.2696 21.1756 21.7387 17.7295 21.7387 13.4784C21.7387 9.2274 18.2696 5.78125 13.9902 5.78125C9.71083 5.78125 6.2417 9.2274 6.2417 13.4784C6.2417 17.7295 9.71083 21.1756 13.9902 21.1756Z" fill="#FDCB50"/>
<path d="M17.9207 19.1952C13.6413 19.1952 10.1722 15.749 10.1722 11.4979C10.1722 9.2952 11.1037 7.30856 12.5966 5.90552C8.98249 6.55763 6.24194 9.70013 6.24194 13.4785C6.24194 17.7295 9.71108 21.1757 13.9905 21.1757C16.0524 21.1757 17.9262 20.3756 19.3146 19.0708C18.8624 19.1525 18.3966 19.1952 17.9207 19.1952Z" fill="#FD8F01"/>
<path d="M37.1416 32.3999H29.7805V44.2188H37.1416V32.3999Z" fill="#FDBEB9"/>
<path d="M27.915 28.7488C29.3942 28.7488 30.5932 27.555 30.5932 26.0824C30.5932 24.6098 29.3942 23.416 27.915 23.416C26.4359 23.416 25.2368 24.6098 25.2368 26.0824C25.2368 27.555 26.4359 28.7488 27.915 28.7488Z" fill="#BC9AF4"/>
<path d="M15.4512 40.7801C15.488 40.6024 15.5075 40.4183 15.5075 40.2297C15.5075 38.7396 14.2996 37.5317 12.8095 37.5317C11.3194 37.5317 10.1116 38.7396 10.1116 40.2297C10.1116 40.3818 10.1241 40.531 10.1484 40.6763H9.26242C8.28414 40.6763 7.49109 41.4693 7.49109 42.4476C7.49109 43.4259 8.28414 44.2188 9.26242 44.2188H14.8523C15.8306 44.2188 16.6237 43.4258 16.6237 42.4476C16.6237 41.6795 16.1348 41.0256 15.4512 40.7801Z" fill="#27A2CC"/>
<path d="M14.768 12.8103C14.1039 12.5772 13.6576 12.403 13.5099 12.3337C13.2696 12.2212 13.2475 12.0883 13.2551 11.9851C13.2677 11.8149 13.3902 11.6429 13.5282 11.6016C14.1623 11.4119 14.5503 11.609 14.6388 11.7344C14.8878 12.0868 15.3753 12.1706 15.7277 11.9216C16.0801 11.6726 16.1639 11.1851 15.9149 10.8326C15.6655 10.4796 15.2389 10.1775 14.688 10.0398C14.6352 9.65968 14.3089 9.36694 13.9142 9.36694C13.5028 9.36694 13.1657 9.68499 13.1353 10.0886C13.117 10.0937 13.0986 10.0991 13.0803 10.1046C12.3257 10.3304 11.7568 11.0564 11.6968 11.8701C11.637 12.681 12.067 13.3832 12.847 13.7487C13.0807 13.8581 13.5923 14.0535 14.2503 14.2845C14.706 14.4445 14.9107 14.7969 14.8771 15.0622C14.8355 15.3918 14.4368 15.475 14.2029 15.4953C13.7594 15.5335 13.178 15.4094 12.925 15.0974C12.6532 14.7623 12.1612 14.7109 11.8262 14.9826C11.491 15.2544 11.4397 15.7464 11.7114 16.0816C12.0858 16.5432 12.6142 16.8133 13.1459 16.9499C13.2124 17.3139 13.5311 17.5898 13.9143 17.5898C14.2782 17.5898 14.5839 17.341 14.6708 17.0044C15.6392 16.8091 16.3149 16.1494 16.4274 15.2577C16.5602 14.2065 15.8778 13.2 14.768 12.8103Z" fill="white"/>
<path d="M44.5017 25.0012C44.3768 24.2317 43.9585 23.5573 43.3238 23.1019L40.7951 21.2875V16.2531C40.7951 15.0785 39.8395 14.1228 38.6648 14.1228H36.9347C35.76 14.1228 34.8044 15.0784 34.8044 16.2531V16.989L29.6223 13.2707C28.6008 12.5376 27.2282 12.5377 26.2068 13.2706L22.0508 16.2526C22.3546 15.383 22.5197 14.4495 22.5197 13.4784C22.5197 8.80344 18.6933 5 13.99 5C9.28669 5 5.46021 8.80344 5.46021 13.4784C5.46021 18.1534 9.28669 21.9569 13.99 21.9569C14.0273 21.9569 14.0647 21.9566 14.1018 21.9562L12.5053 23.1018C11.8706 23.5572 11.4522 24.2318 11.3274 25.0012C11.2027 25.7696 11.3857 26.5403 11.8425 27.1713C12.4024 27.9449 13.2759 28.3634 14.1668 28.3786V37.0261C13.7494 36.8485 13.2905 36.7502 12.8091 36.7502C11.0036 36.7502 9.51481 38.1328 9.34583 39.8948H9.262C7.8545 39.8948 6.7095 41.0398 6.7095 42.4473C6.7095 43.8548 7.85458 45 9.262 45H14.8519C14.8728 45 14.8936 44.9998 14.9143 44.9992C14.9254 44.9997 14.9367 45 14.9479 45H40.881C41.3125 45 41.6622 44.6502 41.6622 44.2188V28.3801C42.582 28.3648 43.448 27.9155 43.9865 27.1715C44.4435 26.5403 44.6265 25.7696 44.5017 25.0012ZM7.02271 13.4784C7.02271 9.665 10.1482 6.5625 13.99 6.5625C17.8318 6.5625 20.9572 9.665 20.9572 13.4784C20.9572 17.2919 17.8318 20.3944 13.99 20.3944C10.1482 20.3944 7.02271 17.292 7.02271 13.4784ZM36.367 16.2531C36.367 15.94 36.6217 15.6853 36.9348 15.6853H38.6649C38.978 15.6853 39.2327 15.94 39.2327 16.2531V20.1663L36.367 18.1102V16.2531ZM8.272 42.4474C8.272 41.9016 8.71614 41.4574 9.262 41.4574H10.1479C10.3775 41.4574 10.5954 41.3564 10.744 41.1813C10.8924 41.006 10.9562 40.7744 10.9185 40.5479C10.9011 40.4436 10.8923 40.3366 10.8923 40.2296C10.8923 39.1727 11.7522 38.3129 12.809 38.3129C13.8659 38.3129 14.7258 39.1727 14.7258 40.2296C14.7258 40.3617 14.7123 40.4936 14.6858 40.6215C14.6068 41.0027 14.8204 41.3838 15.1867 41.5153C15.5786 41.6561 15.842 42.0307 15.842 42.4475C15.842 42.9934 15.3979 43.4376 14.8519 43.4376H9.262C8.71606 43.4375 8.272 42.9934 8.272 42.4474ZM36.3598 43.4375H30.5612V33.1811H36.3598V43.4375ZM37.9223 43.4375V32.3998C37.9223 31.9684 37.5725 31.6186 37.1411 31.6186H29.78C29.3485 31.6186 28.9987 31.9684 28.9987 32.3998V43.4375H17.2047C17.3333 43.1329 17.4045 42.7984 17.4045 42.4474C17.4045 41.5914 16.9733 40.8044 16.2866 40.3363C16.2877 40.3008 16.2883 40.2652 16.2883 40.2296C16.2883 39.5335 16.0827 38.8845 15.7292 38.3401V27.9577C15.7941 27.9184 15.858 27.8763 15.9207 27.8313L27.9145 19.2256L39.9083 27.8312C39.9708 27.8761 40.0347 27.9184 40.0998 27.9579V43.4375H37.9223ZM42.7209 26.2552C42.4659 26.6076 42.0522 26.8179 41.6142 26.818C41.3276 26.818 41.0527 26.7294 40.8192 26.5618L28.37 17.6293C28.2339 17.5316 28.0742 17.4828 27.9145 17.4828C27.7548 17.4828 27.5952 17.5316 27.459 17.6293L15.0098 26.5619C14.4003 26.9991 13.5472 26.8617 13.1082 26.2552C12.8968 25.9632 12.8121 25.6067 12.8697 25.2516C12.9275 24.8952 13.1216 24.5827 13.4162 24.3713L27.1178 14.54C27.5944 14.198 28.2347 14.198 28.7115 14.5401L42.413 24.3713C42.7075 24.5826 42.9016 24.8952 42.9595 25.2516C43.0171 25.6068 42.9324 25.9631 42.7209 26.2552Z" fill="#052A75"/>
<path d="M25.9491 31.6187H18.6881C18.2566 31.6187 17.9069 31.9685 17.9069 32.3999V38.3157C17.9069 38.7471 18.2566 39.0969 18.6881 39.0969H25.9491C26.3806 39.0969 26.7304 38.7471 26.7304 38.3157V32.3999C26.7304 31.9684 26.3806 31.6187 25.9491 31.6187ZM25.1679 37.5344H19.4694V33.1811H25.1679V37.5344Z" fill="#052A75"/>
<path d="M27.9148 22.6348C26.0072 22.6348 24.4553 24.1814 24.4553 26.0824C24.4553 27.9835 26.0072 29.5302 27.9148 29.5302C29.8223 29.5302 31.3742 27.9835 31.3742 26.0824C31.3742 24.1814 29.8223 22.6348 27.9148 22.6348ZM27.9148 27.9676C26.8688 27.9676 26.0178 27.1219 26.0178 26.0823C26.0178 25.0428 26.8688 24.1972 27.9148 24.1972C28.9607 24.1972 29.8117 25.0428 29.8117 26.0823C29.8117 27.1219 28.9607 27.9676 27.9148 27.9676Z" fill="#052A75"/>
</g>
<defs>
<clipPath id="clip0_346_473">
<rect width="40" height="40" fill="white" transform="translate(5 5)"/>
</clipPath>
</defs>
</svg>
