<svg width="50" height="50" viewBox="0 0 50 50" fill="none" xmlns="http://www.w3.org/2000/svg">
<rect width="50" height="50" rx="12" fill="white"/>
<g clip-path="url(#clip0_346_1348)">
<path d="M9.21826 5.85938H5.78076V44.1406H9.21826V5.85938Z" fill="#D46B5C"/>
<path d="M28.3586 40.7031C37.0312 40.7031 44.0618 35.1592 44.0618 28.3203C44.0618 21.4815 37.0312 15.9375 28.3586 15.9375C19.686 15.9375 12.6555 21.4815 12.6555 28.3203C12.6555 35.1592 19.686 40.7031 28.3586 40.7031Z" fill="#FDCB50"/>
<path d="M39.157 33.0933C29.7824 33.0933 21.9054 26.681 19.673 18.0032C15.4433 20.2218 12.6553 24.014 12.6553 28.3202C12.6553 35.159 19.6858 40.703 28.3584 40.703C35.0671 40.703 40.7921 37.3852 43.0414 32.7172C41.7845 32.9632 40.486 33.0933 39.157 33.0933Z" fill="#FD8F01"/>
<path d="M25.1012 22.5916L25.4716 22.9619C25.9692 23.4595 26.2562 24.0877 26.3332 24.7362C26.4134 25.4116 26.7159 26.0411 27.1969 26.522L34.2173 33.5425C34.8885 34.2137 34.8885 35.3019 34.2173 35.9732C33.5461 36.6444 32.4579 36.6444 31.7866 35.9732L24.7662 28.9527C24.2852 28.4718 23.6558 28.1691 22.9803 28.0891C22.3318 28.0121 21.7036 27.7251 21.206 27.2274L20.8357 26.8571L25.1012 22.5916Z" fill="#D2DCFD"/>
<path d="M36.6308 21.8419C35.4529 20.664 33.5432 20.664 32.3653 21.8419L31.2456 22.9616C30.748 23.4593 30.4609 24.0875 30.384 24.7359C30.3038 25.4114 30.0012 26.0408 29.5203 26.5218L22.4998 33.5422C21.8287 34.2135 21.8287 35.3017 22.4998 35.9729C23.1711 36.6441 24.2593 36.6441 24.9305 35.9729L31.951 28.9525C32.4319 28.4715 33.0614 28.1689 33.7369 28.0888C34.3854 28.0118 35.0136 27.7248 35.5112 27.2271L36.6309 26.1075C37.8087 24.9296 37.8087 23.0198 36.6308 21.8419Z" fill="white"/>
<path d="M39.9466 18.9509C38.8605 18.0945 37.6501 17.3732 36.3485 16.7968V10.0782H40.373C40.89 10.0782 41.3105 10.4987 41.3105 11.0157C41.3105 11.5327 40.89 11.9532 40.373 11.9532C40.1226 11.9532 39.8872 11.8557 39.7101 11.6786C39.4049 11.3735 38.9102 11.3735 38.6052 11.6786C38.3001 11.9837 38.3001 12.4784 38.6052 12.7834C39.0774 13.2556 39.7052 13.5156 40.373 13.5156C41.7515 13.5156 42.873 12.3941 42.873 11.0156C42.873 10.6841 42.8076 10.3678 42.6899 10.0781H44.0623C44.4937 10.0781 44.8435 9.72836 44.8435 9.29688C44.8435 8.86539 44.4937 8.51562 44.0623 8.51562H38.8536C38.9712 8.22594 39.0366 7.90961 39.0366 7.57812C39.0366 6.19961 37.9151 5.07812 36.5366 5.07812C35.8689 5.07812 35.2411 5.3382 34.7688 5.81039C34.4637 6.11547 34.4637 6.61016 34.7688 6.91531C35.0739 7.22039 35.5686 7.22039 35.8737 6.91531C36.0508 6.7382 36.2862 6.6407 36.5366 6.6407C37.0536 6.6407 37.4741 7.06125 37.4741 7.5782C37.4741 8.09516 37.0536 8.5157 36.5366 8.5157H9.99976V5.85945C9.99976 5.42797 9.64999 5.0782 9.21851 5.0782H5.78101C5.34952 5.0782 4.99976 5.42797 4.99976 5.85945V44.1407C4.99976 44.5722 5.34952 44.922 5.78101 44.922H9.21851C9.64999 44.922 9.99976 44.5722 9.99976 44.1407V10.0782H20.3698V16.7968C19.0682 17.3733 17.8577 18.0945 16.7716 18.9509C13.6138 21.441 11.8748 24.7685 11.8748 28.3204C11.8748 31.8723 13.6138 35.1998 16.7716 37.6898C19.8748 40.1368 23.9899 41.4845 28.3591 41.4845C32.7283 41.4845 36.8435 40.1368 39.9466 37.6898C43.1044 35.1998 44.8435 31.8723 44.8435 28.3204C44.8435 24.7685 43.1044 21.441 39.9466 18.9509ZM8.43726 43.3595H6.56226V6.6407H8.43726V43.3595ZM21.9323 10.0782H34.786V16.1897C32.779 15.5126 30.6028 15.1563 28.3591 15.1563C26.1155 15.1563 23.9393 15.5126 21.9323 16.1897V10.0782ZM28.3591 39.922C20.1312 39.922 13.4373 34.7175 13.4373 28.3204C13.4373 21.9233 20.1312 16.7188 28.3591 16.7188C36.5871 16.7188 43.281 21.9233 43.281 28.3204C43.281 34.7175 36.5871 39.922 28.3591 39.922Z" fill="#052A75"/>
<path d="M31.8132 21.2895L30.6934 22.4092C30.0848 23.0178 29.7097 23.7906 29.6084 24.6439C29.5489 25.1452 29.3215 25.6159 28.9681 25.9694L28.3589 26.5786L27.7496 25.9693C27.3961 25.6159 27.1687 25.1452 27.1092 24.6439C27.0079 23.7905 26.6328 23.0178 26.0242 22.4092L23.4056 19.7906C23.1005 19.4855 22.6058 19.4855 22.3008 19.7906C21.9957 20.0957 21.9956 20.5903 22.3008 20.8954L23.9967 22.5914L22.9688 23.6192L21.2729 21.9234C20.9679 21.6182 20.4732 21.6183 20.1681 21.9234C19.863 22.2285 19.8629 22.7232 20.1681 23.0282L21.864 24.7242L20.8361 25.7521L19.1401 24.056C18.835 23.751 18.3404 23.751 18.0352 24.056C17.7301 24.3611 17.7301 24.8558 18.0352 25.161L20.6538 27.7796C20.654 27.7798 20.6543 27.78 20.6545 27.7802C21.2629 28.3884 22.0354 28.7634 22.8886 28.8646C23.3899 28.9241 23.8606 29.1514 24.214 29.505L24.8233 30.1142L21.9475 32.9898C20.9729 33.9646 20.9729 35.5506 21.9475 36.5253C22.4349 37.0127 23.0751 37.2564 23.7153 37.2564C24.3555 37.2564 24.9957 37.0127 25.4831 36.5253L28.3589 33.6497L31.2345 36.5254C31.7218 37.0128 32.3621 37.2564 33.0022 37.2564C33.6424 37.2564 34.2826 37.0128 34.77 36.5254C35.7448 35.5507 35.7447 33.9646 34.77 32.99L31.8943 30.1142L32.5036 29.505C32.857 29.1516 33.3278 28.9242 33.8291 28.8647C34.6826 28.7635 35.4553 28.3882 36.0638 27.7797L37.1835 26.66C38.6641 25.1794 38.6641 22.7703 37.1835 21.2896C35.7029 19.8089 33.2938 19.8089 31.8132 21.2895ZM23.0727 27.313C22.6572 27.2637 22.2752 27.1023 21.9525 26.8453L25.09 23.7078C25.347 24.0305 25.5084 24.4126 25.5577 24.8281C25.6583 25.6762 26.0443 26.4739 26.6448 27.0743L27.2541 27.6836L25.9283 29.0094L25.3191 28.4002C24.7186 27.7997 23.9208 27.4136 23.0727 27.313ZM33.6652 34.0947C34.0308 34.4602 34.0308 35.055 33.6652 35.4205C33.2997 35.786 32.7049 35.786 32.3393 35.4205L29.4636 32.5448L30.7895 31.2189L33.6652 34.0947ZM36.0786 25.555L34.959 26.6747C34.6009 27.0328 34.1466 27.2535 33.645 27.313C32.7969 27.4136 31.9992 27.7996 31.3988 28.4001L24.3784 35.4205C24.0129 35.786 23.4181 35.786 23.0525 35.4205C22.687 35.055 22.687 34.4602 23.0525 34.0946L30.073 27.0742C30.6734 26.4737 31.0594 25.676 31.1601 24.828C31.2197 24.3264 31.4404 23.8721 31.7984 23.5141L32.9182 22.3943C33.3539 21.9586 33.9261 21.7407 34.4985 21.7407C35.0708 21.7407 35.6431 21.9586 36.0788 22.3943C36.9501 23.2657 36.9501 24.6836 36.0786 25.555Z" fill="#052A75"/>
</g>
<defs>
<clipPath id="clip0_346_1348">
<rect width="39.8438" height="39.8438" fill="white" transform="translate(5 5.07812)"/>
</clipPath>
</defs>
</svg>
