<svg width="40" height="40" viewBox="0 0 40 40" fill="none" xmlns="http://www.w3.org/2000/svg">
<path d="M9.32769 1.15193C9.4291 1.15148 9.5305 1.15102 9.63498 1.15055C9.74737 1.15083 9.85976 1.15113 9.97215 1.15145C10.0916 1.15121 10.2112 1.15091 10.3307 1.15054C10.6592 1.14973 10.9877 1.14991 11.3162 1.15024C11.6705 1.15043 12.0248 1.14973 12.379 1.14914C13.0731 1.14815 13.7672 1.14801 14.4613 1.14819C15.0254 1.14833 15.5895 1.14819 16.1536 1.14786C16.2338 1.14781 16.3141 1.14777 16.3967 1.14772C16.5597 1.14763 16.7227 1.14753 16.8857 1.14744C18.4148 1.14659 19.9439 1.14676 21.4729 1.14723C22.8722 1.14764 24.2715 1.14676 25.6707 1.14527C27.107 1.14376 28.5433 1.14311 29.9795 1.14341C30.7861 1.14355 31.5926 1.14336 32.3992 1.14226C33.0858 1.14133 33.7725 1.14121 34.4591 1.14216C34.8095 1.14262 35.1599 1.14271 35.5103 1.14177C35.831 1.14092 36.1518 1.14116 36.4725 1.14226C36.5885 1.14247 36.7046 1.14228 36.8206 1.14166C37.9115 1.1362 37.9115 1.1362 38.3597 1.40619C38.6857 1.75788 38.7601 1.95598 38.7606 2.42874C38.7609 2.53086 38.7612 2.63298 38.7615 2.7382C38.7615 2.85262 38.7614 2.96703 38.7613 3.08145C38.7615 3.20215 38.7618 3.32285 38.762 3.44355C38.7627 3.77647 38.7628 4.10939 38.7629 4.44232C38.763 4.80089 38.7636 5.15946 38.7641 5.51804C38.7652 6.30267 38.7657 7.0873 38.766 7.87193C38.7662 8.36156 38.7666 8.85119 38.7669 9.34082C38.7679 10.6956 38.7687 12.0504 38.7689 13.4052C38.7689 13.4919 38.769 13.5787 38.769 13.6681C38.769 13.7551 38.769 13.842 38.769 13.9316C38.7691 14.1079 38.7691 14.2841 38.7691 14.4604C38.7692 14.5478 38.7692 14.6352 38.7692 14.7253C38.7695 16.1423 38.7709 17.5594 38.7727 18.9765C38.7745 20.4302 38.7755 21.884 38.7756 23.3377C38.7757 24.1544 38.7761 24.9711 38.7775 25.7878C38.7787 26.4831 38.7791 27.1784 38.7785 27.8738C38.7782 28.2287 38.7783 28.5837 38.7794 28.9386C38.7804 29.2634 38.7803 29.5881 38.7793 29.9129C38.7792 30.0305 38.7794 30.1482 38.7801 30.2659C38.7809 30.4255 38.7802 30.5851 38.7794 30.7448C38.7795 30.8335 38.7795 30.9223 38.7796 31.0138C38.7343 31.38 38.5891 31.5764 38.3158 31.8163C38.018 32.0301 37.8608 32.0411 37.4951 32.0417C37.3933 32.042 37.2916 32.0424 37.1868 32.0427C37.0728 32.0427 36.9588 32.0427 36.8448 32.0427C36.7245 32.0429 36.6042 32.0432 36.484 32.0436C36.1522 32.0443 35.8205 32.0446 35.4888 32.0448C35.1315 32.0451 34.7742 32.0459 34.4169 32.0466C33.5533 32.0481 32.6898 32.0489 31.8263 32.0496C31.4199 32.0499 31.0135 32.0504 30.6071 32.0508C29.2567 32.0521 27.9062 32.0532 26.5557 32.0538C26.205 32.0539 25.8544 32.0541 25.5038 32.0542C25.4166 32.0543 25.3295 32.0543 25.2397 32.0544C23.8275 32.055 22.4154 32.057 21.0032 32.0595C19.5542 32.0621 18.1053 32.0635 16.6563 32.0638C15.8424 32.0639 15.0285 32.0646 14.2146 32.0666C13.5215 32.0683 12.8285 32.0689 12.1354 32.0682C11.7817 32.0678 11.428 32.068 11.0743 32.0695C10.7505 32.0709 10.4267 32.0708 10.1029 32.0696C9.98574 32.0694 9.86859 32.0697 9.75146 32.0707C8.63732 32.0789 8.63732 32.0789 8.20349 31.7187C7.97897 31.4138 7.93967 31.197 7.93897 30.8215C7.93821 30.7185 7.93746 30.6155 7.93668 30.5093C7.93703 30.3951 7.93739 30.2808 7.93778 30.1666C7.93734 30.0452 7.9368 29.9237 7.93617 29.8023C7.93474 29.4684 7.93477 29.1346 7.93504 28.8007C7.93509 28.4407 7.9338 28.0807 7.93269 27.7207C7.93074 27.0153 7.9301 26.3099 7.92997 25.6045C7.92985 25.0313 7.92937 24.458 7.92863 23.8847C7.92657 22.26 7.92548 20.6352 7.92566 19.0104C7.92567 18.9228 7.92568 18.8352 7.92569 18.7449C7.9257 18.6572 7.92571 18.5695 7.92572 18.4791C7.92581 17.0571 7.92357 15.6351 7.92027 14.2131C7.9169 12.7535 7.91528 11.294 7.91548 9.83437C7.91556 9.01471 7.91491 8.19507 7.91239 7.37542C7.91026 6.67762 7.90975 5.97984 7.91134 5.28204C7.91211 4.92595 7.91212 4.5699 7.91009 4.21382C7.90825 3.88784 7.90857 3.56193 7.91062 3.23595C7.91098 3.11803 7.91055 3.0001 7.90925 2.88218C7.89903 1.89222 7.89903 1.89222 8.1827 1.53743C8.51332 1.20824 8.87492 1.15228 9.32769 1.15193ZM26.4164 7.12884C26.2999 7.41365 26.2749 7.66831 26.3285 7.96869C26.5391 8.36729 26.7599 8.60727 27.1879 8.74994C27.372 8.7565 27.5563 8.75832 27.7405 8.75757C27.794 8.75746 27.8474 8.75735 27.9024 8.75723C28.0728 8.75679 28.2431 8.75581 28.4135 8.75482C28.5291 8.75443 28.6447 8.75407 28.7603 8.75375C29.0434 8.75289 29.3266 8.75154 29.6097 8.74994C29.1654 9.27842 28.6823 9.76518 28.1929 10.2513C28.106 10.3379 28.0192 10.4244 27.9325 10.511C27.7467 10.6962 27.5608 10.8814 27.3749 11.0664C27.0808 11.359 26.7871 11.652 26.4935 11.945C25.6588 12.7778 24.8237 13.6101 23.9883 14.442C23.526 14.9024 23.064 15.3631 22.6023 15.824C22.3104 16.1154 22.0182 16.4064 21.7257 16.6972C21.5441 16.8778 21.3629 17.0588 21.1817 17.2398C21.0977 17.3237 21.0134 17.4075 20.9291 17.4911C20.814 17.6052 20.6995 17.7198 20.585 17.8345C20.4886 17.9305 20.4886 17.9305 20.3903 18.0285C20.1657 18.2805 20.0865 18.4435 20.0492 18.7792C20.0947 19.2187 20.279 19.4366 20.6107 19.7167C20.9098 19.8692 21.0749 19.8911 21.4066 19.8437C21.7384 19.6462 22.0059 19.4199 22.2777 19.1471C22.3153 19.1096 22.3529 19.072 22.3917 19.0334C22.5166 18.9086 22.6409 18.7832 22.7652 18.6579C22.855 18.5679 22.9449 18.4779 23.0348 18.3879C23.2277 18.1948 23.4204 18.0013 23.613 17.8077C23.9172 17.5018 24.222 17.1963 24.5268 16.891C25.0086 16.4083 25.4901 15.9252 25.9714 15.442C26.8342 14.5757 27.6975 13.7098 28.5612 12.8443C28.8644 12.5405 29.1674 12.2364 29.4702 11.9322C29.6581 11.7434 29.8462 11.5548 30.0343 11.3663C30.1218 11.2786 30.2091 11.1908 30.2964 11.1029C30.4152 10.9834 30.5342 10.8641 30.6533 10.7449C30.72 10.6779 30.7867 10.611 30.8553 10.5421C31.016 10.3906 31.016 10.3906 31.1722 10.3124C31.1698 10.3877 31.1673 10.4629 31.1648 10.5404C31.1563 10.8216 31.1509 11.1027 31.1465 11.3839C31.1441 11.5052 31.141 11.6265 31.1369 11.7478C31.0819 12.5439 31.0819 12.5439 31.3987 13.2418C31.7413 13.5184 31.9418 13.552 32.3743 13.5476C32.6587 13.503 32.8087 13.3853 33.0179 13.1951C33.2649 12.8542 33.3014 12.485 33.3031 12.0745C33.3038 11.9762 33.3046 11.8779 33.3053 11.7767C33.3053 11.6704 33.3052 11.5641 33.3051 11.4578C33.3054 11.3476 33.3058 11.2375 33.3061 11.1274C33.3067 10.8971 33.3067 10.6668 33.3063 10.4365C33.3058 10.1425 33.3072 9.84848 33.309 9.55445C33.3101 9.32716 33.3102 9.09989 33.3099 8.87261C33.31 8.76425 33.3104 8.65589 33.3112 8.54754C33.3254 7.75483 33.3254 7.75483 33.0472 7.03119C32.6832 6.69381 32.478 6.63068 31.9881 6.62673C31.9354 6.62622 31.8828 6.62571 31.8286 6.62518C31.6542 6.62364 31.4797 6.62273 31.3053 6.62195C31.2457 6.62163 31.1861 6.62131 31.1247 6.62098C30.8091 6.61935 30.4934 6.61823 30.1778 6.6175C29.8522 6.61664 29.5267 6.61395 29.2011 6.61085C28.9505 6.6088 28.6998 6.60815 28.4491 6.60787C28.3291 6.60749 28.2092 6.60658 28.0892 6.60513C27.9209 6.60322 27.7527 6.6033 27.5844 6.60385C27.4887 6.60339 27.3931 6.60293 27.2946 6.60246C26.909 6.65834 26.6634 6.83239 26.4164 7.12884Z" fill="url(#paint0_linear_346_1621)"/>
<path d="M2.97332 21.0632C3.05394 21.0637 3.13455 21.0641 3.21761 21.0646C3.47313 21.0663 3.72857 21.0702 3.98406 21.0742C4.15811 21.0758 4.33216 21.0772 4.50622 21.0785C4.93115 21.0819 5.35604 21.0871 5.78094 21.0938C5.78119 21.1446 5.78145 21.1954 5.78172 21.2477C5.78808 22.4868 5.79528 23.7258 5.8034 24.9648C5.80731 25.564 5.81094 26.1632 5.8139 26.7624C5.81648 27.2849 5.81959 27.8074 5.82334 28.3299C5.82531 28.6063 5.82701 28.8828 5.82807 29.1592C5.82927 29.4685 5.83167 29.7778 5.83415 30.0871C5.83432 30.1778 5.83449 30.2685 5.83466 30.3619C5.84202 31.0806 5.9082 31.733 6.2448 32.3779C6.28418 32.4552 6.32356 32.5324 6.36413 32.612C6.46996 32.7889 6.57287 32.9048 6.71844 33.0469C6.71844 33.0984 6.71844 33.15 6.71844 33.2031C6.78581 33.2347 6.78581 33.2347 6.85454 33.2669C7.09179 33.3913 7.29968 33.5494 7.51494 33.7082C8.16554 34.0643 8.82229 34.0972 9.55066 34.0963C9.65136 34.0971 9.75205 34.0979 9.8558 34.0987C10.1295 34.1008 10.4032 34.1016 10.6769 34.102C10.9639 34.1028 11.2508 34.1048 11.5377 34.1067C12.08 34.1101 12.6223 34.1124 13.1646 34.1142C13.7824 34.1163 14.4002 34.1197 15.0181 34.1233C16.288 34.1305 17.5579 34.1361 18.8278 34.1406C18.8358 34.6758 18.8412 35.2109 18.845 35.7461C18.8465 35.9281 18.8487 36.11 18.8514 36.2919C18.8552 36.554 18.857 36.8159 18.8583 37.0779C18.8599 37.1589 18.8616 37.2398 18.8632 37.3231C18.8634 37.8148 18.8244 38.1245 18.5153 38.5156C18.142 38.7528 17.8137 38.7836 17.3824 38.7803C17.2837 38.7809 17.2837 38.7809 17.183 38.7816C16.9631 38.7827 16.7433 38.7821 16.5234 38.7816C16.3656 38.782 16.2077 38.7826 16.0498 38.7832C15.6214 38.7846 15.1931 38.7845 14.7647 38.7841C14.407 38.7838 14.0494 38.7843 13.6918 38.7848C12.8482 38.7859 12.0046 38.7857 11.161 38.7849C10.2905 38.784 9.4201 38.7851 8.54967 38.7872C7.80231 38.7889 7.05496 38.7894 6.3076 38.7889C5.86124 38.7887 5.4149 38.7889 4.96854 38.7902C4.5489 38.7914 4.12929 38.7911 3.70965 38.7896C3.55565 38.7894 3.40164 38.7896 3.24764 38.7904C3.0374 38.7914 2.82725 38.7905 2.61701 38.7892C2.55607 38.7899 2.49514 38.7907 2.43236 38.7914C2.0265 38.7859 1.79767 38.6923 1.48406 38.4375C1.1631 38.0723 1.15995 37.7322 1.16006 37.2646C1.15978 37.2 1.15949 37.1355 1.15919 37.069C1.15833 36.8521 1.15803 36.6351 1.15773 36.4181C1.15724 36.2628 1.15672 36.1076 1.15618 35.9523C1.15482 35.5299 1.15399 35.1074 1.15335 34.685C1.15295 34.4211 1.15247 34.1572 1.15198 33.8933C1.15049 33.0677 1.14938 32.2421 1.14873 31.4165C1.14797 30.4633 1.14591 29.5102 1.14275 28.557C1.1404 27.8204 1.13924 27.0838 1.13898 26.3472C1.1388 25.9072 1.1381 25.4673 1.13613 25.0273C1.13431 24.6132 1.13398 24.1992 1.13479 23.7851C1.13482 23.6333 1.13433 23.4815 1.13326 23.3297C1.13187 23.1221 1.13243 22.9146 1.13346 22.7069C1.13217 22.6173 1.13217 22.6173 1.13086 22.5259C1.1359 22.1019 1.23514 21.7548 1.48406 21.4063C1.9362 21.0494 2.41806 21.0516 2.97332 21.0632Z" fill="url(#paint1_linear_346_1621)"/>
<defs>
<linearGradient id="paint0_linear_346_1621" x1="7.90625" y1="1.14038" x2="38.8385" y2="32.0146" gradientUnits="userSpaceOnUse">
<stop stop-color="#5BCAFB"/>
<stop offset="1" stop-color="#320DE0"/>
</linearGradient>
<linearGradient id="paint1_linear_346_1621" x1="1.13086" y1="21.0598" x2="18.8625" y2="38.7922" gradientUnits="userSpaceOnUse">
<stop stop-color="#5BCAFB"/>
<stop offset="1" stop-color="#320DE0"/>
</linearGradient>
</defs>
</svg>
