<svg width="40" height="40" viewBox="0 0 40 40" fill="none" xmlns="http://www.w3.org/2000/svg">
<g clip-path="url(#clip0_346_743)">
<path d="M16.3284 3.28123C16.3945 3.32998 16.4606 3.37872 16.5286 3.42894C17.0524 3.83156 17.5109 4.29174 17.9691 4.76561C17.8522 5.03824 17.6962 5.21363 17.4867 5.42196C17.4194 5.4892 17.3522 5.55643 17.2829 5.6257C17.2102 5.69757 17.1376 5.76944 17.0627 5.84349C16.9876 5.91833 16.9125 5.9932 16.8374 6.0681C16.6402 6.2647 16.4426 6.46082 16.2448 6.65684C16.0429 6.85714 15.8414 7.05788 15.64 7.25859C15.2449 7.65199 14.8493 8.04489 14.4534 8.43748C14.9598 9.04109 15.511 9.59627 16.0657 10.1552C16.1881 10.2789 16.31 10.403 16.4315 10.5275C17.9008 12.0326 19.5391 13.1658 21.7124 13.236C22.917 13.2445 24.0614 12.9671 25.1224 12.3877C25.3909 12.2656 25.3909 12.2656 25.5408 12.3141C25.7431 12.4482 25.9027 12.6015 26.0746 12.7732C26.1107 12.8091 26.1469 12.845 26.1841 12.882C26.305 13.0022 26.4253 13.123 26.5456 13.2438C26.6322 13.3302 26.7188 13.4166 26.8055 13.5029C27.0407 13.7374 27.2754 13.9724 27.5101 14.2075C27.7557 14.4535 28.0017 14.6991 28.2476 14.9448C28.6607 15.3576 29.0734 15.7707 29.4859 16.184C29.9627 16.6616 30.44 17.1386 30.9176 17.6154C31.3278 18.0248 31.7376 18.4346 32.1472 18.8445C32.3917 19.0894 32.6364 19.3341 32.8814 19.5785C33.1118 19.8084 33.3417 20.0387 33.5714 20.2693C33.6557 20.3538 33.7402 20.4382 33.8247 20.5224C33.9403 20.6376 34.0554 20.7532 34.1703 20.8689C34.2348 20.9334 34.2993 20.998 34.3657 21.0645C34.7956 21.5454 34.8738 21.9645 34.8654 22.5925C34.8196 23.0646 34.6123 23.3842 34.2679 23.7012C33.8712 24.0104 33.5034 24.0789 33.0112 24.0909C32.3312 23.9936 31.965 23.6605 31.5001 23.1847C31.4345 23.1192 31.3688 23.0536 31.3012 22.9861C31.1227 22.8073 30.945 22.6277 30.7677 22.4476C30.5818 22.2592 30.3947 22.072 30.2078 21.8846C29.8545 21.5301 29.5023 21.1746 29.1504 20.8188C28.7495 20.4135 28.3474 20.0094 27.9453 19.6053C27.1187 18.7745 26.2934 17.9424 25.4691 17.1094C25.3818 17.1836 25.2947 17.258 25.2076 17.3323C25.159 17.3737 25.1105 17.4151 25.0605 17.4578C24.8868 17.6089 24.7233 17.7681 24.5612 17.9315C24.4995 17.9934 24.4378 18.0554 24.3742 18.1192C24.3117 18.1823 24.2493 18.2455 24.1849 18.3105C24.1203 18.3755 24.0557 18.4404 23.9891 18.5074C23.8312 18.6662 23.6735 18.8252 23.5159 18.9844C23.6237 19.2268 23.7473 19.3908 23.9356 19.5769C23.99 19.6311 24.0444 19.6853 24.1005 19.7412C24.1602 19.7998 24.2199 19.8585 24.2814 19.9189C24.3443 19.9813 24.4072 20.0437 24.472 20.108C24.6087 20.2435 24.7455 20.3789 24.8824 20.5141C25.0992 20.7281 25.3154 20.9427 25.5314 21.1575C26.1458 21.7681 26.7611 22.3777 27.377 22.9867C27.7538 23.3592 28.1297 23.7325 28.5052 24.1063C28.6484 24.2485 28.7919 24.3904 28.9357 24.5321C29.1369 24.7303 29.3371 24.9295 29.5372 25.1289C29.6265 25.2161 29.6265 25.2161 29.7176 25.3052C30.1631 25.7522 30.4242 26.1375 30.4251 26.792C30.4087 27.362 30.2597 27.7052 29.8636 28.1103C29.4084 28.4167 28.9944 28.5752 28.4378 28.5156C27.322 28.2412 26.4225 26.9792 25.6393 26.1935C25.5056 26.0596 25.3718 25.9258 25.2381 25.7919C24.8883 25.4419 24.5388 25.0916 24.1893 24.7412C23.8317 24.3828 23.4739 24.0247 23.1161 23.6665C22.4159 22.9654 21.7158 22.264 21.0159 21.5625C20.9287 21.6367 20.8416 21.7111 20.7544 21.7855C20.7059 21.8269 20.6574 21.8682 20.6074 21.9109C20.4337 22.062 20.2702 22.2213 20.108 22.3846C20.0155 22.4775 20.0155 22.4775 19.9211 22.5723C19.8586 22.6355 19.7961 22.6986 19.7317 22.7637C19.6671 22.8286 19.6025 22.8936 19.536 22.9605C19.3781 23.1193 19.2204 23.2783 19.0628 23.4375C19.4013 23.8425 19.7571 24.2199 20.132 24.5912C20.1903 24.6492 20.2485 24.7072 20.3085 24.767C20.4341 24.892 20.5598 25.017 20.6856 25.1419C20.8848 25.3398 21.0838 25.5379 21.2826 25.7361C21.8477 26.2993 22.4133 26.8621 22.9792 27.4245C23.3261 27.7693 23.6725 28.1144 24.0187 28.4598C24.1505 28.591 24.2824 28.7221 24.4144 28.8531C24.5989 29.0361 24.783 29.2196 24.9669 29.4032C25.0213 29.4569 25.0757 29.5106 25.1317 29.566C25.6064 30.0416 25.9925 30.4935 26.0242 31.1993C26.0019 31.7318 25.8261 32.1064 25.4691 32.5C25.0758 32.8461 24.6639 32.9949 24.1409 32.9687C23.5439 32.8945 23.2132 32.71 22.8125 32.2699C22.1124 31.5493 21.0122 31.2364 20.0311 31.2197C19.5698 31.222 19.1264 31.2396 18.6722 31.3281C18.6503 31.2704 18.6285 31.2127 18.606 31.1532C18.0635 29.7804 17.3091 28.8528 15.9338 28.2559C15.3748 28.0567 14.8068 27.9627 14.2191 27.8906C14.2085 27.8187 14.1979 27.7468 14.187 27.6727C13.9668 26.3777 13.4076 25.327 12.3596 24.5187C11.6963 24.0768 11.0133 23.8226 10.2347 23.6719C10.2317 23.5626 10.2317 23.5626 10.2286 23.4512C10.1743 22.2321 9.85146 21.0684 8.99719 20.1541C7.86907 19.1239 6.61305 18.7553 5.1083 18.8127C4.63165 18.8521 4.15844 18.9971 3.74268 19.234C3.59405 19.2969 3.59405 19.2969 3.44574 19.2929C3.2 19.1819 3.02823 19.0034 2.8421 18.8135C2.80098 18.7717 2.75986 18.7299 2.71749 18.6869C0.922533 16.8159 -0.0115633 14.3103 -0.0184638 11.7384C-0.019214 11.5702 -0.0216386 11.4021 -0.0241096 11.234C-0.03192 10.2199 0.110164 9.24278 0.44464 8.28123C0.464499 8.22331 0.484357 8.16538 0.504817 8.1057C1.05491 6.55717 1.94978 5.2852 3.1253 4.14061C3.16045 4.10194 3.1956 4.06326 3.23181 4.02342C6.51509 0.503878 12.6245 0.525342 16.3284 3.28123Z" fill="url(#paint0_linear_346_743)"/>
<path d="M36.2108 3.50864C36.5113 3.77733 36.796 4.06125 37.0805 4.34665C37.1849 4.45066 37.2902 4.55375 37.3988 4.65335C38.5881 5.75853 39.3516 7.43976 39.7658 8.98441C39.7922 9.08189 39.8187 9.17938 39.846 9.27982C40.2027 10.8974 40.1399 12.7862 39.6876 14.375C39.6734 14.4271 39.6592 14.4792 39.6446 14.5329C39.1239 16.4001 38.0239 17.9658 36.6408 19.2969C36.3275 19.1712 36.1173 18.9511 35.8843 18.7155C35.8404 18.6717 35.7964 18.6279 35.7511 18.5827C35.6038 18.4356 35.457 18.288 35.3103 18.1404C35.2048 18.0349 35.0993 17.9294 34.9938 17.824C34.7073 17.5375 34.4212 17.2506 34.1353 16.9635C33.8364 16.6637 33.5371 16.3643 33.2379 16.0649C32.6712 15.4977 32.1049 14.9301 31.5388 14.3624C30.8942 13.7161 30.2493 13.0703 29.6043 12.4245C28.2774 11.096 26.9511 9.76696 25.6251 8.43753C25.398 8.54643 25.2427 8.64714 25.0703 8.83182C25.026 8.87831 24.9816 8.92481 24.936 8.97271C24.8895 9.02169 24.843 9.07066 24.7951 9.12112C24.3796 9.54616 23.9865 9.90998 23.4376 10.1563C23.3817 10.1824 23.3258 10.2084 23.2683 10.2353C22.417 10.5591 21.271 10.5095 20.4347 10.1761C19.7854 9.85838 19.2716 9.40166 18.7501 8.90628C18.6894 8.85411 18.6287 8.80195 18.5661 8.7482C18.4376 8.59378 18.4376 8.59378 18.4436 8.45487C18.548 8.20379 18.727 8.03747 18.9173 7.84942C18.9591 7.80719 19.0009 7.76497 19.044 7.72147C19.1827 7.58175 19.3222 7.44291 19.4618 7.30411C19.5591 7.20662 19.6564 7.1091 19.7537 7.01154C19.9582 6.80666 20.1632 6.6022 20.3684 6.39804C20.629 6.13881 20.8885 5.87857 21.1477 5.61798C21.3489 5.41592 21.5506 5.21444 21.7526 5.01311C21.8483 4.91755 21.9438 4.82182 22.0392 4.72591C25.733 1.01543 31.9823 -0.119025 36.2108 3.50864Z" fill="url(#paint1_linear_346_743)"/>
<path d="M6.67171 21.8521C7.07783 22.1807 7.34245 22.5197 7.42153 23.0468C7.45251 23.8623 7.12423 24.3513 6.58291 24.9377C6.47895 25.0437 6.37437 25.1491 6.26919 25.2539C6.21823 25.3071 6.16727 25.3602 6.11477 25.415C5.68256 25.8489 5.20953 26.1757 4.6011 26.2991C4.04706 26.2845 3.63696 26.1931 3.22201 25.8114C2.8132 25.3672 2.69356 24.935 2.71053 24.3365C2.7916 23.6606 3.2976 23.2036 3.74965 22.7343C3.80424 22.6766 3.85882 22.6189 3.91506 22.5595C4.66288 21.7869 5.62864 21.169 6.67171 21.8521Z" fill="url(#paint2_linear_346_743)"/>
<path d="M10.3412 26.5386C10.8081 26.7486 11.0692 27.0784 11.3132 27.5243C11.4588 27.9765 11.4586 28.339 11.3229 28.7938C11.1278 29.1401 10.8998 29.4016 10.6247 29.6874C10.581 29.7331 10.5374 29.7787 10.4924 29.8258C10.3404 29.984 10.1874 30.141 10.0339 30.2977C9.9841 30.3492 9.93433 30.4006 9.88304 30.4537C9.46155 30.878 9.0712 31.1293 8.46527 31.176C7.90685 31.1631 7.48152 30.9216 7.08283 30.5428C6.76465 30.1701 6.66647 29.7342 6.6938 29.2498C6.79018 28.5166 7.28458 28.048 7.79266 27.5536C7.89448 27.4505 7.89448 27.4505 7.99835 27.3453C8.68064 26.6707 9.35334 26.2489 10.3412 26.5386Z" fill="url(#paint3_linear_346_743)"/>
<path d="M20.8104 34.2383C21.153 34.478 21.4054 34.7669 21.5624 35.1563C21.5859 35.4096 21.5859 35.4096 21.5868 35.6934C21.5881 35.7867 21.5894 35.8799 21.5908 35.976C21.5222 36.6376 21.0538 37.0317 20.606 37.4756C20.4886 37.5924 20.3727 37.7105 20.2568 37.8289C20.1814 37.9044 20.106 37.9798 20.0304 38.0552C19.9289 38.1568 19.9289 38.1568 19.8254 38.2606C19.3935 38.6142 18.9679 38.717 18.4148 38.6988C17.8782 38.6307 17.5434 38.3667 17.2051 37.9593C16.9946 37.6369 16.9287 37.3505 16.9237 36.9678C16.9215 36.8916 16.9193 36.8153 16.917 36.7368C17.0187 36.0241 17.4923 35.5844 17.9882 35.0977C18.0523 35.0323 18.1165 34.967 18.1826 34.8996C18.9078 34.179 19.8247 33.6513 20.8104 34.2383Z" fill="url(#paint4_linear_346_743)"/>
<path d="M15.1079 30.8984C15.5097 31.1324 15.7923 31.5161 15.938 31.9531C15.9534 32.1268 15.9624 32.3012 15.9673 32.4755C15.9711 32.5677 15.9749 32.6598 15.9789 32.7548C15.8812 33.4522 15.3394 33.9183 14.8589 34.3945C14.7688 34.4869 14.7688 34.4869 14.6768 34.5813C14.2474 35.0103 13.8623 35.3403 13.2494 35.4293C12.6553 35.4185 12.2927 35.3737 11.8267 34.9853C11.4289 34.5143 11.2945 34.1254 11.2871 33.5083C11.4223 32.7685 11.9307 32.319 12.4468 31.8115C12.519 31.738 12.5913 31.6645 12.6657 31.5888C13.3566 30.9019 14.1223 30.4728 15.1079 30.8984Z" fill="url(#paint5_linear_346_743)"/>
</g>
<defs>
<linearGradient id="paint0_linear_346_743" x1="-0.0244141" y1="1.29126" x2="31.509" y2="36.0198" gradientUnits="userSpaceOnUse">
<stop stop-color="#5BCAFB"/>
<stop offset="1" stop-color="#320DE0"/>
</linearGradient>
<linearGradient id="paint1_linear_346_743" x1="18.4417" y1="1.2959" x2="36.1427" y2="22.5696" gradientUnits="userSpaceOnUse">
<stop stop-color="#5BCAFB"/>
<stop offset="1" stop-color="#320DE0"/>
</linearGradient>
<linearGradient id="paint2_linear_346_743" x1="2.70898" y1="21.5576" x2="7.4504" y2="26.2721" gradientUnits="userSpaceOnUse">
<stop stop-color="#5BCAFB"/>
<stop offset="1" stop-color="#320DE0"/>
</linearGradient>
<linearGradient id="paint3_linear_346_743" x1="6.68945" y1="26.4458" x2="11.4197" y2="31.1799" gradientUnits="userSpaceOnUse">
<stop stop-color="#5BCAFB"/>
<stop offset="1" stop-color="#320DE0"/>
</linearGradient>
<linearGradient id="paint4_linear_346_743" x1="16.917" y1="33.9861" x2="21.6315" y2="38.6597" gradientUnits="userSpaceOnUse">
<stop stop-color="#5BCAFB"/>
<stop offset="1" stop-color="#320DE0"/>
</linearGradient>
<linearGradient id="paint5_linear_346_743" x1="11.2871" y1="30.7288" x2="15.9877" y2="35.4205" gradientUnits="userSpaceOnUse">
<stop stop-color="#5BCAFB"/>
<stop offset="1" stop-color="#320DE0"/>
</linearGradient>
<clipPath id="clip0_346_743">
<rect width="40" height="40" fill="white"/>
</clipPath>
</defs>
</svg>
