<svg width="37" height="36" viewBox="0 0 37 36" fill="none" xmlns="http://www.w3.org/2000/svg">
<path fill-rule="evenodd" clip-rule="evenodd" d="M17.152 9.44576C14.9619 9.66829 12.9409 10.7234 11.5062 12.3931C10.0716 14.0628 9.33298 16.2197 9.44284 18.4183C9.55269 20.617 10.5027 22.6895 12.0966 24.2079C13.6905 25.7263 15.8066 26.5746 18.008 26.5778C19.1371 26.5837 20.2561 26.365 21.2999 25.9344C22.3437 25.5038 23.2914 24.87 24.088 24.0698C25.6926 22.459 26.5956 20.2794 26.6 18.0058C26.6 17.7498 26.6 17.4538 26.26 17.4538H24.008C23.668 17.4538 23.668 17.7498 23.668 18.0058C23.6572 19.5116 23.0621 20.9543 22.008 22.0298C20.9462 23.0889 19.5077 23.6837 18.008 23.6837C16.5083 23.6837 15.0698 23.0889 14.008 22.0298C12.951 20.9556 12.3529 19.5127 12.34 18.0058C12.3432 16.5031 12.9412 15.0629 14.0034 14C15.0655 12.937 16.5054 12.338 18.008 12.3338C18.264 12.3338 18.56 12.3338 18.56 11.9938V0.641756C18.5717 0.562167 18.5662 0.480983 18.5438 0.403728C18.5213 0.326474 18.4825 0.254963 18.4299 0.194065C18.3773 0.133167 18.3123 0.0843107 18.2391 0.0508224C18.166 0.0173342 18.0864 0 18.006 0C17.9255 0 17.846 0.0173342 17.7729 0.0508224C17.6997 0.0843107 17.6347 0.133167 17.5821 0.194065C17.5295 0.254963 17.4907 0.326474 17.4682 0.403728C17.4458 0.480983 17.4403 0.562167 17.452 0.641756V9.10576C17.4545 9.18928 17.4254 9.27067 17.3706 9.33369C17.3157 9.39672 17.2391 9.43673 17.156 9.44576H17.152ZM33.24 7.48976L28.304 12.4058C28.2535 12.4611 28.1916 12.5048 28.1225 12.5338C28.0534 12.5628 27.9789 12.5765 27.904 12.5738H24.684C24.5064 12.5809 24.3385 12.657 24.216 12.7858L18.344 18.6258C18.2938 18.6762 18.2342 18.7162 18.1686 18.7436C18.1029 18.771 18.0325 18.7852 17.9614 18.7854C17.8903 18.7856 17.8198 18.7718 17.754 18.7447C17.6882 18.7177 17.6284 18.6779 17.578 18.6278C17.5276 18.5776 17.4875 18.518 17.4601 18.4523C17.4327 18.3867 17.4185 18.3163 17.4184 18.2452C17.4182 18.174 17.432 18.1036 17.459 18.0378C17.4861 17.972 17.5258 17.9122 17.576 17.8618L23.408 12.0378C23.4819 11.9763 23.5391 11.8971 23.5741 11.8076C23.609 11.718 23.6207 11.621 23.608 11.5258V8.32576C23.61 8.25418 23.6263 8.18372 23.6558 8.11848C23.6854 8.05324 23.7276 7.99453 23.78 7.94576L28.772 2.98176C28.8501 2.90612 28.9488 2.85524 29.0557 2.83548C29.1626 2.81573 29.273 2.82798 29.3729 2.8707C29.4729 2.91342 29.558 2.98471 29.6176 3.07563C29.6772 3.16655 29.7087 3.27304 29.708 3.38176V6.22976C29.7075 6.27455 29.7159 6.31901 29.7328 6.3605C29.7497 6.40199 29.7747 6.43969 29.8064 6.47137C29.8381 6.50305 29.8758 6.52807 29.9173 6.54497C29.9587 6.56186 30.0032 6.57029 30.048 6.56976H32.848C32.9584 6.56501 33.0677 6.59403 33.1612 6.65293C33.2548 6.71184 33.3281 6.79784 33.3716 6.89948C33.415 7.00112 33.4264 7.11359 33.4044 7.2219C33.3823 7.3302 33.3277 7.42922 33.248 7.50576L33.24 7.48976ZM28.04 17.4378H35.496C35.6424 17.4378 35.7828 17.4959 35.8863 17.5994C35.9898 17.703 36.048 17.8434 36.048 17.9898C36.048 18.1362 35.9898 18.2766 35.8863 18.3801C35.7828 18.4836 35.6424 18.5418 35.496 18.5418H32.604C32.5583 18.5374 32.5121 18.5433 32.4689 18.5588C32.4257 18.5744 32.3865 18.5993 32.354 18.6318C32.3215 18.6642 32.2966 18.7035 32.281 18.7467C32.2655 18.7899 32.2597 18.836 32.264 18.8818C32.0564 21.8024 30.9935 24.5972 29.208 26.9178C27.2238 29.443 24.4462 31.2256 21.324 31.9778C21.068 32.0218 20.768 31.9778 20.768 31.6378V27.5138C20.7778 27.4446 20.8071 27.3797 20.8524 27.3266C20.8977 27.2734 20.9573 27.2343 21.024 27.2138C22.4652 26.7112 23.7748 25.891 24.856 24.8138C26.6696 23.0109 27.6951 20.563 27.708 18.0058C27.708 17.7498 27.708 17.4538 28.048 17.4538L28.04 17.4378ZM18.556 28.0058V35.4458C18.5442 35.5846 18.4807 35.7139 18.3781 35.8081C18.2755 35.9023 18.1413 35.9546 18.002 35.9546C17.8627 35.9546 17.7285 35.9023 17.6259 35.8081C17.5233 35.7139 17.4598 35.5846 17.448 35.4458V32.6458C17.4515 32.562 17.4227 32.4801 17.3677 32.4169C17.3126 32.3536 17.2354 32.3139 17.152 32.3058C14.1009 32.1015 11.1963 30.9221 8.86644 28.9415C6.5366 26.961 4.9049 24.2841 4.212 21.3058C4.128 21.0498 4.212 20.7978 4.508 20.7978H8.468C8.54547 20.792 8.62242 20.8143 8.68483 20.8606C8.74724 20.9068 8.79095 20.974 8.808 21.0498C9.45178 22.9807 10.6866 24.6602 12.3378 25.8504C13.9889 27.0406 15.9726 27.6813 18.008 27.6818C18.264 27.6818 18.56 27.6818 18.56 28.0218L18.556 28.0058ZM7.956 18.5258H0.552C0.405601 18.5258 0.265197 18.4676 0.161677 18.3641C0.0581569 18.2606 0 18.1202 0 17.9738C0 17.8274 0.0581569 17.687 0.161677 17.5834C0.265197 17.4799 0.405601 17.4218 0.552 17.4218H3.444C3.53603 17.4304 3.62797 17.4044 3.70192 17.349C3.77586 17.2935 3.82651 17.2125 3.844 17.1218C3.99599 14.0732 5.11275 11.1518 7.0331 8.77921C8.95344 6.40664 11.578 4.70564 14.528 3.92176C14.5787 3.91256 14.6308 3.91435 14.6807 3.927C14.7307 3.93966 14.7773 3.96289 14.8175 3.99512C14.8577 4.02735 14.8905 4.06783 14.9137 4.11383C14.9369 4.15983 14.95 4.21028 14.952 4.26176V8.54976C14.9585 8.62179 14.9413 8.69397 14.9031 8.75534C14.8648 8.81671 14.8075 8.86391 14.74 8.88976C13.3987 9.37398 12.1786 10.1437 11.164 11.1458C10.2569 12.0433 9.53639 13.1116 9.04415 14.289C8.55191 15.4664 8.29764 16.7296 8.296 18.0058C8.296 18.2618 8.296 18.5578 7.956 18.5578V18.5258ZM22.216 17.4218H21.664C21.6201 17.4204 21.5767 17.4318 21.5391 17.4545C21.5015 17.4772 21.4712 17.5103 21.452 17.5498L19.364 19.6338C17.536 21.4338 14.808 18.6698 16.6 16.8858L18.428 15.0138C18.4666 14.9934 18.4989 14.9629 18.5215 14.9255C18.544 14.8882 18.556 14.8454 18.556 14.8018V13.7818C18.5503 13.6934 18.5127 13.6102 18.4501 13.5476C18.3876 13.485 18.3043 13.4474 18.216 13.4418C17.2953 13.4083 16.3861 13.6537 15.6073 14.1459C14.8285 14.6381 14.2166 15.3541 13.8518 16.2C13.4869 17.046 13.3861 17.9824 13.5626 18.8866C13.7391 19.7908 14.1846 20.6206 14.8408 21.2672C15.497 21.9139 16.3332 22.3472 17.2399 22.5104C18.1466 22.6736 19.0815 22.5591 19.9219 22.1819C20.7624 21.8047 21.4694 21.1824 21.9501 20.3965C22.4308 19.6106 22.6629 18.6978 22.616 17.7778C22.6015 17.6824 22.5531 17.5954 22.4796 17.533C22.4061 17.4705 22.3125 17.4367 22.216 17.4378V17.4218Z" fill="url(#paint0_linear_186_5581)"/>
<defs>
<linearGradient id="paint0_linear_186_5581" x1="0" y1="0" x2="35.9545" y2="36.0479" gradientUnits="userSpaceOnUse">
<stop stop-color="#5BCAFB"/>
<stop offset="1" stop-color="#320DE0"/>
</linearGradient>
</defs>
</svg>
