<svg width="50" height="50" viewBox="0 0 50 50" fill="none" xmlns="http://www.w3.org/2000/svg">
<rect width="50" height="50" rx="12" fill="white"/>
<g clip-path="url(#clip0_346_335)">
<path d="M38.5331 12.7266V10.5194C38.5331 9.81025 37.9582 9.23535 37.249 9.23535H33.5426C32.8334 9.23535 32.2585 9.81025 32.2585 10.5194V12.7266H38.5331Z" fill="#93B2F4"/>
<path d="M40.6392 20.8875H30.1524C28.177 20.8875 26.5756 22.4889 26.5756 24.4643V38.5214C26.5756 40.4969 28.177 42.0983 30.1524 42.0983H40.6392C42.6147 42.0983 44.2161 40.4969 44.2161 38.5214V24.4643C44.2161 22.4889 42.6147 20.8875 40.6392 20.8875Z" fill="#FD7DA0"/>
<path d="M31.4489 22.5688H27.1195C26.7752 23.1185 26.5756 23.7679 26.5756 24.4643V38.5214C26.5756 40.4968 28.177 42.0983 30.1524 42.0983H36.1548V27.2747C36.1548 24.6757 34.0479 22.5688 31.4489 22.5688Z" fill="#DB4B86"/>
<path d="M16.6425 12.0612L12.7982 5.78442H17.1742L22.5771 12.0612H16.6425Z" fill="#27A2CC"/>
<path d="M22.8161 14.9932H26.3374C26.9899 14.9932 27.6088 14.7037 28.0269 14.2027C28.7946 13.2828 28.6853 11.9178 27.781 11.1318L26.6767 10.172C26.0546 9.63136 25.2582 9.33364 24.434 9.33364H11.0023L8.73135 6.52563H5.78516L7.217 11.9956C8.71967 13.8893 11.0048 14.9932 13.4223 14.9932H22.8161Z" fill="#67CCD1"/>
<path d="M16.6646 12.793L12.9017 18.9368H17.1851L22.4736 12.793H16.6646Z" fill="#67CCD1"/>
<path d="M31.4489 27.2747H14.5077V44.2158H31.4489V27.2747Z" fill="#FDCB50"/>
<path d="M19.6358 32.0383C19.6358 30.3532 19.9655 28.7454 20.5624 27.2747H14.5077V44.2158H28.7831C23.4994 42.6875 19.6358 37.8144 19.6358 32.0383Z" fill="#FD8F01"/>
<path d="M25.0003 27.2747H20.9561V31.3189H25.0003V27.2747Z" fill="white"/>
<path d="M20.5679 41.2927H18.7276C18.2944 41.2927 17.9432 40.9416 17.9432 40.5084C17.9432 40.0753 18.2944 39.7241 18.7276 39.7241H20.5679C21.0011 39.7241 21.3523 40.0753 21.3523 40.5084C21.3523 40.9416 21.0011 41.2927 20.5679 41.2927Z" fill="white"/>
<path d="M22.5859 37.8418H18.7277C18.2945 37.8418 17.9434 37.4907 17.9434 37.0575C17.9434 36.6243 18.2945 36.2732 18.7277 36.2732H22.5859C23.019 36.2732 23.3702 36.6243 23.3702 37.0575C23.3702 37.4907 23.019 37.8418 22.5859 37.8418Z" fill="white"/>
<path d="M40.6391 20.1028H39.3172V10.5193C39.3172 9.37877 38.3894 8.45093 37.2488 8.45093H33.5425C32.4019 8.45093 31.4741 9.37885 31.4741 10.5193V20.1028H30.1522C27.7474 20.1028 25.791 22.0592 25.791 24.464V26.4901H14.5076C14.0744 26.4901 13.7233 26.8413 13.7233 27.2745V44.2156C13.7233 44.6488 14.0744 44.9999 14.5076 44.9999H31.4488C31.8819 44.9999 32.2331 44.6488 32.2331 44.2156V42.8823H39.8548V44.2156C39.8548 44.6488 40.2059 44.9999 40.6391 44.9999C41.0723 44.9999 41.4234 44.6488 41.4234 44.2156V42.8103C43.455 42.4397 45.0003 40.6581 45.0003 38.5211V24.464C45.0003 22.0592 43.0439 20.1028 40.6391 20.1028ZM33.0427 10.5193C33.0427 10.2437 33.2669 10.0196 33.5425 10.0196H37.2488C37.5244 10.0196 37.7486 10.2437 37.7486 10.5193V20.1028H33.0427V10.5193ZM30.6644 43.4313H15.2919V28.0588H30.6644V43.4313ZM43.4317 38.5211C43.4317 40.0609 42.179 41.3137 40.6391 41.3137H32.2331V27.2745C32.2331 26.8413 31.8819 26.4901 31.4488 26.4901H27.3597V24.464C27.3597 22.9242 28.6124 21.6715 30.1523 21.6715H40.6392C42.179 21.6715 43.4317 22.9242 43.4317 24.464V38.5211H43.4317Z" fill="#052A75"/>
<path d="M17.7795 19.4485L20.9876 15.7215V15.7773H26.3367C27.2243 15.7773 28.0596 15.3865 28.6283 14.705C29.6621 13.4664 29.5124 11.5978 28.2948 10.5395L27.1905 9.57976C26.4257 8.91506 25.4465 8.54902 24.4333 8.54902H20.5887L17.7687 5.27263C17.6196 5.09953 17.4026 5 17.1741 5H12.7981C12.5143 5 12.2526 5.15341 12.1138 5.40102C11.9751 5.64863 11.9811 5.95192 12.1293 6.19396L13.5717 8.54902H11.376L9.34066 6.03224C9.1918 5.84808 8.96764 5.7411 8.73085 5.7411H5.78458C5.54152 5.7411 5.31227 5.8538 5.16372 6.0462C5.01517 6.23859 4.96427 6.48894 5.02583 6.72408L6.45768 12.194C6.48521 12.2993 6.53438 12.3977 6.60199 12.483C8.2634 14.5766 10.7491 15.7774 13.4218 15.7774H13.9171L12.2329 18.5273C12.0847 18.7693 12.0788 19.0726 12.2174 19.3202C12.3562 19.5678 12.6178 19.7213 12.9018 19.7213H17.1851C17.4134 19.7211 17.6305 19.6216 17.7795 19.4485ZM14.1982 6.56863H16.8145L18.5191 8.54902H15.4112L14.1982 6.56863ZM13.4218 14.2087C11.2844 14.2087 9.29289 13.272 7.93227 11.6329L6.80066 7.30973H8.35642L10.3918 9.82651C10.5407 10.0107 10.7648 10.1176 11.0016 10.1176H24.4334C25.0684 10.1176 25.6822 10.3471 26.1615 10.7637L27.2658 11.7235C27.8436 12.2256 27.9145 13.1122 27.4242 13.6998C27.1543 14.0232 26.7579 14.2086 26.3368 14.2086H22.2898L23.068 13.3045C23.268 13.0722 23.3142 12.7445 23.1864 12.4659C23.0586 12.1872 22.7801 12.0085 22.4735 12.0085H16.6646C16.3916 12.0085 16.1383 12.1504 15.9957 12.3832L14.8778 14.2085H13.4218V14.2087ZM14.3018 18.1525L17.104 13.5773H20.7636L16.8254 18.1525H14.3018Z" fill="#052A75"/>
</g>
<defs>
<clipPath id="clip0_346_335">
<rect width="40" height="40" fill="white" transform="translate(5 5)"/>
</clipPath>
</defs>
</svg>
