<svg width="50" height="50" viewBox="0 0 50 50" fill="none" xmlns="http://www.w3.org/2000/svg">
<rect width="50" height="50" rx="12" fill="white"/>
<g clip-path="url(#clip0_346_587)">
<path d="M43.8154 17.1162H17.2302V39.959H43.8154V17.1162Z" fill="#FDCB50"/>
<path d="M21.6797 23.3165C21.6797 21.1543 22.0173 19.071 22.6425 17.1167H17.23V39.9594H30.3415C25.1047 36.2901 21.6797 30.204 21.6797 23.3165Z" fill="#FD8F01"/>
<path d="M40.5603 17.1162C38.7239 22.715 32.534 25.4493 32.534 25.4493C32.534 25.4493 26.3449 22.715 24.5085 17.1162H40.5603Z" fill="#FD8F01"/>
<path d="M17.2299 39.9594H6.18506V32.6209C6.18506 31.7209 6.67162 30.8918 7.45545 30.4563L10.0008 29.0419L10.7374 24.0522C10.9164 22.8395 11.9524 21.9417 13.1724 21.9417H17.2299V39.9594Z" fill="#BC9AF4"/>
<path d="M10.5582 26.7378C10.5582 25.5587 10.6997 24.4128 10.9665 23.3164C10.8547 23.543 10.7761 23.7902 10.7374 24.0521L10.0008 29.0418L7.45545 30.4562C6.67162 30.8917 6.18506 31.7207 6.18506 32.6208V39.9593H17.23V38.8845C13.2212 36.3428 10.5582 31.8528 10.5582 26.7378Z" fill="#6864F7"/>
<path d="M17.2297 21.9417H13.1722C11.9522 21.9417 10.9162 22.8396 10.7372 24.0522L10.0005 29.0419L9.97656 29.0552H17.2296L17.2297 21.9417Z" fill="white"/>
<path d="M13.1388 44.2189C15.4134 44.2189 17.2573 42.366 17.2573 40.0805C17.2573 37.7949 15.4134 35.9421 13.1388 35.9421C10.8642 35.9421 9.02026 37.7949 9.02026 40.0805C9.02026 42.366 10.8642 44.2189 13.1388 44.2189Z" fill="#67CCD1"/>
<path d="M35.9728 44.2189C38.2474 44.2189 40.0913 42.366 40.0913 40.0805C40.0913 37.7949 38.2474 35.9421 35.9728 35.9421C33.6982 35.9421 31.8542 37.7949 31.8542 40.0805C31.8542 42.366 33.6982 44.2189 35.9728 44.2189Z" fill="#67CCD1"/>
<path d="M41.2095 13.3594C41.2095 20.231 33.6428 23.5741 33.6428 23.5741C33.6428 23.5741 26.0762 20.231 26.0762 13.3594C26.0762 9.17414 29.4639 5.78125 33.6428 5.78125C37.8217 5.78125 41.2095 9.17406 41.2095 13.3594Z" fill="#FD6050"/>
<path d="M33.6427 16.7204C35.4961 16.7204 36.9986 15.2157 36.9986 13.3595C36.9986 11.5033 35.4961 9.99854 33.6427 9.99854C31.7893 9.99854 30.2869 11.5033 30.2869 13.3595C30.2869 15.2157 31.7893 16.7204 33.6427 16.7204Z" fill="white"/>
<path d="M13.1387 40.8617C12.8215 40.8617 12.5286 40.6618 12.4122 40.3671C12.2928 40.0645 12.3775 39.7077 12.6229 39.4932C12.8736 39.2743 13.2403 39.2411 13.5289 39.4042C13.8157 39.5663 13.9695 39.9109 13.9043 40.2328C13.8313 40.5932 13.5077 40.8617 13.1387 40.8617Z" fill="white"/>
<path d="M35.9723 40.8617C35.6455 40.8617 35.3476 40.6501 35.2375 40.3433C35.1274 40.0365 35.2248 39.684 35.4767 39.4767C35.7324 39.2662 36.1033 39.2442 36.3845 39.4171C36.6665 39.5904 36.8076 39.9364 36.7327 40.2578C36.6513 40.6069 36.3309 40.8617 35.9723 40.8617Z" fill="white"/>
<path d="M43.815 16.3355H41.527C41.834 15.3712 41.9904 14.3754 41.9904 13.3594C41.9904 8.75 38.2456 5 33.6425 5C29.0395 5 25.2947 8.75 25.2947 13.3594C25.2947 14.3753 25.4511 15.3712 25.7581 16.3355H17.2296C16.7981 16.3355 16.4483 16.6853 16.4483 17.1167V21.1605H13.1721C11.577 21.1605 10.1979 22.3546 9.96419 23.9382L9.28388 28.5463L7.07567 29.7734C6.04427 30.3465 5.40356 31.4377 5.40356 32.6209V39.9595C5.40356 40.3909 5.75333 40.7407 6.18481 40.7407H8.28286C8.60513 43.1423 10.6599 45.0001 13.1387 45.0001C15.6175 45.0001 17.6722 43.1423 17.9945 40.7407H31.117C31.4393 43.1423 33.494 45.0001 35.9728 45.0001C38.4515 45.0001 40.5063 43.1423 40.8286 40.7407H43.8151C44.2466 40.7407 44.5964 40.3909 44.5964 39.9595V17.1167C44.5962 16.6852 44.2465 16.3355 43.815 16.3355ZM33.6426 6.5625C37.3841 6.5625 40.428 9.61156 40.428 13.3594C40.428 15.9647 39.2536 18.3444 36.9373 20.4323C35.5992 21.6385 34.2408 22.3992 33.6427 22.7053C32.2653 21.9996 26.8572 18.8761 26.8572 13.3594C26.8572 9.61156 29.9011 6.5625 33.6426 6.5625ZM8.32146 39.1781H6.96606V32.6208C6.96606 32.0045 7.29888 31.4368 7.83466 31.1391L10.38 29.7247C10.5925 29.6066 10.7379 29.3964 10.7734 29.1559L11.51 24.1662C11.6315 23.3434 12.3461 22.7228 13.1722 22.7228H16.4484V36.4558C15.5759 35.652 14.4134 35.1607 13.1387 35.1607C10.7437 35.1609 8.74466 36.8949 8.32146 39.1781ZM13.1386 43.4375C11.2985 43.4375 9.80138 41.9316 9.80138 40.0804C9.80138 38.2292 11.2985 36.7233 13.1386 36.7233C14.8333 36.7233 16.2369 38.0005 16.4483 39.6483V39.9594C16.4483 40.0294 16.4576 40.0973 16.4749 40.1618C16.4318 41.9755 14.9518 43.4375 13.1386 43.4375ZM35.9727 43.4375C34.1325 43.4375 32.6354 41.9316 32.6354 40.0804C32.6354 38.2292 34.1325 36.7233 35.9727 36.7233C37.8129 36.7233 39.31 38.2292 39.31 40.0804C39.31 41.9316 37.8129 43.4375 35.9727 43.4375ZM43.0337 39.1781H40.7898C40.3666 36.8948 38.3675 35.1608 35.9726 35.1608C33.5777 35.1608 31.5787 36.8948 31.1554 39.1781H18.0108V17.898H26.4018C27.0804 19.2307 28.0647 20.4847 29.338 21.6255C31.2993 23.3827 33.245 24.2525 33.3269 24.2887C33.4275 24.3331 33.5351 24.3554 33.6427 24.3554C33.7503 24.3554 33.8579 24.3332 33.9585 24.2887C34.0404 24.2525 35.986 23.3827 37.9474 21.6255C39.2208 20.4847 40.2051 19.2307 40.8836 17.898H43.034V39.1781H43.0337Z" fill="#052A75"/>
</g>
<defs>
<clipPath id="clip0_346_587">
<rect width="40" height="40" fill="white" transform="translate(5 5)"/>
</clipPath>
</defs>
</svg>
